<svg width="671" height="183" viewBox="0 0 671 183" fill="none" xmlns="http://www.w3.org/2000/svg">
<path d="M35.6787 55.9189C34.5239 57.6585 32.9617 58.71 30.9921 59.0733C29.0558 59.4299 26.8679 58.7985 24.4285 57.1792L20.4094 54.5112L14.6156 63.2392L11.8862 61.4273L25.7636 40.5222L32.512 45.002C34.8715 46.5682 36.2828 48.3261 36.7459 50.2755C37.229 52.2382 36.8733 54.1193 35.6787 55.9189ZM25.9218 54.9297C27.4414 55.9385 28.7802 56.3518 29.938 56.1698C31.0959 55.9878 32.0796 55.287 32.8893 54.0673C34.6016 51.4879 33.9781 49.2159 31.0188 47.2514L26.9997 44.5835L21.9027 52.2617L25.9218 54.9297Z" fill="white"/>
<path d="M37.9666 75.0268L45.4911 79.5588L44.1167 81.8409L33.7858 75.6186L46.7319 54.1242L49.5382 55.8144L37.9666 75.0268Z" fill="white"/>
<path d="M65.5812 68.2251L61.5593 75.5861L69.5837 79.9704L68.2891 82.3398L60.2648 77.9555L56.1221 85.5375L65.0942 90.4397L63.7996 92.8091L51.9526 86.3362L64.0009 64.285L75.8479 70.7579L74.5533 73.1273L65.5812 68.2251Z" fill="white"/>
<path d="M88.9879 99.1481L79.1315 94.3919L74.8908 98.5412L71.7782 97.0392L90.791 78.5131L94.1954 80.1559L91.4911 106.552L88.3786 105.05L88.9879 99.1481ZM89.3027 96.3421L90.7247 82.958L81.1323 92.3994L89.3027 96.3421Z" fill="white"/>
<path d="M107.71 113.828C106.183 113.188 104.921 112.348 103.926 111.307C102.962 110.254 102.336 109.107 102.048 107.868C101.769 106.607 101.883 105.34 102.389 104.069L105.61 105.417C105.267 106.548 105.325 107.652 105.785 108.729C106.276 109.793 107.275 110.641 108.78 111.271C110.219 111.873 111.497 111.991 112.612 111.625C113.759 111.247 114.569 110.493 115.042 109.364C115.412 108.478 115.47 107.657 115.214 106.899C114.959 106.142 114.526 105.467 113.916 104.873C113.306 104.28 112.45 103.557 111.349 102.706C109.989 101.669 108.927 100.756 108.163 99.9684C107.422 99.19 106.896 98.2412 106.584 97.1219C106.303 95.9898 106.464 94.7042 107.066 93.2651C107.594 92.0032 108.383 91.0194 109.433 90.314C110.482 89.6085 111.694 89.231 113.068 89.1814C114.463 89.1411 115.914 89.4359 117.42 90.0659C119.589 90.9738 121.133 92.2574 122.052 93.9167C122.993 95.5852 123.177 97.3532 122.603 99.2206L119.282 97.8309C119.542 96.899 119.402 95.9295 118.86 94.9226C118.328 93.8934 117.387 93.0963 116.037 92.5312C114.775 92.0031 113.606 91.9044 112.531 92.235C111.466 92.5435 110.687 93.2845 110.196 94.4579C109.844 95.2992 109.789 96.0828 110.032 96.8087C110.297 97.5439 110.712 98.199 111.278 98.774C111.875 99.3362 112.731 100.058 113.844 100.941C115.196 102.001 116.249 102.935 117.003 103.745C117.766 104.533 118.299 105.497 118.602 106.639C118.914 107.758 118.764 109.048 118.153 110.509C117.68 111.639 116.936 112.576 115.922 113.322C114.907 114.069 113.683 114.506 112.251 114.635C110.818 114.764 109.304 114.495 107.71 113.828Z" fill="white"/>
<path d="M136.323 100.76L133.457 108.643L142.051 111.767L141.129 114.305L132.535 111.181L129.583 119.301L139.192 122.794L138.27 125.331L125.582 120.719L134.167 97.1032L146.854 101.715L145.932 104.253L136.323 100.76Z" fill="white"/>
<path d="M199.603 117.244L186.127 139.624L182.579 138.681L182.132 117.664L171.098 135.628L167.574 134.729L167.247 108.64L170.622 109.538L170.443 131.505L181.755 112.498L185.304 113.442L185.422 135.414L196.193 116.337L199.603 117.244Z" fill="white"/>
<path d="M218.204 140.819L207.464 138.714L204.413 143.802L201.021 143.137L214.722 120.4L218.431 121.127L222.501 147.347L219.109 146.682L218.204 140.819ZM217.798 138.024L215.784 124.717L208.895 136.28L217.798 138.024Z" fill="white"/>
<path d="M239.221 124.548L235.412 149.35L232.174 148.852L235.983 124.051L239.221 124.548Z" fill="white"/>
<path d="M264.349 127.761L264.04 130.407L257.246 129.616L254.651 151.893L251.397 151.514L253.992 129.237L247.162 128.441L247.471 125.795L264.349 127.761Z" fill="white"/>
<path d="M301.32 130.109L301.208 132.771L290.31 132.311L289.954 140.764L298.802 141.137L298.69 143.799L289.841 143.426L289.365 154.72L286.092 154.582L287.149 129.512L301.32 130.109Z" fill="white"/>
<path d="M321.578 155.559C319.25 155.587 317.12 155.072 315.187 154.016C313.253 152.935 311.711 151.429 310.56 149.499C309.432 147.545 308.853 145.343 308.824 142.896C308.794 140.448 309.32 138.245 310.4 136.288C311.504 134.307 313.01 132.764 314.917 131.661C316.823 130.534 318.94 129.957 321.268 129.928C323.62 129.9 325.763 130.426 327.696 131.507C329.629 132.564 331.159 134.057 332.286 135.988C333.414 137.918 333.992 140.12 334.022 142.591C334.052 145.063 333.527 147.278 332.446 149.235C331.366 151.192 329.872 152.734 327.966 153.861C326.059 154.964 323.93 155.53 321.578 155.559ZM321.543 152.715C323.295 152.694 324.862 152.267 326.244 151.434C327.65 150.601 328.74 149.424 329.514 147.902C330.312 146.38 330.698 144.624 330.674 142.632C330.65 140.616 330.221 138.869 329.387 137.391C328.577 135.889 327.471 134.738 326.069 133.939C324.667 133.14 323.078 132.751 321.303 132.772C319.527 132.794 317.948 133.221 316.566 134.054C315.184 134.886 314.094 136.064 313.296 137.585C312.522 139.083 312.147 140.839 312.172 142.855C312.196 144.847 312.613 146.594 313.423 148.097C314.257 149.599 315.375 150.749 316.777 151.548C318.203 152.347 319.792 152.736 321.543 152.715Z" fill="white"/>
<path d="M357.495 153.716L350.825 143.893L346.874 144.166L347.583 154.402L344.314 154.628L342.582 129.596L350.663 129.037C352.554 128.906 354.169 129.119 355.507 129.676C356.868 130.231 357.91 131.037 358.633 132.094C359.356 133.151 359.766 134.385 359.864 135.798C359.983 137.522 359.585 139.077 358.671 140.463C357.78 141.848 356.356 142.825 354.399 143.393L361.409 153.445L357.495 153.716ZM346.693 141.545L351.505 141.212C353.277 141.089 354.576 140.566 355.402 139.643C356.227 138.696 356.589 137.492 356.488 136.032C356.385 134.547 355.863 133.428 354.92 132.676C354.002 131.921 352.645 131.606 350.849 131.73L346.037 132.063L346.693 141.545Z" fill="white"/>
<path d="M413.467 121.045L410.302 146.977L406.678 147.564L397.69 128.562L394.951 149.465L391.367 150.082L380.418 126.401L383.865 125.842L392.67 145.969L395.236 123.999L398.861 123.412L407.939 143.421L409.984 121.609L413.467 121.045Z" fill="white"/>
<path d="M424.747 118.451L430.028 142.981L426.826 143.67L421.544 119.141L424.747 118.451Z" fill="white"/>
<path d="M449.369 112.496L450.024 115.078L443.394 116.76L448.911 138.499L445.735 139.305L440.219 117.566L433.554 119.257L432.899 116.675L449.369 112.496Z" fill="white"/>
<path d="M475.918 104.552L483.331 128.524L480.201 129.491L476.84 118.623L464.631 122.399L467.991 133.267L464.862 134.235L457.449 110.263L460.578 109.295L463.833 119.82L476.042 116.044L472.788 105.52L475.918 104.552Z" fill="white"/>
<path d="M492.109 98.8178C494.673 97.8618 497.068 97.5193 499.295 97.7903C501.537 98.0304 503.483 98.8542 505.135 100.262C506.809 101.661 508.095 103.564 508.992 105.97C509.89 108.376 510.163 110.656 509.814 112.81C509.479 114.933 508.543 116.819 507.006 118.468C505.483 120.085 503.44 121.372 500.876 122.328L493.557 125.058L484.79 101.547L492.109 98.8178ZM499.933 119.799C502.969 118.667 504.987 117.005 505.989 114.813C506.982 112.598 506.937 110.04 505.855 107.14C504.765 104.216 503.105 102.236 500.873 101.198C498.665 100.152 496.054 100.19 493.04 101.314L488.79 102.899L495.683 121.383L499.933 119.799Z" fill="white"/>
<path d="M534.704 108.584L525.125 101.567L521.495 103.15L525.596 112.555L522.593 113.864L512.565 90.863L519.99 87.6259C521.728 86.8682 523.321 86.5274 524.767 86.6035C526.236 86.6699 527.489 87.0797 528.524 87.8327C529.559 88.5858 530.36 89.6113 530.925 90.9093C531.616 92.4933 531.763 94.0917 531.367 95.7046C530.992 97.3078 529.978 98.7055 528.325 99.8976L538.301 107.016L534.704 108.584ZM520.445 100.741L524.867 98.813C526.495 98.1032 527.544 97.1749 528.012 96.028C528.471 94.8591 528.408 93.6037 527.823 92.2617C527.229 90.8977 526.361 90.0191 525.221 89.626C524.103 89.2233 522.719 89.3816 521.069 90.1009L516.647 92.0288L520.445 100.741Z" fill="white"/>
<path d="M558.115 91.1711L548.33 96.0728L549.027 101.965L545.937 103.513L542.874 77.1436L546.254 75.4506L565.507 93.7094L562.417 95.2572L558.115 91.1711ZM556.085 89.2085L546.354 79.9101L547.974 93.2717L556.085 89.2085Z" fill="white"/>
<path d="M588.732 51.5409L595.162 76.8619L591.995 78.7206L576.742 64.255L581.749 84.734L578.632 86.6055L559.858 68.4877L562.87 66.7202L578.358 82.2994L572.805 60.889L575.972 59.0303L591.672 74.4017L585.69 53.3267L588.732 51.5409Z" fill="white"/>
<path d="M618.573 54.902L609.523 61.0553L610.993 66.8032L608.135 68.7464L601.611 43.0144L604.737 40.8891L626.236 56.4399L623.378 58.383L618.573 54.902ZM616.302 53.2252L605.426 45.2962L608.799 58.3259L616.302 53.2252Z" fill="white"/>
<path d="M635.152 46.5349L642.173 41.2556L643.774 43.3848L634.135 50.633L619.054 30.5784L621.673 28.6095L635.152 46.5349Z" fill="white"/>
<path d="M638.382 15.5958L649.383 29.8484L647.254 31.5674L635.637 17.8124L638.382 15.5958ZM653.022 36.3029C652.537 36.695 651.99 36.8587 651.383 36.794C650.775 36.7293 650.275 36.4543 649.883 35.9688C649.491 35.4833 649.328 34.9368 649.392 34.3293C649.457 33.7218 649.732 33.2221 650.218 32.83C650.684 32.453 651.212 32.3044 651.801 32.3842C652.408 32.4489 652.908 32.7239 653.3 33.2094C653.692 33.6949 653.856 34.2413 653.791 34.8488C653.745 35.4413 653.489 35.926 653.022 36.3029Z" fill="white"/>
</svg>
