<svg width="414" height="108" viewBox="0 0 414 108" fill="none" xmlns="http://www.w3.org/2000/svg">
<path d="M35.0619 30.2314C35.2198 28.6181 34.9371 27.132 34.2139 25.7731C33.5031 24.3936 32.3969 23.2525 30.8954 22.3497C29.3939 21.447 27.8261 20.9805 26.1921 20.9502C24.591 20.9117 23.0513 21.3302 21.5728 22.2055C20.1274 23.0727 18.8976 24.3496 17.8836 26.0362C16.8695 27.7229 16.3185 29.4079 16.2306 31.0912C16.1632 32.7869 16.5158 34.3431 17.2883 35.7597C18.0938 37.1681 19.2473 38.3236 20.7488 39.2264C22.8468 40.4877 24.9518 40.8992 27.0636 40.4607C29.1755 40.0221 30.9876 38.8013 32.5 36.7982L23.9228 31.6414L25.2955 29.3583L36.8654 36.3144L35.567 38.4741C34.3389 40.1441 32.8066 41.4351 30.9701 42.3472C29.1459 43.2387 27.2028 43.6527 25.1407 43.5891C23.0911 43.505 21.1201 42.894 19.2277 41.7563C17.2326 40.5568 15.6905 38.9996 14.6015 37.0847C13.5248 35.1492 13.004 33.0578 13.0389 30.8105C13.0944 28.5756 13.7529 26.4091 15.0142 24.3111C16.2756 22.2131 17.8802 20.6155 19.828 19.5183C21.8088 18.4129 23.9002 17.892 26.1022 17.9557C28.3165 17.9989 30.4213 18.6202 32.4164 19.8198C34.6996 21.1924 36.3752 22.97 37.4434 25.1524C38.5322 27.3472 38.8594 29.7142 38.4249 32.2533L35.0619 30.2314Z" fill="white"/>
<path d="M54.9616 54.3128L45.1201 49.5259L40.8665 53.6619L37.7586 52.1503L56.8291 33.6836L60.2284 35.337L57.4417 61.7242L54.3338 60.2125L54.9616 54.3128ZM55.2852 51.5078L56.7489 38.1282L47.1271 47.5396L55.2852 51.5078Z" fill="white"/>
<path d="M99.0951 51.405L90.3203 74.7204L87.2543 73.5665L93.7973 56.181L79.5049 70.65L77.3486 69.8385L76.1213 49.4901L69.5655 66.9093L66.4995 65.7554L75.2743 42.44L78.5762 43.6826L79.9484 66.2011L95.8269 50.175L99.0951 51.405Z" fill="white"/>
<path d="M110.8 57.4772L108.518 65.5489L117.318 68.0363L116.583 70.6345L107.784 68.1471L105.434 76.4612L115.272 79.2425L114.538 81.8407L101.547 78.1682L108.382 53.9879L121.373 57.6603L120.639 60.2585L110.8 57.4772Z" fill="white"/>
<path d="M147.376 63.3406L142.85 88.0211L139.627 87.4302L144.153 62.7497L147.376 63.3406Z" fill="white"/>
<path d="M161.407 91.1006C159.764 90.8948 158.323 90.4241 157.085 89.6885C155.874 88.9321 154.963 87.9957 154.353 86.8792C153.746 85.7389 153.516 84.4886 153.662 83.1282L157.127 83.5622C157.1 84.744 157.452 85.7919 158.184 86.706C158.943 87.5992 160.132 88.1473 161.752 88.3501C163.3 88.544 164.562 88.315 165.538 87.6634C166.542 86.9908 167.119 86.0473 167.272 84.8328C167.391 83.8803 167.226 83.0735 166.777 82.4125C166.327 81.7516 165.729 81.2171 164.982 80.8091C164.235 80.4011 163.217 79.9349 161.928 79.4107C160.339 78.7762 159.071 78.182 158.124 77.6281C157.201 77.0772 156.439 76.3045 155.838 75.3101C155.264 74.2949 155.074 73.0133 155.268 71.4654C155.438 70.108 155.934 68.9486 156.756 67.9873C157.577 67.026 158.643 66.3371 159.953 65.9207C161.287 65.5072 162.763 65.4019 164.383 65.6047C166.717 65.897 168.549 66.7191 169.879 68.0709C171.233 69.4257 171.885 71.0795 171.833 73.0323L168.261 72.5849C168.262 71.6174 167.866 70.7213 167.074 69.8965C166.286 69.0479 165.165 68.5326 163.712 68.3507C162.355 68.1807 161.203 68.3992 160.256 69.0062C159.312 69.5895 158.761 70.5122 158.603 71.7743C158.49 72.6792 158.648 73.4488 159.076 74.0829C159.528 74.7201 160.104 75.2397 160.804 75.6417C161.53 76.023 162.548 76.4891 163.858 77.0401C165.444 77.6984 166.709 78.3164 167.653 78.8941C168.599 79.448 169.371 80.2341 169.969 81.2523C170.571 82.2468 170.773 83.5298 170.576 85.1015C170.424 86.316 169.959 87.4188 169.182 88.4099C168.405 89.401 167.343 90.1509 165.998 90.6597C164.652 91.1684 163.122 91.3153 161.407 91.1006Z" fill="white"/>
<path d="M203.573 93.9385C201.917 93.9247 200.432 93.6244 199.117 93.0374C197.826 92.4267 196.812 91.6022 196.077 90.5641C195.342 89.502 194.968 88.2868 194.955 86.9187L198.447 86.9477C198.557 88.1246 199.029 89.1246 199.862 89.9475C200.72 90.7467 201.964 91.153 203.596 91.1666C205.156 91.1795 206.383 90.8057 207.278 90.0451C208.196 89.2607 208.661 88.2565 208.671 87.0326C208.679 86.0726 208.421 85.2904 207.898 84.6861C207.375 84.0817 206.719 83.6203 205.93 83.3017C205.14 82.9831 204.075 82.6383 202.734 82.2671C201.082 81.8214 199.753 81.3783 198.749 80.938C197.769 80.4978 196.922 79.8187 196.21 78.9008C195.522 77.959 195.184 76.7082 195.197 75.1483C195.208 73.7803 195.566 72.5712 196.271 71.521C196.976 70.4709 197.955 69.663 199.207 69.0974C200.484 68.5319 201.938 68.256 203.57 68.2696C205.922 68.2891 207.837 68.893 209.316 70.0814C210.818 71.2699 211.657 72.8369 211.833 74.7824L208.233 74.7525C208.121 73.7916 207.624 72.9474 206.742 72.22C205.86 71.4687 204.687 71.0869 203.223 71.0748C201.855 71.0634 200.736 71.4141 199.866 72.1269C198.997 72.8157 198.556 73.7961 198.546 75.0681C198.538 75.98 198.784 76.7261 199.283 77.3063C199.806 77.8866 200.439 78.3359 201.18 78.6541C201.946 78.9484 203.011 79.2933 204.376 79.6887C206.028 80.1584 207.356 80.6254 208.36 81.0898C209.364 81.5302 210.223 82.2213 210.935 83.1633C211.647 84.0812 211.997 85.3322 211.984 86.9161C211.974 88.1401 211.64 89.2893 210.983 90.3639C210.326 91.4385 209.359 92.3065 208.081 92.9679C206.804 93.6293 205.301 93.9528 203.573 93.9385Z" fill="white"/>
<path d="M236.592 67.4007L236.762 70.0593L229.936 70.4946L231.363 92.8771L228.094 93.0856L226.666 70.7031L219.804 71.1407L219.635 68.4821L236.592 67.4007Z" fill="white"/>
<path d="M261.784 83.918L250.947 85.4433L249.728 91.2498L246.306 91.7315L251.812 65.7626L255.556 65.2357L267.98 88.6809L264.558 89.1625L261.784 83.918ZM260.486 81.4104L254.228 69.4943L251.502 82.6748L260.486 81.4104Z" fill="white"/>
<path d="M290.58 83.9614L282.52 75.2427L278.654 76.102L280.88 86.1175L277.682 86.8284L272.237 62.3344L280.144 60.5766C281.995 60.1652 283.623 60.1351 285.029 60.4865C286.458 60.8326 287.609 61.4742 288.481 62.4113C289.353 63.3483 289.943 64.508 290.25 65.8903C290.625 67.5771 290.464 69.1741 289.766 70.6814C289.092 72.1835 287.83 73.3615 285.979 74.2155L294.41 83.1099L290.58 83.9614ZM278.084 73.5366L282.793 72.4898C284.526 72.1044 285.733 71.3937 286.412 70.3576C287.086 69.298 287.265 68.0537 286.947 66.6246C286.624 65.1721 285.941 64.1439 284.897 63.54C283.876 62.9309 282.487 62.8217 280.73 63.2123L276.021 64.2591L278.084 73.5366Z" fill="white"/>
<path d="M311.702 52.0585L312.465 54.6107L305.912 56.5715L312.341 78.0583L309.203 78.9973L302.774 57.5105L296.186 59.4816L295.423 56.9294L311.702 52.0585Z" fill="white"/>
<path d="M322.635 48.1854L331.115 71.8012L328.031 72.9083L319.552 49.2925L322.635 48.1854Z" fill="white"/>
<path d="M359.435 60.255L356.427 61.5519L336.417 48.4204L344.327 66.7681L341.319 68.065L331.371 44.9899L334.379 43.6929L354.374 56.7915L346.479 38.4768L349.487 37.1799L359.435 60.255Z" fill="white"/>
<path d="M378.018 30.6037C376.708 29.6487 375.284 29.1378 373.746 29.071C372.197 28.9831 370.652 29.3568 369.112 30.1922C367.572 31.0275 366.374 32.1414 365.519 33.5339C364.673 34.8937 364.251 36.4328 364.255 38.1509C364.268 39.8365 364.744 41.5442 365.683 43.2741C366.621 45.004 367.793 46.3341 369.199 47.2645C370.625 48.1834 372.145 48.6696 373.758 48.7232C375.38 48.7442 376.961 48.337 378.501 47.5017C380.653 46.3344 382.076 44.7298 382.77 42.6876C383.465 40.6455 383.333 38.4645 382.375 36.1446L373.578 40.9165L372.307 38.5748L384.174 32.1379L385.376 34.353C386.191 36.2589 386.525 38.2344 386.379 40.2798C386.221 42.304 385.591 44.1882 384.49 45.9325C383.377 47.6557 381.85 49.0437 379.909 50.0965C377.862 51.2065 375.738 51.7446 373.535 51.7107C371.321 51.6557 369.255 51.0428 367.336 49.8718C365.439 48.6894 363.907 47.0223 362.74 44.8705C361.572 42.7186 361.011 40.5251 361.054 38.29C361.107 36.0222 361.72 33.956 362.893 32.0912C364.054 30.2053 365.658 28.7073 367.704 27.5973C370.046 26.3271 372.428 25.7858 374.851 25.9735C377.294 26.1496 379.5 27.0694 381.467 28.7327L378.018 30.6037Z" fill="white"/>
<path d="M389.614 14.9995L398.936 30.4026L396.627 31.8704L386.636 16.8922L389.614 14.9995ZM401.823 37.2267C401.297 37.5614 400.735 37.6624 400.139 37.5296C399.542 37.3967 399.077 37.067 398.742 36.5404C398.407 36.0138 398.306 35.4523 398.439 34.856C398.572 34.2597 398.902 33.7941 399.428 33.4594C399.935 33.1375 400.476 33.0494 401.052 33.1951C401.648 33.328 402.114 33.6577 402.449 34.1843C402.783 34.7109 402.884 35.2724 402.752 35.8687C402.639 36.4521 402.329 36.9048 401.823 37.2267Z" fill="white"/>
</svg>
