<svg width="120" height="120" viewBox="0 0 120 120" fill="none" xmlns="http://www.w3.org/2000/svg">
<g clip-path="url(#clip0_2_104)">
<path d="M60 118.125C92.1015 118.125 118.125 92.1015 118.125 60C118.125 27.8984 92.1015 1.875 60 1.875C27.8984 1.875 1.875 27.8984 1.875 60C1.875 92.1015 27.8984 118.125 60 118.125Z" fill="#515262"/>
<path d="M60 117.656C91.8427 117.656 117.656 91.8427 117.656 60C117.656 28.1573 91.8427 2.34375 60 2.34375C28.1573 2.34375 2.34375 28.1573 2.34375 60C2.34375 91.8427 28.1573 117.656 60 117.656Z" fill="#FF6464"/>
<path d="M60 95.3906C79.5457 95.3906 95.3906 79.5457 95.3906 60C95.3906 40.4543 79.5457 24.6094 60 24.6094C40.4543 24.6094 24.6094 40.4543 24.6094 60C24.6094 79.5457 40.4543 95.3906 60 95.3906Z" fill="#EFF2FA"/>
<path d="M22.6474 38.4345L9.65531 30.9335C4.70813 39.484 1.875 49.4109 1.875 60H16.875C16.875 52.1435 18.9769 44.7785 22.6474 38.4345Z" fill="#FF6464"/>
<path d="M38.4345 22.6474L30.9335 9.65508C22.1133 14.7588 14.7589 22.1133 9.65533 30.9335L22.6474 38.4344C26.434 31.8902 31.8903 26.434 38.4345 22.6474Z" fill="#EFF2FA"/>
<path d="M60 16.875V1.875C49.4107 1.875 39.484 4.70789 30.9335 9.65531L38.4345 22.6477C44.7785 18.9771 52.1435 16.875 60 16.875Z" fill="#FF6464"/>
<path d="M103.125 60H118.125C118.125 49.4109 115.292 39.484 110.345 30.9335L97.3526 38.4345C101.023 44.7785 103.125 52.1435 103.125 60Z" fill="#EFF2FA"/>
<path d="M97.3526 38.4345L110.345 30.9335C105.241 22.1133 97.887 14.7588 89.0665 9.65532L81.5656 22.6474C88.1098 26.434 93.566 31.8902 97.3526 38.4345Z" fill="#FF6464"/>
<path d="M81.5655 22.6474L89.0665 9.65531C80.516 4.70812 70.5891 1.875 60 1.875V16.875C67.8565 16.875 75.2215 18.9771 81.5655 22.6474Z" fill="#EFF2FA"/>
<path d="M16.875 60H1.875C1.875 70.5891 4.70813 80.516 9.65531 89.0667L22.6474 81.5655C18.9769 75.2215 16.875 67.8565 16.875 60Z" fill="#EFF2FA"/>
<path d="M81.5656 97.3526L89.0665 110.345C97.8867 105.241 105.241 97.887 110.345 89.0667L97.3526 81.5656C93.566 88.1098 88.1098 93.566 81.5656 97.3526Z" fill="#EFF2FA"/>
<path d="M22.6474 81.5655L9.65533 89.0667C14.7586 97.887 22.1131 105.241 30.9335 110.345L38.4345 97.3526C31.8903 93.566 26.434 88.1098 22.6474 81.5655Z" fill="#FF6464"/>
<path d="M103.125 60C103.125 67.8565 101.023 75.2215 97.3526 81.5655L110.345 89.0667C115.292 80.516 118.125 70.5891 118.125 60H103.125Z" fill="#FF6464"/>
<path d="M60 103.125V118.125C70.5891 118.125 80.516 115.292 89.0665 110.345L81.5655 97.3526C75.2215 101.023 67.8565 103.125 60 103.125Z" fill="#FF6464"/>
<path d="M38.4345 97.3526L30.9335 110.345C39.484 115.292 49.411 118.125 60 118.125V103.125C52.1435 103.125 44.7785 101.023 38.4345 97.3526Z" fill="#EFF2FA"/>
<path d="M92.7429 46.4794C91.5764 43.6582 89.9986 40.9472 88.0531 38.422L87.2583 37.3905L92.5988 34.3073L93.2053 35.1145C95.2568 37.8448 96.9368 40.7191 98.1987 43.657L98.5983 44.5875L93.2398 47.6812L92.7429 46.4794Z" fill="#EFF2FA"/>
<path d="M92.2941 35.7991L88.9556 37.7264C90.9091 40.2621 92.5554 43.0437 93.7959 46.0439L97.151 44.1068C95.8723 41.1288 94.2171 38.3588 92.2941 35.7991Z" fill="#EFF2FA"/>
<path d="M81.578 31.9472C79.0529 30.0016 76.3418 28.4238 73.5207 27.2573L72.3188 26.7605L75.4125 21.402L76.343 21.8016C79.2811 23.0634 82.155 24.7434 84.8855 26.7949L85.6927 27.4015L82.6097 32.742L81.578 31.9472Z" fill="#EFF2FA"/>
<path d="M73.9561 26.2041C76.9564 27.4446 79.7379 29.0906 82.2736 31.0444L84.2009 27.7059C81.6413 25.7829 78.871 24.1277 75.8932 22.8487L73.9561 26.2041Z" fill="#EFF2FA"/>
<path d="M64.6627 24.9145C62.888 24.6806 61.4065 24.5716 60 24.5716C58.5935 24.5716 57.112 24.6806 55.3374 24.9145L54.0485 25.0845V18.8848L55.0533 18.7648C56.869 18.548 58.4871 18.4427 59.9998 18.4427C61.5124 18.4427 63.1306 18.548 64.9463 18.7648L65.951 18.8848V25.0842L64.6627 24.9145Z" fill="#EFF2FA"/>
<path d="M55.1885 19.8966V23.7846C56.7668 23.5765 58.365 23.4321 60 23.4321C61.635 23.4321 63.2332 23.5767 64.8115 23.7846V19.8966C63.2306 19.7079 61.6308 19.5827 60 19.5827C58.3692 19.5827 56.7694 19.7079 55.1885 19.8966Z" fill="#EFF2FA"/>
<path d="M94.9158 65.9515L95.0857 64.6627C95.3196 62.888 95.4284 61.4065 95.4284 60C95.4284 58.5935 95.3194 57.112 95.0857 55.3373L94.9158 54.0485H101.115L101.235 55.0533C101.452 56.869 101.557 58.4869 101.557 59.9998C101.557 61.5131 101.452 63.131 101.235 64.9465L101.115 65.9513H94.9158V65.9515Z" fill="#EFF2FA"/>
<path d="M96.5681 60C96.5681 61.6352 96.4235 63.2332 96.2156 64.8117H100.103C100.292 63.2306 100.418 61.631 100.418 60C100.418 58.3692 100.292 56.7694 100.104 55.1885H96.2156C96.4235 56.7668 96.5681 58.3648 96.5681 60Z" fill="#EFF2FA"/>
<path d="M18.885 65.9515L18.765 64.9467C18.5485 63.1312 18.443 61.5134 18.443 60C18.443 58.4871 18.5482 56.8692 18.765 55.0535L18.8848 54.0488H25.0845L24.9146 55.3376C24.6806 57.1123 24.5717 58.5938 24.5717 60.0002C24.5717 61.4067 24.6806 62.8882 24.9146 64.6629L25.0845 65.9517H18.885V65.9515Z" fill="#EFF2FA"/>
<path d="M23.4319 60C23.4319 58.3648 23.5765 56.7668 23.7844 55.1885H19.8966C19.7079 56.7694 19.5828 58.3692 19.5828 60C19.5828 61.631 19.7079 63.2306 19.8968 64.8117H23.7846C23.5765 63.2332 23.4319 61.6352 23.4319 60Z" fill="#EFF2FA"/>
<path d="M34.3071 27.4012L35.1143 26.7947C37.8446 24.7434 40.7187 23.0632 43.6568 21.8013L44.5873 21.4017L47.681 26.7602L46.4792 27.2571C43.658 28.4236 40.947 30.0014 38.4218 31.947L37.3901 32.7417L34.3071 27.4012Z" fill="#EFF2FA"/>
<path d="M37.7265 31.0444C40.2622 29.0909 43.0437 27.4446 46.044 26.2041L44.1069 22.849C41.1289 24.128 38.3588 25.7831 35.7992 27.7062L37.7265 31.0444Z" fill="#EFF2FA"/>
<path d="M87.2583 82.6097L88.0531 81.5782C89.9986 79.053 91.5764 76.342 92.7429 73.5209L93.2398 72.319L98.5983 75.4127L98.1987 76.3432C96.937 79.2806 95.2571 82.1548 93.2053 84.8855L92.5988 85.6927L87.2583 82.6097Z" fill="#EFF2FA"/>
<path d="M97.1513 75.8934L93.7962 73.9563C92.5556 76.9566 90.9096 79.7379 88.9561 82.2738L92.2943 84.2011C94.2171 81.6413 95.8725 78.8712 97.1513 75.8934Z" fill="#EFF2FA"/>
<path d="M60 101.557C58.4871 101.557 56.8692 101.452 55.0535 101.235L54.0488 101.115V94.916L55.3376 95.0859C57.1123 95.3199 58.5938 95.4286 60.0003 95.4286C61.4067 95.4286 62.8882 95.3196 64.6629 95.0859L65.9517 94.916V101.115L64.947 101.235C63.1308 101.452 61.5129 101.557 60 101.557Z" fill="#EFF2FA"/>
<path d="M64.8115 100.103V96.2156C63.2332 96.4237 61.635 96.5684 60 96.5684C58.365 96.5684 56.7668 96.4237 55.1885 96.2156V100.104C56.7694 100.292 58.3692 100.417 60 100.417C61.6308 100.417 63.2306 100.292 64.8115 100.103Z" fill="#EFF2FA"/>
<path d="M72.319 93.2395L73.5209 92.7427C76.3421 91.5762 79.0531 89.9984 81.5782 88.0528L82.61 87.258L85.6929 92.5983L84.8857 93.2048C82.1553 95.2563 79.2811 96.9363 76.3432 98.1982L75.4128 98.5978L72.319 93.2395Z" fill="#EFF2FA"/>
<path d="M82.2736 88.9559C79.7379 90.9094 76.9564 92.5554 73.9561 93.7959L75.8932 97.151C78.871 95.872 81.6413 94.2169 84.2009 92.2936L82.2736 88.9559Z" fill="#EFF2FA"/>
<path d="M43.6571 98.1984C40.7192 96.9366 37.845 95.2566 35.1146 93.2051L34.3074 92.5985L37.3903 87.2583L38.4221 88.053C40.9472 89.9986 43.6582 91.5764 46.4794 92.7429L47.6813 93.2398L44.5875 98.5983L43.6571 98.1984Z" fill="#EFF2FA"/>
<path d="M46.044 93.7959C43.0437 92.5554 40.2622 90.9094 37.7265 88.9559L35.7992 92.2938C38.3588 94.2171 41.1291 95.8723 44.1069 97.1512L46.044 93.7959Z" fill="#EFF2FA"/>
<path d="M26.7947 84.8855C24.743 82.1548 23.063 79.2806 21.8013 76.3432L21.4017 75.4127L26.7602 72.319L27.2571 73.5209C28.4236 76.342 30.0014 79.053 31.947 81.5782L32.7417 82.6097L27.4013 85.6927L26.7947 84.8855Z" fill="#EFF2FA"/>
<path d="M31.0442 82.2736C29.0906 79.7379 27.4446 76.9563 26.2041 73.9561L22.849 75.8932C24.1277 78.8709 25.7831 81.641 27.7062 84.2006L31.0442 82.2736Z" fill="#EFF2FA"/>
<path d="M21.402 44.5875L21.8016 43.657C23.0635 40.7191 24.7435 37.845 26.7949 35.1145L27.4015 34.3073L32.742 37.3905L31.9472 38.422C30.0017 40.9472 28.4239 43.6582 27.2574 46.4794L26.7605 47.6812L21.402 44.5875Z" fill="#EFF2FA"/>
<path d="M22.8488 44.1066L26.2038 46.0437C27.4444 43.0434 29.0904 40.2619 31.0439 37.7262L27.7057 35.7989C25.7829 38.3587 24.1277 41.1288 22.8488 44.1066Z" fill="#EFF2FA"/>
<path d="M102.427 17.5734C91.0938 6.24094 76.0266 0 60 0C43.9734 0 28.9062 6.24094 17.5734 17.5734C6.2407 28.9059 0 43.9734 0 60C0 76.0266 6.24094 91.0941 17.5734 102.427C28.9062 113.759 43.9734 120 60 120C76.0266 120 91.0938 113.759 102.427 102.427C113.759 91.0941 120 76.0266 120 60C120 43.9734 113.759 28.9062 102.427 17.5734ZM109.615 86.4799L99.8672 80.8523C102.869 75.1359 104.677 68.6995 104.958 61.875H116.216C115.923 70.7454 113.569 79.1018 109.615 86.4799ZM58.125 104.958V116.216C49.2546 115.923 40.8982 113.569 33.5201 109.615L39.1479 99.8672C44.8641 102.869 51.3005 104.677 58.125 104.958ZM61.875 104.958C68.6995 104.677 75.1359 102.869 80.8523 99.8672L86.4802 109.615C79.102 113.569 70.7454 115.924 61.8752 116.216L61.875 104.958ZM60 101.25C37.2546 101.25 18.75 82.7454 18.75 60C18.75 37.2546 37.2546 18.75 60 18.75C82.7454 18.75 101.25 37.2546 101.25 60C101.25 82.7454 82.7454 101.25 60 101.25ZM3.78445 61.875H15.042C15.3232 68.6995 17.1309 75.1359 20.1328 80.8523L10.3852 86.4802C6.43148 79.1018 4.07672 70.7454 3.78445 61.875ZM10.3854 33.5201L20.1328 39.1477C17.1309 44.8641 15.3232 51.3005 15.042 58.125H3.78445C4.07672 49.2546 6.43148 40.8982 10.3854 33.5201ZM61.875 15.042V3.78445C70.7454 4.07648 79.1018 6.43125 86.4799 10.3852L80.8523 20.1328C75.1359 17.1309 68.6995 15.3232 61.875 15.042ZM58.125 15.042C51.3005 15.3232 44.8641 17.1309 39.1477 20.1328L33.5198 10.3852C40.898 6.43125 49.2546 4.07648 58.1248 3.78445L58.125 15.042ZM104.958 58.125C104.677 51.3005 102.869 44.8641 99.8672 39.1477L109.615 33.5198C113.569 40.898 115.924 49.2546 116.216 58.1248L104.958 58.125ZM107.734 30.2761L97.988 35.9027C94.433 30.3183 89.682 25.567 84.0973 22.012L89.7239 12.2665C97.0088 16.8192 103.181 22.9912 107.734 30.2761ZM30.2761 12.2665L35.9027 22.012C30.3183 25.567 25.567 30.318 22.012 35.9027L12.2665 30.2761C16.8192 22.9912 22.9912 16.8192 30.2761 12.2665ZM12.2665 89.7239L22.012 84.0973C25.567 89.6817 30.318 94.433 35.9027 97.988L30.2761 107.734C22.9912 103.181 16.8192 97.0088 12.2665 89.7239ZM89.7239 107.734L84.0973 97.988C89.6817 94.433 94.433 89.682 97.988 84.0973L107.734 89.7239C103.181 97.0088 97.0088 103.181 89.7239 107.734Z" fill="#2D2B29"/>
<path d="M84.8674 37.1815C85.2373 37.5844 85.7424 37.7885 86.2491 37.7885C86.7021 37.7885 87.1566 37.6252 87.5166 37.2949C88.2795 36.5946 88.3301 35.4084 87.6298 34.6455C86.9065 33.8578 86.1406 33.0919 85.3531 32.3691C84.5904 31.669 83.4042 31.7196 82.7039 32.4825C82.0036 33.2454 82.0545 34.4313 82.8174 35.1316C83.5263 35.7823 84.2161 36.472 84.8674 37.1815Z" fill="#2D2B29"/>
<path d="M26.25 60C26.25 41.3902 41.3902 26.25 60 26.25C65.5779 26.25 71.104 27.6387 75.9813 30.2658C76.8931 30.7568 78.0302 30.416 78.5212 29.5043C79.0123 28.5923 78.6712 27.4554 77.7595 26.9641C72.3377 24.0436 66.1966 22.5 60 22.5C39.3225 22.5 22.5 39.3225 22.5 60C22.5 68.6119 25.492 77.0234 30.9251 83.685C31.2959 84.1395 31.8352 84.375 32.3794 84.375C32.7959 84.375 33.2152 84.2367 33.5632 83.9529C34.3657 83.2985 34.4857 82.1173 33.8313 81.3148C28.9423 75.3206 26.25 67.7508 26.25 60Z" fill="#2D2B29"/>
<path d="M93.0321 42.2334C92.5406 41.3217 91.4037 40.9812 90.4919 41.4724C89.5805 41.9637 89.2397 43.1009 89.7309 44.0123C92.3601 48.8911 93.75 54.4195 93.75 60C93.75 78.6098 78.6098 93.75 60 93.75C52.249 93.75 44.6789 91.0575 38.6845 86.1682C37.8823 85.5138 36.7012 85.6336 36.0464 86.4363C35.392 87.2388 35.5118 88.4198 36.3145 89.0745C42.9762 94.5077 51.3876 97.5 60 97.5C80.6775 97.5 97.5 80.6775 97.5 60C97.5 53.8005 95.955 47.6569 93.0321 42.2334Z" fill="#2D2B29"/>
<path d="M44.6178 54.848V66H43.1618V60.944H37.4818V66H36.0258V54.848H37.4818V59.744H43.1618V54.848H44.6178ZM48.1759 55.808C47.8985 55.808 47.6639 55.712 47.4719 55.52C47.2799 55.328 47.1839 55.0933 47.1839 54.816C47.1839 54.5387 47.2799 54.304 47.4719 54.112C47.6639 53.92 47.8985 53.824 48.1759 53.824C48.4425 53.824 48.6665 53.92 48.8479 54.112C49.0399 54.304 49.1359 54.5387 49.1359 54.816C49.1359 55.0933 49.0399 55.328 48.8479 55.52C48.6665 55.712 48.4425 55.808 48.1759 55.808ZM48.8799 57.232V66H47.4239V57.232H48.8799ZM53.4574 58.432V63.6C53.4574 64.0267 53.548 64.3307 53.7294 64.512C53.9107 64.6827 54.2254 64.768 54.6734 64.768H55.7454V66H54.4334C53.6227 66 53.0147 65.8133 52.6094 65.44C52.204 65.0667 52.0014 64.4533 52.0014 63.6V58.432H50.8654V57.232H52.0014V55.024H53.4574V57.232H55.7454V58.432H53.4574ZM73.7271 54.928V66H72.2711V57.744L68.5911 66H67.5671L63.8711 57.728V66H62.4151V54.928H63.9831L68.0791 64.08L72.1751 54.928H73.7271ZM84.5164 61.28C84.5164 61.5573 84.5004 61.8507 84.4684 62.16H77.4604C77.5137 63.024 77.807 63.7013 78.3404 64.192C78.8844 64.672 79.5404 64.912 80.3084 64.912C80.9377 64.912 81.4604 64.768 81.8764 64.48C82.303 64.1813 82.6017 63.7867 82.7724 63.296H84.3404C84.1057 64.1387 83.6364 64.8267 82.9324 65.36C82.2284 65.8827 81.3537 66.144 80.3084 66.144C79.4764 66.144 78.7297 65.9573 78.0684 65.584C77.4177 65.2107 76.9057 64.6827 76.5324 64C76.159 63.3067 75.9724 62.5067 75.9724 61.6C75.9724 60.6933 76.1537 59.8987 76.5164 59.216C76.879 58.5333 77.3857 58.0107 78.0364 57.648C78.6977 57.2747 79.455 57.088 80.3084 57.088C81.1404 57.088 81.8764 57.2693 82.5164 57.632C83.1564 57.9947 83.647 58.496 83.9884 59.136C84.3404 59.7653 84.5164 60.48 84.5164 61.28ZM83.0124 60.976C83.0124 60.4213 82.8897 59.9467 82.6444 59.552C82.399 59.1467 82.063 58.8427 81.6364 58.64C81.2204 58.4267 80.7564 58.32 80.2444 58.32C79.5084 58.32 78.879 58.5547 78.3564 59.024C77.8444 59.4933 77.551 60.144 77.4764 60.976H83.0124Z" fill="black"/>
</g>
<defs>
<clipPath id="clip0_2_104">
<rect width="120" height="120" fill="white"/>
</clipPath>
</defs>
</svg>
