<svg width="120" height="120" viewBox="0 0 120 120" fill="none" xmlns="http://www.w3.org/2000/svg">
<g clip-path="url(#clip0_5_358)">
<path d="M60 118.125C92.1015 118.125 118.125 92.1015 118.125 60C118.125 27.8984 92.1015 1.875 60 1.875C27.8984 1.875 1.875 27.8984 1.875 60C1.875 92.1015 27.8984 118.125 60 118.125Z" fill="#515262"/>
<path d="M60 117.656C91.8427 117.656 117.656 91.8427 117.656 60C117.656 28.1573 91.8427 2.34375 60 2.34375C28.1573 2.34375 2.34375 28.1573 2.34375 60C2.34375 91.8427 28.1573 117.656 60 117.656Z" fill="#FF6464"/>
<path d="M60 95.3906C79.5457 95.3906 95.3906 79.5457 95.3906 60C95.3906 40.4543 79.5457 24.6094 60 24.6094C40.4543 24.6094 24.6094 40.4543 24.6094 60C24.6094 79.5457 40.4543 95.3906 60 95.3906Z" fill="#EFF2FA"/>
<path d="M22.6474 38.4345L9.65531 30.9335C4.70813 39.484 1.875 49.4109 1.875 60H16.875C16.875 52.1435 18.9769 44.7785 22.6474 38.4345Z" fill="#FF6464"/>
<path d="M38.4344 22.6474L30.9335 9.65508C22.1132 14.7588 14.7588 22.1133 9.65527 30.9335L22.6474 38.4344C26.4339 31.8902 31.8902 26.434 38.4344 22.6474Z" fill="#EFF2FA"/>
<path d="M60 16.875V1.875C49.4107 1.875 39.4839 4.70789 30.9335 9.65531L38.4344 22.6477C44.7785 18.9771 52.1435 16.875 60 16.875Z" fill="#FF6464"/>
<path d="M103.125 60H118.125C118.125 49.4109 115.292 39.484 110.345 30.9335L97.3525 38.4345C101.023 44.7785 103.125 52.1435 103.125 60Z" fill="#EFF2FA"/>
<path d="M97.3526 38.4345L110.345 30.9335C105.241 22.1133 97.887 14.7588 89.0665 9.65531L81.5656 22.6474C88.1098 26.434 93.566 31.8902 97.3526 38.4345Z" fill="#FF6464"/>
<path d="M81.5655 22.6474L89.0665 9.65531C80.516 4.70812 70.5891 1.875 60 1.875V16.875C67.8565 16.875 75.2215 18.9771 81.5655 22.6474Z" fill="#EFF2FA"/>
<path d="M16.875 60H1.875C1.875 70.5891 4.70813 80.516 9.65531 89.0667L22.6474 81.5655C18.9769 75.2215 16.875 67.8565 16.875 60Z" fill="#EFF2FA"/>
<path d="M81.5656 97.3526L89.0665 110.345C97.8867 105.241 105.241 97.887 110.345 89.0667L97.3526 81.5656C93.566 88.1098 88.1098 93.566 81.5656 97.3526Z" fill="#EFF2FA"/>
<path d="M22.6474 81.5656L9.65527 89.0667C14.7586 97.887 22.113 105.241 30.9335 110.345L38.4344 97.3526C31.8902 93.566 26.4339 88.1098 22.6474 81.5656Z" fill="#FF6464"/>
<path d="M103.125 60C103.125 67.8565 101.023 75.2215 97.3525 81.5655L110.345 89.0667C115.292 80.516 118.125 70.5891 118.125 60H103.125Z" fill="#FF6464"/>
<path d="M60 103.125V118.125C70.5891 118.125 80.516 115.292 89.0665 110.345L81.5655 97.3526C75.2215 101.023 67.8565 103.125 60 103.125Z" fill="#FF6464"/>
<path d="M38.4345 97.3526L30.9336 110.345C39.4841 115.292 49.411 118.125 60.0001 118.125V103.125C52.1436 103.125 44.7786 101.023 38.4345 97.3526Z" fill="#EFF2FA"/>
<path d="M92.7429 46.4794C91.5764 43.6582 89.9986 40.9472 88.0531 38.422L87.2583 37.3905L92.5988 34.3073L93.2053 35.1145C95.2568 37.8448 96.9368 40.7191 98.1987 43.657L98.5983 44.5875L93.2398 47.6812L92.7429 46.4794Z" fill="#EFF2FA"/>
<path d="M92.2941 35.7991L88.9557 37.7264C90.9092 40.2621 92.5555 43.0437 93.796 46.0439L97.1511 44.1068C95.8723 41.1288 94.2172 38.3588 92.2941 35.7991Z" fill="#EFF2FA"/>
<path d="M81.5779 31.9472C79.0528 30.0016 76.3418 28.4238 73.5206 27.2573L72.3187 26.7605L75.4125 21.402L76.3429 21.8016C79.2811 23.0634 82.155 24.7434 84.8854 26.7949L85.6926 27.4015L82.6097 32.742L81.5779 31.9472Z" fill="#EFF2FA"/>
<path d="M73.9561 26.2041C76.9563 27.4446 79.7379 29.0906 82.2736 31.0444L84.2008 27.7059C81.6412 25.7829 78.8709 24.1277 75.8932 22.8487L73.9561 26.2041Z" fill="#EFF2FA"/>
<path d="M64.6627 24.9145C62.888 24.6806 61.4066 24.5716 60.0001 24.5716C58.5936 24.5716 57.1121 24.6806 55.3374 24.9145L54.0486 25.0845V18.8848L55.0534 18.7648C56.8691 18.548 58.4872 18.4427 59.9998 18.4427C61.5125 18.4427 63.1306 18.548 64.9463 18.7648L65.9511 18.8848V25.0842L64.6627 24.9145Z" fill="#EFF2FA"/>
<path d="M55.1885 19.8966V23.7846C56.7668 23.5765 58.365 23.4321 60 23.4321C61.635 23.4321 63.2332 23.5767 64.8114 23.7846V19.8966C63.2306 19.7079 61.6307 19.5827 60 19.5827C58.3692 19.5827 56.7693 19.7079 55.1885 19.8966Z" fill="#EFF2FA"/>
<path d="M94.9158 65.9515L95.0857 64.6627C95.3196 62.888 95.4284 61.4065 95.4284 60C95.4284 58.5935 95.3194 57.112 95.0857 55.3374L94.9158 54.0485H101.115L101.235 55.0533C101.452 56.869 101.557 58.4869 101.557 59.9998C101.557 61.5131 101.452 63.131 101.235 64.9465L101.115 65.9513H94.9158V65.9515V65.9515Z" fill="#EFF2FA"/>
<path d="M96.5682 60C96.5682 61.6352 96.4236 63.2332 96.2157 64.8117H100.104C100.292 63.2306 100.418 61.631 100.418 60C100.418 58.3692 100.292 56.7694 100.104 55.1885H96.2157C96.4236 56.7668 96.5682 58.3648 96.5682 60Z" fill="#EFF2FA"/>
<path d="M18.885 65.9515L18.765 64.9467C18.5485 63.1312 18.443 61.5134 18.443 60C18.443 58.4871 18.5482 56.8692 18.765 55.0535L18.8848 54.0488H25.0845L24.9146 55.3376C24.6806 57.1123 24.5717 58.5938 24.5717 60.0002C24.5717 61.4067 24.6806 62.8882 24.9146 64.6629L25.0845 65.9517H18.885V65.9515Z" fill="#EFF2FA"/>
<path d="M23.4319 60C23.4319 58.3648 23.5765 56.7668 23.7844 55.1885H19.8966C19.7079 56.7694 19.5828 58.3692 19.5828 60C19.5828 61.631 19.7079 63.2306 19.8968 64.8117H23.7846C23.5765 63.2332 23.4319 61.6352 23.4319 60Z" fill="#EFF2FA"/>
<path d="M34.3071 27.4012L35.1143 26.7947C37.8446 24.7434 40.7187 23.0632 43.6568 21.8013L44.5873 21.4017L47.681 26.7602L46.4792 27.2571C43.658 28.4236 40.947 30.0014 38.4218 31.947L37.3901 32.7417L34.3071 27.4012Z" fill="#EFF2FA"/>
<path d="M37.7265 31.0444C40.2622 29.0909 43.0437 27.4446 46.044 26.2041L44.1069 22.849C41.1289 24.128 38.3588 25.7831 35.7992 27.7062L37.7265 31.0444Z" fill="#EFF2FA"/>
<path d="M87.2583 82.6097L88.0531 81.5782C89.9986 79.053 91.5764 76.342 92.7429 73.5209L93.2398 72.319L98.5983 75.4127L98.1987 76.3432C96.937 79.2806 95.2571 82.1548 93.2053 84.8855L92.5988 85.6927L87.2583 82.6097Z" fill="#EFF2FA"/>
<path d="M97.1512 75.8934L93.7961 73.9563C92.5556 76.9566 90.9096 79.7379 88.9561 82.2738L92.2943 84.2011C94.2171 81.6413 95.8725 78.8712 97.1512 75.8934Z" fill="#EFF2FA"/>
<path d="M60.0001 101.557C58.4872 101.557 56.8693 101.452 55.0536 101.235L54.0488 101.115V94.916L55.3377 95.0859C57.1123 95.3198 58.5938 95.4286 60.0003 95.4286C61.4068 95.4286 62.8883 95.3196 64.663 95.0859L65.9518 94.916V101.115L64.947 101.235C63.1309 101.452 61.513 101.557 60.0001 101.557Z" fill="#EFF2FA"/>
<path d="M64.8114 100.103V96.2156C63.2332 96.4237 61.635 96.5684 60 96.5684C58.365 96.5684 56.7668 96.4237 55.1885 96.2156V100.104C56.7693 100.292 58.3692 100.417 60 100.417C61.6307 100.417 63.2306 100.292 64.8114 100.103Z" fill="#EFF2FA"/>
<path d="M72.319 93.2395L73.5208 92.7427C76.342 91.5762 79.053 89.9984 81.5782 88.0528L82.6099 87.2581L85.6929 92.5983L84.8857 93.2049C82.1552 95.2563 79.2811 96.9363 76.3432 98.1982L75.4127 98.5978L72.319 93.2395Z" fill="#EFF2FA"/>
<path d="M82.2736 88.9559C79.7379 90.9094 76.9563 92.5554 73.9561 93.7959L75.8932 97.151C78.8709 95.872 81.6412 94.2169 84.2008 92.2936L82.2736 88.9559Z" fill="#EFF2FA"/>
<path d="M43.6571 98.1984C40.7192 96.9366 37.845 95.2566 35.1146 93.2051L34.3074 92.5985L37.3903 87.2583L38.4221 88.053C40.9472 89.9986 43.6582 91.5764 46.4794 92.7429L47.6813 93.2398L44.5875 98.5983L43.6571 98.1984Z" fill="#EFF2FA"/>
<path d="M46.044 93.7959C43.0437 92.5554 40.2622 90.9094 37.7265 88.9559L35.7992 92.2938C38.3588 94.2171 41.1291 95.8723 44.1069 97.1513L46.044 93.7959Z" fill="#EFF2FA"/>
<path d="M26.7947 84.8855C24.743 82.1548 23.063 79.2806 21.8013 76.3432L21.4017 75.4127L26.7602 72.319L27.2571 73.5209C28.4236 76.342 30.0014 79.053 31.947 81.5782L32.7417 82.6097L27.4013 85.6927L26.7947 84.8855Z" fill="#EFF2FA"/>
<path d="M31.0442 82.2736C29.0906 79.7379 27.4446 76.9563 26.2041 73.9561L22.849 75.8932C24.1277 78.8709 25.7831 81.641 27.7062 84.2006L31.0442 82.2736Z" fill="#EFF2FA"/>
<path d="M21.402 44.5875L21.8016 43.657C23.0635 40.7191 24.7435 37.845 26.7949 35.1145L27.4015 34.3073L32.742 37.3905L31.9472 38.422C30.0017 40.9472 28.4239 43.6582 27.2574 46.4794L26.7605 47.6812L21.402 44.5875Z" fill="#EFF2FA"/>
<path d="M22.8488 44.1066L26.2038 46.0437C27.4444 43.0434 29.0904 40.2619 31.0439 37.7262L27.7057 35.7989C25.7829 38.3587 24.1277 41.1288 22.8488 44.1066Z" fill="#EFF2FA"/>
<path d="M102.427 17.5734C91.0938 6.24094 76.0266 0 60 0C43.9734 0 28.9062 6.24094 17.5734 17.5734C6.2407 28.9059 0 43.9734 0 60C0 76.0266 6.24094 91.0941 17.5734 102.427C28.9062 113.759 43.9734 120 60 120C76.0266 120 91.0938 113.759 102.427 102.427C113.759 91.0941 120 76.0266 120 60C120 43.9734 113.759 28.9062 102.427 17.5734ZM109.615 86.4799L99.8672 80.8523C102.869 75.1359 104.677 68.6995 104.958 61.875H116.216C115.923 70.7454 113.569 79.1018 109.615 86.4799ZM58.125 104.958V116.216C49.2546 115.923 40.8982 113.569 33.5201 109.615L39.1479 99.8672C44.8641 102.869 51.3005 104.677 58.125 104.958ZM61.875 104.958C68.6995 104.677 75.1359 102.869 80.8523 99.8672L86.4802 109.615C79.102 113.569 70.7454 115.924 61.8752 116.216L61.875 104.958ZM60 101.25C37.2546 101.25 18.75 82.7454 18.75 60C18.75 37.2546 37.2546 18.75 60 18.75C82.7454 18.75 101.25 37.2546 101.25 60C101.25 82.7454 82.7454 101.25 60 101.25ZM3.78445 61.875H15.042C15.3232 68.6995 17.1309 75.1359 20.1328 80.8523L10.3852 86.4802C6.43148 79.1018 4.07672 70.7454 3.78445 61.875ZM10.3854 33.5201L20.1328 39.1477C17.1309 44.8641 15.3232 51.3005 15.042 58.125H3.78445C4.07672 49.2546 6.43148 40.8982 10.3854 33.5201ZM61.875 15.042V3.78445C70.7454 4.07648 79.1018 6.43125 86.4799 10.3852L80.8523 20.1328C75.1359 17.1309 68.6995 15.3232 61.875 15.042ZM58.125 15.042C51.3005 15.3232 44.8641 17.1309 39.1477 20.1328L33.5198 10.3852C40.898 6.43125 49.2546 4.07648 58.1248 3.78445L58.125 15.042ZM104.958 58.125C104.677 51.3005 102.869 44.8641 99.8672 39.1477L109.615 33.5198C113.569 40.898 115.924 49.2546 116.216 58.1248L104.958 58.125ZM107.734 30.2761L97.988 35.9027C94.433 30.3183 89.682 25.567 84.0973 22.012L89.7239 12.2665C97.0087 16.8192 103.181 22.9912 107.734 30.2761ZM30.2761 12.2665L35.9027 22.012C30.3183 25.567 25.567 30.318 22.012 35.9027L12.2665 30.2761C16.8192 22.9912 22.9912 16.8192 30.2761 12.2665ZM12.2665 89.7239L22.012 84.0973C25.567 89.6817 30.318 94.433 35.9027 97.988L30.2761 107.734C22.9912 103.181 16.8192 97.0087 12.2665 89.7239ZM89.7239 107.734L84.0973 97.988C89.6817 94.433 94.433 89.682 97.988 84.0973L107.734 89.7239C103.181 97.0087 97.0087 103.181 89.7239 107.734Z" fill="#2D2B29"/>
<path d="M84.8674 37.1815C85.2373 37.5844 85.7424 37.7885 86.2491 37.7885C86.7021 37.7885 87.1566 37.6252 87.5166 37.2949C88.2795 36.5946 88.3301 35.4084 87.6298 34.6455C86.9065 33.8578 86.1406 33.0919 85.3531 32.3691C84.5904 31.669 83.4042 31.7196 82.7039 32.4825C82.0036 33.2454 82.0545 34.4313 82.8174 35.1316C83.5263 35.7823 84.2161 36.472 84.8674 37.1815Z" fill="#2D2B29"/>
<path d="M26.25 60C26.25 41.3902 41.3902 26.25 60 26.25C65.5779 26.25 71.104 27.6387 75.9813 30.2658C76.893 30.7568 78.0302 30.416 78.5212 29.5043C79.0123 28.5923 78.6712 27.4554 77.7595 26.9641C72.3377 24.0436 66.1966 22.5 60 22.5C39.3225 22.5 22.5 39.3225 22.5 60C22.5 68.6119 25.492 77.0234 30.9251 83.685C31.2959 84.1395 31.8352 84.375 32.3794 84.375C32.7959 84.375 33.2152 84.2367 33.5632 83.9529C34.3657 83.2985 34.4857 82.1173 33.8313 81.3148C28.9423 75.3206 26.25 67.7508 26.25 60Z" fill="#2D2B29"/>
<path d="M93.0321 42.2334C92.5406 41.3217 91.4037 40.9812 90.4919 41.4724C89.5805 41.9637 89.2397 43.1009 89.7309 44.0123C92.3601 48.8911 93.75 54.4195 93.75 60C93.75 78.6098 78.6098 93.75 60 93.75C52.249 93.75 44.6789 91.0575 38.6845 86.1682C37.8823 85.5138 36.7012 85.6336 36.0464 86.4363C35.392 87.2388 35.5118 88.4198 36.3145 89.0745C42.9762 94.5077 51.3876 97.5 60 97.5C80.6775 97.5 97.5 80.6775 97.5 60C97.5 53.8005 95.955 47.6569 93.0321 42.2334Z" fill="#2D2B29"/>
<path d="M49.9227 41.848V50.088C49.9227 51.0053 49.64 51.7413 49.0747 52.296C48.5094 52.84 47.7627 53.112 46.8347 53.112C45.896 53.112 45.144 52.8347 44.5787 52.28C44.0134 51.7147 43.7307 50.9467 43.7307 49.976H45.1867C45.1974 50.52 45.336 50.9627 45.6027 51.304C45.88 51.6453 46.2907 51.816 46.8347 51.816C47.3787 51.816 47.784 51.656 48.0507 51.336C48.3174 51.0053 48.4507 50.5893 48.4507 50.088V41.848H49.9227ZM56.9351 53.144C56.1137 53.144 55.3671 52.9573 54.6951 52.584C54.0337 52.2107 53.5111 51.6827 53.1271 51C52.7537 50.3067 52.5671 49.5067 52.5671 48.6C52.5671 47.704 52.7591 46.9147 53.1431 46.232C53.5377 45.5387 54.0711 45.0107 54.7431 44.648C55.4151 44.2747 56.1671 44.088 56.9991 44.088C57.8311 44.088 58.5831 44.2747 59.2551 44.648C59.9271 45.0107 60.4551 45.5333 60.8391 46.216C61.2337 46.8987 61.4311 47.6933 61.4311 48.6C61.4311 49.5067 61.2284 50.3067 60.8231 51C60.4284 51.6827 59.8897 52.2107 59.2071 52.584C58.5244 52.9573 57.7671 53.144 56.9351 53.144ZM56.9351 51.864C57.4577 51.864 57.9484 51.7413 58.4071 51.496C58.8657 51.2507 59.2337 50.8827 59.5111 50.392C59.7991 49.9013 59.9431 49.304 59.9431 48.6C59.9431 47.896 59.8044 47.2987 59.5271 46.808C59.2497 46.3173 58.8871 45.9547 58.4391 45.72C57.9911 45.4747 57.5057 45.352 56.9831 45.352C56.4497 45.352 55.9591 45.4747 55.5111 45.72C55.0737 45.9547 54.7217 46.3173 54.4551 46.808C54.1884 47.2987 54.0551 47.896 54.0551 48.6C54.0551 49.3147 54.1831 49.9173 54.4391 50.408C54.7057 50.8987 55.0577 51.2667 55.4951 51.512C55.9324 51.7467 56.4124 51.864 56.9351 51.864ZM64.4174 42.808C64.1401 42.808 63.9054 42.712 63.7134 42.52C63.5214 42.328 63.4254 42.0933 63.4254 41.816C63.4254 41.5387 63.5214 41.304 63.7134 41.112C63.9054 40.92 64.1401 40.824 64.4174 40.824C64.6841 40.824 64.9081 40.92 65.0894 41.112C65.2814 41.304 65.3774 41.5387 65.3774 41.816C65.3774 42.0933 65.2814 42.328 65.0894 42.52C64.9081 42.712 64.6841 42.808 64.4174 42.808ZM65.1214 44.232V53H63.6654V44.232H65.1214ZM72.1949 44.072C73.2616 44.072 74.1256 44.3973 74.7869 45.048C75.4483 45.688 75.7789 46.616 75.7789 47.832V53H74.3389V48.04C74.3389 47.1653 74.1203 46.4987 73.6829 46.04C73.2456 45.5707 72.6483 45.336 71.8909 45.336C71.1229 45.336 70.5096 45.576 70.0509 46.056C69.6029 46.536 69.3789 47.2347 69.3789 48.152V53H67.9229V44.232H69.3789V45.48C69.6669 45.032 70.0563 44.6853 70.5469 44.44C71.0483 44.1947 71.5976 44.072 72.1949 44.072ZM44.3641 67.08C44.0547 66.4293 43.6067 65.928 43.0201 65.576C42.4334 65.2133 41.7507 65.032 40.9721 65.032C40.1934 65.032 39.4894 65.2133 38.8601 65.576C38.2414 65.928 37.7507 66.44 37.3881 67.112C37.0361 67.7733 36.8601 68.5413 36.8601 69.416C36.8601 70.2907 37.0361 71.0587 37.3881 71.72C37.7507 72.3813 38.2414 72.8933 38.8601 73.256C39.4894 73.608 40.1934 73.784 40.9721 73.784C42.0601 73.784 42.9561 73.4587 43.6601 72.808C44.3641 72.1573 44.7747 71.2773 44.8921 70.168H40.4441V68.984H46.4441V70.104C46.3587 71.0213 46.0707 71.864 45.5801 72.632C45.0894 73.3893 44.4441 73.992 43.6441 74.44C42.8441 74.8773 41.9534 75.096 40.9721 75.096C39.9374 75.096 38.9934 74.856 38.1401 74.376C37.2867 73.8853 36.6094 73.208 36.1081 72.344C35.6174 71.48 35.3721 70.504 35.3721 69.416C35.3721 68.328 35.6174 67.352 36.1081 66.488C36.6094 65.6133 37.2867 64.936 38.1401 64.456C38.9934 63.9653 39.9374 63.72 40.9721 63.72C42.1561 63.72 43.2014 64.0133 44.1081 64.6C45.0254 65.1867 45.6921 66.0133 46.1081 67.08H44.3641ZM48.1452 70.584C48.1452 69.688 48.3265 68.904 48.6892 68.232C49.0519 67.5493 49.5479 67.0213 50.1772 66.648C50.8172 66.2747 51.5265 66.088 52.3052 66.088C53.0732 66.088 53.7399 66.2533 54.3052 66.584C54.8705 66.9147 55.2919 67.3307 55.5692 67.832V66.232H57.0412V75H55.5692V73.368C55.2812 73.88 54.8492 74.3067 54.2732 74.648C53.7079 74.9787 53.0465 75.144 52.2892 75.144C51.5105 75.144 50.8065 74.952 50.1772 74.568C49.5479 74.184 49.0519 73.6453 48.6892 72.952C48.3265 72.2587 48.1452 71.4693 48.1452 70.584ZM55.5692 70.6C55.5692 69.9387 55.4359 69.3627 55.1692 68.872C54.9025 68.3813 54.5399 68.008 54.0812 67.752C53.6332 67.4853 53.1372 67.352 52.5932 67.352C52.0492 67.352 51.5532 67.48 51.1052 67.736C50.6572 67.992 50.2999 68.3653 50.0332 68.856C49.7665 69.3467 49.6332 69.9227 49.6332 70.584C49.6332 71.256 49.7665 71.8427 50.0332 72.344C50.2999 72.8347 50.6572 73.2133 51.1052 73.48C51.5532 73.736 52.0492 73.864 52.5932 73.864C53.1372 73.864 53.6332 73.736 54.0812 73.48C54.5399 73.2133 54.9025 72.8347 55.1692 72.344C55.4359 71.8427 55.5692 71.2613 55.5692 70.6ZM70.3657 66.072C71.0484 66.072 71.6564 66.216 72.1897 66.504C72.723 66.7813 73.1444 67.2027 73.4537 67.768C73.763 68.3333 73.9177 69.0213 73.9177 69.832V75H72.4777V70.04C72.4777 69.1653 72.259 68.4987 71.8217 68.04C71.395 67.5707 70.8137 67.336 70.0777 67.336C69.3204 67.336 68.7177 67.5813 68.2697 68.072C67.8217 68.552 67.5977 69.2507 67.5977 70.168V75H66.1577V70.04C66.1577 69.1653 65.939 68.4987 65.5017 68.04C65.075 67.5707 64.4937 67.336 63.7577 67.336C63.0004 67.336 62.3977 67.5813 61.9497 68.072C61.5017 68.552 61.2777 69.2507 61.2777 70.168V75H59.8217V66.232H61.2777V67.496C61.5657 67.0373 61.9497 66.6853 62.4297 66.44C62.9204 66.1947 63.459 66.072 64.0457 66.072C64.7817 66.072 65.4324 66.2373 65.9977 66.568C66.563 66.8987 66.9844 67.384 67.2617 68.024C67.507 67.4053 67.9124 66.9253 68.4777 66.584C69.043 66.2427 69.6724 66.072 70.3657 66.072ZM84.6261 70.28C84.6261 70.5573 84.6101 70.8507 84.5781 71.16H77.5701C77.6234 72.024 77.9167 72.7013 78.4501 73.192C78.9941 73.672 79.6501 73.912 80.4181 73.912C81.0474 73.912 81.5701 73.768 81.9861 73.48C82.4127 73.1813 82.7114 72.7867 82.8821 72.296H84.4501C84.2154 73.1387 83.7461 73.8267 83.0421 74.36C82.3381 74.8827 81.4634 75.144 80.4181 75.144C79.5861 75.144 78.8394 74.9573 78.1781 74.584C77.5274 74.2107 77.0154 73.6827 76.6421 73C76.2687 72.3067 76.0821 71.5067 76.0821 70.6C76.0821 69.6933 76.2634 68.8987 76.6261 68.216C76.9887 67.5333 77.4954 67.0107 78.1461 66.648C78.8074 66.2747 79.5647 66.088 80.4181 66.088C81.2501 66.088 81.9861 66.2693 82.6261 66.632C83.2661 66.9947 83.7567 67.496 84.0981 68.136C84.4501 68.7653 84.6261 69.48 84.6261 70.28ZM83.1221 69.976C83.1221 69.4213 82.9994 68.9467 82.7541 68.552C82.5087 68.1467 82.1727 67.8427 81.7461 67.64C81.3301 67.4267 80.8661 67.32 80.3541 67.32C79.6181 67.32 78.9887 67.5547 78.4661 68.024C77.9541 68.4933 77.6607 69.144 77.5861 69.976H83.1221Z" fill="black"/>
</g>
<defs>
<clipPath id="clip0_5_358">
<rect width="120" height="120" fill="white"/>
</clipPath>
</defs>
</svg>
