<svg width="921" height="648" viewBox="0 0 921 648" fill="none" xmlns="http://www.w3.org/2000/svg">
<g clip-path="url(#clip0_10_2)">
<path d="M727.801 646.559C723.222 646.557 718.664 645.927 714.256 644.688L531.231 595.699L531.769 593.773L714.795 642.762C719.028 643.952 723.404 644.557 727.801 644.559C749.34 644.559 768.443 632.079 774.257 611.345L904.543 146.727H904.542L904.826 145.715C908.248 133.404 906.651 120.239 900.385 109.103C894.12 97.9669 883.695 89.7682 871.396 86.3029L577.204 3.8073C564.888 0.370296 551.712 1.95812 540.565 8.22253C529.418 14.4869 521.211 24.9165 517.743 37.2238L507.521 73.6838L505.596 73.1438L515.817 36.6838C519.428 23.8658 527.976 13.0033 539.585 6.47905C551.195 -0.0452318 564.917 -1.69861 577.744 1.88156L871.937 84.3772C884.588 87.9412 895.341 96.3167 901.895 107.71C908.448 119.104 910.28 132.611 906.999 145.339L907.008 145.341L906.738 146.304L776.183 611.885C770.128 633.478 750.232 646.559 727.801 646.559Z" fill="#2F2E41"/>
<path d="M518.96 84.066L522.31 85.006L532.62 87.896L533.7 84.036L529.84 82.956L533.23 70.866L541.38 63.786L543.55 86.806L537.55 85.116L536.47 88.976L551.87 93.296L552.95 89.436L549.68 88.526L546.54 59.306L562.54 45.396L567.03 46.656L568.11 42.796L552.7 38.476L551.62 42.336L556.7 43.756L536.35 59.746L541.99 39.636L545.85 40.716L546.93 36.856L531.52 32.536L530.44 36.396L536.22 38.016L524.07 81.336L518.29 79.716L518.14 80.236L517.52 82.476L518.96 84.066Z" fill="#D94D4D"/>
<path d="M543.75 120.566C539.902 122.233 536.146 124.105 532.5 126.176C531.83 126.556 531.16 126.946 530.5 127.336V114.966C530.505 110.516 529.875 106.088 528.63 101.816C529.21 101.456 529.8 101.066 530.38 100.676C530.91 100.326 531.45 99.966 531.98 99.606C535.271 106.929 539.21 113.944 543.75 120.566V120.566Z" fill="#D94D4D"/>
<path d="M727.027 611.842L722.542 610.584L721.462 614.435L736.868 618.755L737.948 614.904L732.874 613.481L753.218 597.485L747.576 617.604L743.725 616.524L742.645 620.375L758.051 624.695L759.131 620.844L753.353 619.224L765.503 575.895L771.281 577.515L772.361 573.664L756.955 569.344L755.875 573.195L759.726 574.275L756.335 586.369L748.189 593.449L746.024 570.433L752.023 572.115L753.103 568.264L737.698 563.944L736.618 567.795L739.891 568.713L743.033 597.93L727.027 611.842Z" fill="#D94D4D"/>
<path d="M745.815 536.67C753.026 533.578 759.884 529.723 766.275 525.172C769.699 532.429 773.635 539.433 778.054 546.131C770.89 549.317 764.041 553.167 757.594 557.629C754.298 550.307 750.356 543.293 745.815 536.67V536.67Z" fill="#D94D4D"/>
<path d="M610.897 328.462C610.897 328.462 605.838 361.316 604.336 362.972C602.833 364.628 614.836 403.305 614.836 403.305L653.324 380.864C653.324 380.864 660.813 339.343 663.279 337.958C665.744 336.572 610.897 328.462 610.897 328.462Z" fill="#FFB8B8"/>
<path opacity="0.1" d="M610.897 328.462C610.897 328.462 605.838 361.316 604.336 362.972C602.833 364.628 614.836 403.305 614.836 403.305L653.324 380.864C653.324 380.864 660.813 339.343 663.279 337.958C665.744 336.572 610.897 328.462 610.897 328.462Z" fill="black"/>
<path d="M640.674 360.272C661.661 360.272 678.674 343.259 678.674 322.272C678.674 301.285 661.661 284.272 640.674 284.272C619.687 284.272 602.674 301.285 602.674 322.272C602.674 343.259 619.687 360.272 640.674 360.272Z" fill="#FFB8B8"/>
<path d="M624.204 381.006L620.893 378.001L606.008 356.816C606.008 356.816 604.3 355.692 602.68 361.469L601.06 367.246L587.076 372.672L556.133 505.241L638.939 528.461L673.04 395.739L657.023 378.785L655.25 370.605L630.521 380.701L624.204 381.006Z" fill="white"/>
<path d="M530.5 518.826L532.5 519.386L661.46 555.546L704.58 412.896C704.58 412.896 694.38 404.836 686.4 403.636C686.4 403.636 673 388.456 667.23 386.836C661.45 385.216 655.06 370.966 655.06 370.966C655.06 370.966 648.31 395.036 636.71 410.476C625.11 425.916 604.91 479.456 604.91 479.456L599.21 381.266L605.61 356.576C601.889 358.78 598.501 361.505 595.55 364.666C591.04 369.626 579.53 373.666 579.53 373.666C579.53 373.666 549.21 381.786 543.85 382.366C538.5 382.936 536.03 384.326 536.03 384.326L532.5 408.616L530.5 422.376V518.826Z" fill="#2F2E41"/>
<path d="M548.1 463.526C546.9 471.496 534.56 504.386 534.56 504.386L532.5 506.456L530.5 508.466V386.656C531.057 386.052 531.74 385.578 532.5 385.266C533.63 384.797 534.817 384.481 536.03 384.326L539.89 385.406C539.89 385.406 549.3 455.546 548.1 463.526Z" fill="#2F2E41"/>
<path d="M635.943 505.811C635.943 505.811 654.869 471.652 669.194 479.824C683.52 487.995 660.554 510.635 660.554 510.635L635.943 505.811Z" fill="#FFB8B8"/>
<path d="M577.361 492.5C577.361 492.5 541.043 481.277 540.233 484.165C539.423 487.054 529.478 503.998 532.367 504.808C535.255 505.618 557.671 510.865 557.401 511.828C557.131 512.791 568.146 517.957 568.146 517.957L577.361 492.5Z" fill="#FFB8B8"/>
<path d="M648.165 384.489L625.05 385.398L620.236 384.048L600.963 371.253L594.58 390.355L618.886 388.862L623.7 390.212L643.686 404.125L648.165 384.489Z" fill="#D94D4D"/>
<path d="M586.05 528.176L582.5 535.736L531.5 521.736L530.5 518.826V502.796L532.5 503.576L534.56 504.386L586.05 528.176Z" fill="#2F2E41"/>
<path d="M587.953 495.47C587.953 495.47 575.976 490.034 575.706 490.997C575.436 491.96 559.363 519.648 563.214 520.728C567.066 521.808 580.698 528.747 580.698 528.747L587.953 495.47Z" fill="white"/>
<path d="M697.84 411.002L704.58 412.892C704.58 412.892 708.432 413.972 708.737 420.289C709.043 426.606 714.27 456.114 711.805 457.499C709.339 458.885 708.646 457.652 710.032 460.118C711.417 462.584 712.65 461.891 711.147 463.547C709.645 465.202 706.196 518.241 695.019 535.878C683.842 553.515 680.449 561.911 676.597 560.831L576.767 532.837C576.767 532.837 581.213 493.58 585.334 493.697C589.456 493.814 656.973 508.592 656.973 508.592C656.973 508.592 683.127 407.915 697.84 411.002Z" fill="#2F2E41"/>
<path d="M618.285 280.622L612.05 276.151C612.05 276.151 630.637 265.706 650.479 272.631L646.391 265.358C646.391 265.358 661.692 264.203 670.598 280.996C675.28 289.824 680.661 300.166 682.86 310.733L690.295 312.818L685.451 318.154L694.572 327.406L683.737 323.165C683.29 328.819 681.373 334.258 678.175 338.942L673.704 345.177C673.704 345.177 669.269 322.149 669.977 319.625L668.208 325.936C668.208 325.936 662.858 318.309 663.92 314.522L658.894 317.878L658.948 310.405L633.649 310.799L639.029 306.181L623.982 304.004L631.609 298.654C631.609 298.654 612.899 302.258 610.321 309.023C607.743 315.788 597.061 322.323 597.061 322.323L595.044 314.95C595.044 314.95 597.328 284.957 618.285 280.622Z" fill="#2F2E41"/>
<path d="M605.221 294.293L605.518 292.998C608.408 280.418 586.18 257.023 585.955 256.788L585.561 256.376L585.715 255.826C586.154 254.258 587.918 252.865 603.374 256.215C609.392 257.52 615.393 259.11 617.905 259.792C617.625 252.609 608.72 243.092 608.625 242.991L607.505 241.804L609.071 241.345C619.337 238.336 631.352 248.316 635.191 251.849L641.61 228.96L654.311 247.72C662.108 236.048 673.387 236.521 673.88 236.548L675.463 236.634L674.703 238.026C669.359 247.801 668.397 254.222 668.341 257.388C682.557 240.499 695.368 241.97 695.926 242.044L697.867 242.3L696.521 243.722C677.91 263.387 675.719 289.328 675.699 289.588L675.632 290.462L605.221 294.293ZM588.17 256.227C592.1 260.487 609.094 279.708 607.686 292.156L673.796 288.56C674.342 283.932 677.694 261.911 693.501 244.059C689.193 244.444 679.032 246.899 668.326 260.581L667.099 262.148L666.574 260.228C666.492 259.926 664.702 252.893 672.127 238.605C668.723 238.927 660.798 240.709 655.197 250.06L654.391 251.405L642.371 233.652L636.202 255.652L634.992 254.426C634.857 254.289 621.961 241.377 611.239 242.917C613.991 246.122 620.577 254.563 619.855 261.199L619.728 262.373L618.591 262.054C605.963 258.513 591.539 255.491 588.17 256.227Z" fill="#D94D4D"/>
<path d="M700.908 236.775C700.225 236.584 699.614 236.194 699.153 235.655C698.691 235.117 698.4 234.453 698.316 233.749C698.231 233.044 698.357 232.331 698.679 231.698C699 231.065 699.501 230.542 700.12 230.195C700.738 229.847 701.446 229.691 702.153 229.745C702.86 229.8 703.536 230.063 704.093 230.501C704.651 230.94 705.066 231.534 705.287 232.208C705.507 232.883 705.522 233.607 705.331 234.29C705.073 235.206 704.463 235.981 703.633 236.447C702.804 236.913 701.824 237.031 700.908 236.775V236.775ZM702.305 231.794C702.003 231.709 701.683 231.716 701.384 231.813C701.086 231.911 700.823 232.094 700.629 232.341C700.435 232.588 700.319 232.887 700.295 233.2C700.271 233.512 700.34 233.825 700.494 234.099C700.647 234.373 700.879 234.595 701.159 234.737C701.438 234.879 701.754 234.935 702.066 234.897C702.377 234.86 702.671 234.731 702.909 234.527C703.148 234.323 703.32 234.052 703.405 233.75C703.518 233.345 703.466 232.911 703.26 232.545C703.054 232.178 702.71 231.908 702.305 231.794V231.794Z" fill="#D94D4D"/>
<path d="M676 229.791C675.316 229.599 674.706 229.209 674.244 228.671C673.782 228.132 673.491 227.468 673.407 226.764C673.322 226.059 673.448 225.346 673.77 224.713C674.091 224.081 674.592 223.558 675.211 223.21C675.829 222.862 676.537 222.706 677.244 222.761C677.951 222.815 678.627 223.078 679.184 223.517C679.742 223.955 680.158 224.549 680.378 225.223C680.598 225.898 680.613 226.622 680.422 227.305C680.164 228.221 679.554 228.997 678.725 229.462C677.896 229.928 676.916 230.046 676 229.791V229.791ZM677.396 224.809C677.094 224.724 676.774 224.731 676.475 224.828C676.177 224.926 675.914 225.11 675.72 225.356C675.526 225.603 675.41 225.902 675.386 226.215C675.362 226.528 675.431 226.841 675.585 227.114C675.738 227.388 675.97 227.61 676.25 227.752C676.53 227.894 676.845 227.95 677.157 227.913C677.469 227.875 677.762 227.746 678 227.542C678.239 227.338 678.411 227.068 678.496 226.765C678.609 226.36 678.557 225.927 678.351 225.56C678.145 225.193 677.801 224.923 677.396 224.809V224.809Z" fill="#D94D4D"/>
<path d="M638.136 225.89C637.453 225.699 636.842 225.309 636.38 224.77C635.919 224.231 635.627 223.568 635.543 222.863C635.458 222.159 635.585 221.445 635.906 220.813C636.227 220.18 636.728 219.657 637.347 219.31C637.965 218.962 638.673 218.806 639.38 218.86C640.088 218.915 640.763 219.178 641.321 219.616C641.878 220.055 642.294 220.649 642.514 221.323C642.734 221.997 642.749 222.722 642.558 223.405C642.3 224.32 641.69 225.096 640.861 225.562C640.032 226.028 639.052 226.146 638.136 225.89ZM639.533 220.909C639.23 220.824 638.91 220.831 638.612 220.928C638.313 221.025 638.05 221.209 637.857 221.456C637.663 221.703 637.546 222.001 637.522 222.314C637.498 222.627 637.567 222.94 637.721 223.214C637.875 223.488 638.106 223.709 638.386 223.852C638.666 223.994 638.982 224.05 639.293 224.012C639.605 223.975 639.898 223.846 640.137 223.642C640.375 223.437 640.547 223.167 640.632 222.865C640.745 222.46 640.693 222.026 640.487 221.659C640.281 221.293 639.938 221.023 639.533 220.909V220.909Z" fill="#D94D4D"/>
<path d="M577.689 254.615C577.006 254.423 576.395 254.033 575.934 253.494C575.472 252.956 575.181 252.292 575.096 251.588C575.012 250.883 575.138 250.17 575.459 249.537C575.78 248.905 576.282 248.382 576.9 248.034C577.519 247.686 578.227 247.53 578.934 247.585C579.641 247.639 580.316 247.902 580.874 248.341C581.432 248.779 581.847 249.373 582.067 250.047C582.288 250.722 582.303 251.446 582.111 252.129C581.854 253.045 581.243 253.821 580.414 254.286C579.585 254.752 578.605 254.87 577.689 254.615V254.615ZM579.086 249.633C578.784 249.548 578.463 249.555 578.165 249.652C577.867 249.75 577.604 249.934 577.41 250.18C577.216 250.427 577.1 250.726 577.076 251.039C577.051 251.352 577.121 251.665 577.274 251.938C577.428 252.212 577.66 252.434 577.939 252.576C578.219 252.718 578.535 252.774 578.847 252.737C579.158 252.699 579.452 252.57 579.69 252.366C579.929 252.162 580.101 251.892 580.186 251.589C580.299 251.184 580.247 250.751 580.04 250.384C579.834 250.017 579.491 249.747 579.086 249.633V249.633Z" fill="#D94D4D"/>
<path d="M601.063 238.331C600.38 238.14 599.769 237.75 599.307 237.211C598.846 236.673 598.554 236.009 598.47 235.305C598.385 234.6 598.512 233.887 598.833 233.254C599.154 232.621 599.656 232.098 600.274 231.751C600.892 231.403 601.6 231.247 602.307 231.301C603.015 231.356 603.69 231.619 604.248 232.057C604.806 232.496 605.221 233.09 605.441 233.764C605.661 234.439 605.677 235.163 605.485 235.846C605.227 236.761 604.617 237.537 603.788 238.003C602.959 238.469 601.979 238.587 601.063 238.331V238.331ZM602.46 233.35C602.158 233.265 601.837 233.272 601.539 233.369C601.24 233.467 600.977 233.65 600.784 233.897C600.59 234.144 600.473 234.443 600.449 234.756C600.425 235.068 600.494 235.382 600.648 235.655C600.802 235.929 601.033 236.151 601.313 236.293C601.593 236.435 601.909 236.491 602.22 236.453C602.532 236.416 602.825 236.287 603.064 236.083C603.302 235.879 603.475 235.608 603.559 235.306C603.672 234.901 603.62 234.467 603.414 234.101C603.208 233.734 602.865 233.464 602.46 233.35Z" fill="#D94D4D"/>
<path d="M720.272 575.155L719.31 574.885L530.809 522.027L531.348 520.101L718.887 572.69L837.418 149.994L573.112 75.88L532.799 219.645L530.873 219.105L571.728 73.414L572.689 73.684L839.883 148.609L839.613 149.571L720.272 575.155Z" fill="#2F2E41"/>
<path d="M530.38 100.676C528.659 95.0079 525.925 89.6987 522.31 85.006C521.023 83.3291 519.63 81.7359 518.14 80.236C513.572 75.6375 508.139 71.9886 502.155 69.5C496.17 67.0113 489.752 65.7321 483.27 65.736H177.73C164.677 65.7493 152.163 70.9402 142.934 80.1698C133.704 89.3993 128.513 101.913 128.5 114.966V598.506C128.513 611.559 133.704 624.073 142.934 633.302C152.163 642.532 164.677 647.723 177.73 647.736H483.27C496.323 647.723 508.837 642.532 518.066 633.302C527.296 624.073 532.487 611.559 532.5 598.506V114.966C532.505 110.124 531.791 105.308 530.38 100.676V100.676ZM530.5 598.506C530.485 611.028 525.504 623.032 516.65 631.886C507.796 640.74 495.792 645.721 483.27 645.736H177.73C165.208 645.721 153.204 640.74 144.35 631.886C135.496 623.032 130.515 611.028 130.5 598.506V114.966C130.515 102.444 135.496 90.4401 144.35 81.586C153.204 72.732 165.208 67.7511 177.73 67.736H483.27C489.681 67.7332 496.026 69.039 501.915 71.5735C507.805 74.108 513.114 77.8179 517.52 82.476C518.01 82.996 518.49 83.526 518.96 84.066C526.404 92.6393 530.502 103.612 530.5 114.966V598.506Z" fill="#2F2E41"/>
<path d="M177.242 143.446C177.186 143.315 177.118 143.197 177.057 143.071C179.312 138.658 180.45 133.759 180.371 128.803C180.371 113.302 170.684 102.475 156.815 102.475C142.945 102.475 133.258 113.302 133.258 128.803C133.258 144.305 142.945 155.131 156.815 155.131C160.088 155.198 163.336 154.54 166.326 153.205C169.316 151.869 171.974 149.89 174.11 147.408C178.551 154.594 187.136 155.542 187.532 155.582L188 150.987C187.677 150.952 180.056 150.06 177.242 143.446ZM156.815 150.512C145.664 150.512 137.877 141.585 137.877 128.803C137.877 116.021 145.664 107.094 156.815 107.094C167.965 107.094 175.752 116.021 175.752 128.803C175.798 132.447 175.079 136.061 173.642 139.41C166.748 135.221 153.922 137.724 152.182 138.091L153.132 142.611C157.844 141.625 167.217 140.833 171.297 143.393C169.622 145.644 167.434 147.465 164.916 148.703C162.398 149.941 159.62 150.561 156.815 150.512V150.512Z" fill="#D94D4D"/>
<path d="M158.5 166.118C156.997 164.617 154.959 163.774 152.835 163.775C150.71 163.776 148.673 164.62 147.171 166.122C145.668 167.624 144.824 169.661 144.823 171.786C144.823 173.91 145.666 175.948 147.167 177.451L158.5 188.785L169.833 177.451C171.331 175.947 172.171 173.911 172.169 171.788C172.167 169.665 171.323 167.63 169.822 166.129C168.321 164.628 166.286 163.784 164.163 163.782C162.041 163.78 160.004 164.62 158.5 166.118V166.118Z" fill="#D94D4D"/>
<path d="M483.758 573.124C483.814 573.254 483.882 573.373 483.943 573.498C481.688 577.911 480.55 582.811 480.629 587.766C480.629 603.268 490.316 614.094 504.185 614.094C518.055 614.094 527.742 603.268 527.742 587.766C527.742 572.265 518.055 561.438 504.185 561.438C500.912 561.372 497.664 562.03 494.674 563.365C491.684 564.7 489.026 566.679 486.89 569.161C482.449 561.975 473.864 561.027 473.468 560.987L473 565.583C473.323 565.618 480.944 566.509 483.758 573.124ZM504.185 566.057C515.336 566.057 523.123 574.984 523.123 587.766C523.123 600.548 515.336 609.475 504.185 609.475C493.035 609.475 485.248 600.548 485.248 587.766C485.202 584.122 485.921 580.509 487.358 577.159C494.252 581.348 507.078 578.845 508.818 578.479L507.868 573.958C503.156 574.945 493.783 575.736 489.703 573.176C491.379 570.925 493.566 569.105 496.084 567.867C498.602 566.629 501.38 566.008 504.185 566.057V566.057Z" fill="#D94D4D"/>
<path d="M502.5 550.451C504.004 551.95 506.041 552.791 508.164 552.79C510.287 552.788 512.323 551.944 513.824 550.443C515.326 548.941 516.17 546.905 516.172 544.782C516.173 542.659 515.332 540.622 513.833 539.118L502.5 527.785L491.167 539.118C489.668 540.622 488.826 542.659 488.828 544.782C488.83 546.905 489.674 548.941 491.175 550.443C492.677 551.944 494.713 552.788 496.836 552.79C498.959 552.791 500.996 551.95 502.5 550.451V550.451Z" fill="#D94D4D"/>
<path d="M355.146 340.447C341.532 317.444 314.597 316.371 314.597 316.371C314.597 316.371 288.351 313.015 271.514 348.05C255.821 380.705 234.163 412.235 268.027 419.879L274.144 400.84L277.933 421.297C282.754 421.643 287.591 421.726 292.422 421.544C328.689 420.373 363.227 421.887 362.115 408.873C360.637 391.573 368.245 362.581 355.146 340.447Z" fill="#2F2E41"/>
<path d="M304.922 418.823C304.988 421.412 304.968 424.143 303.682 426.391C301.131 430.847 294.904 431.514 291.159 435.027C287.22 438.72 286.774 444.715 286.586 450.111C286.39 455.753 286.224 461.58 288.283 466.837C289.544 469.733 291.138 472.471 293.033 474.998C295.32 478.294 297.628 481.576 299.957 484.843C301.2 486.682 302.587 488.422 304.102 490.045C308.273 494.294 313.995 496.646 319.707 498.324C323.398 499.408 327.383 500.252 331.046 499.075C333.468 498.129 335.702 496.756 337.639 495.02C340.363 492.857 343.128 490.65 345.102 487.787C348.177 483.326 349.029 477.742 349.666 472.361C351.55 456.451 352.284 440.426 351.86 424.41C351.937 422.665 351.625 420.924 350.945 419.315C349.048 415.612 343.968 414.821 341.292 411.635C339.003 408.912 338.91 405.025 338.93 401.468L338.979 392.412C339.059 391.649 338.906 390.879 338.539 390.205C338.207 389.842 337.807 389.548 337.361 389.34C336.915 389.133 336.433 389.015 335.941 388.993C330.313 388.059 324.607 387.678 318.904 387.854C314.281 387.995 305.41 387.608 301.412 390.183C297.783 392.52 302.326 398.976 303.167 402.602C304.297 407.936 304.885 413.371 304.922 418.823Z" fill="#A0616A"/>
<path d="M315.534 403.272C335.75 403.272 352.138 386.884 352.138 366.668C352.138 346.453 335.75 330.065 315.534 330.065C295.319 330.065 278.931 346.453 278.931 366.668C278.931 386.884 295.319 403.272 315.534 403.272Z" fill="#A0616A"/>
<path d="M300.462 457.333C298.134 453.872 296.218 450.151 294.753 446.246C293.444 442.29 293.101 437.869 294.654 434.002C290.699 431.707 285.328 433.565 282.448 437.117C279.567 440.669 278.686 445.43 278.432 449.996C278.178 454.562 278.447 459.195 277.453 463.659C275.255 473.535 267.097 481.654 266.491 491.753C265.894 501.689 272.707 510.344 276.059 519.716C278.09 525.558 278.939 531.745 278.557 537.918C278.448 539.91 278.323 542.181 279.729 543.598C280.461 544.237 281.327 544.703 282.263 544.963C298.436 550.653 315.906 551.145 333.046 551.579L361.356 552.296C363.068 552.501 364.803 552.21 366.355 551.459C368.895 549.902 369.235 546.411 369.278 543.432C369.65 517.776 368.559 492.123 367.468 466.488C367.072 457.196 366.67 447.85 364.7 438.761C364.198 436.446 363.375 433.873 361.239 432.851C359.43 431.986 357.284 432.546 355.404 433.241C346.629 436.504 339.045 442.342 333.646 449.99C327.837 458.257 324.98 468.174 319.295 476.504C315.17 482.549 312.784 477.281 310.035 472.829C306.845 467.663 303.654 462.498 300.462 457.333Z" fill="white"/>
<path d="M296.08 434.635C295.36 435.145 294.65 435.685 293.97 436.255C291.422 438.358 289.139 440.762 287.17 443.415C283.911 447.858 281.317 452.753 279.47 457.945C276.15 467.045 274.71 476.705 273.33 486.285C272.728 489.814 272.403 493.385 272.36 496.965C272.57 510.125 280.35 522.315 280.36 535.485C280.36 535.985 280.35 536.475 280.32 536.975C280.227 539.131 279.973 541.277 279.56 543.395C278.99 546.485 278.17 549.535 277.36 552.575C275.32 560.195 273.12 568.095 269.14 574.785C268.74 575.465 268.31 576.135 267.87 576.785H239.87C240.09 576.115 240.32 575.455 240.54 574.785C245.31 560.655 250.077 546.528 254.84 532.405C256.3 528.085 257.76 523.745 258.79 519.305C259.968 513.822 260.774 508.266 261.2 502.675C262.3 491.085 263.024 479.471 263.37 467.835C263.5 463.655 263.59 459.385 264.94 455.425C266.206 452.198 267.879 449.146 269.92 446.345C272.81 441.995 275.7 437.645 278.59 433.295C280.2 430.875 281.89 428.385 284.37 426.875C286.44 425.605 288.9 425.145 291.08 424.075C292.452 423.296 293.768 422.424 295.02 421.465C298.28 419.155 302.11 416.725 304.92 419.085C305.376 419.463 305.767 419.912 306.08 420.415C306.24 420.662 306.384 420.919 306.51 421.185C309.21 427.025 299.71 432.065 296.08 434.635Z" fill="#2F2E41"/>
<path d="M388.32 576.785H258.64C259.34 576.145 260.03 575.475 260.7 574.785C260.8 574.685 260.89 574.585 260.99 574.485C265.95 569.335 267.08 563.005 269.57 556.305C271.44 551.255 273.31 546.208 275.18 541.165C275.476 540.183 275.962 539.269 276.61 538.475C277.152 537.915 277.831 537.508 278.58 537.295C279.146 537.121 279.73 537.014 280.32 536.975C281.163 536.92 282.008 536.92 282.85 536.975C306.12 538.175 329.373 539.638 352.61 541.365C355.61 541.595 358.61 541.825 361.61 542.055C364.06 543.875 366.48 545.805 368.79 547.845C376.3 554.445 382.81 562.215 386.54 571.395C386.99 572.505 387.4 573.635 387.74 574.785C387.96 575.445 388.15 576.115 388.32 576.785Z" fill="#2F2E41"/>
<path d="M349.127 338.23L322.517 324.291L285.77 329.993L278.167 363.573L297.093 362.845L302.38 350.508V362.641L311.113 362.305L316.181 342.665L319.349 363.573L350.394 362.939L349.127 338.23Z" fill="#2F2E41"/>
<path d="M388.32 576.785H359.04C358.83 576.125 358.63 575.455 358.44 574.785C356.372 567.346 354.854 559.766 353.9 552.105C353.59 549.915 353.32 547.715 353.07 545.525C352.91 544.135 352.76 542.755 352.61 541.365C350.93 525.925 349.64 510.335 344.92 495.555C344.35 493.765 343.73 491.985 343.13 490.205C342.021 487.14 341.152 483.994 340.53 480.795C339.25 473.475 340.21 465.895 338.89 458.585C338.15 454.505 336.68 450.915 335.79 447.175C335.223 444.918 335.001 442.588 335.13 440.265C337.284 438.231 339.997 436.887 342.92 436.405C343.93 436.235 345.07 436.105 345.68 435.295C346.04 434.678 346.2 433.966 346.14 433.255C346.21 428.538 345.939 423.822 345.33 419.145C345.13 417.505 344.88 415.865 344.58 414.235C344.57 414.155 344.55 414.085 344.54 414.005C346.98 412.945 349.73 412.935 352.38 412.945C355.27 412.955 358.15 412.955 361.03 412.965C366.36 412.985 371.69 413.001 377.02 413.015C381.98 413.025 387.11 413.075 391.62 415.125C396.28 417.255 399.82 421.365 402.16 425.925C404.5 430.485 405.77 435.505 406.92 440.495C407.239 441.876 407.407 443.287 407.42 444.705C407.64 455.965 399.24 467.305 398.4 478.815C398.13 482.545 398.44 486.305 398.1 490.035C397.76 493.775 396.76 497.435 396.58 501.175C396.57 501.365 396.56 501.565 396.56 501.755C396.45 506.625 397.87 511.395 399.51 515.985C402.05 523.115 405.14 530.025 408.33 536.895C411.41 543.545 414.57 550.165 417.41 556.905C418.887 560.034 419.882 563.368 420.36 566.795C420.675 569.549 420.149 572.335 418.85 574.785C418.517 575.39 418.118 575.957 417.66 576.475L417.64 576.495C417.55 576.595 417.46 576.695 417.37 576.785H388.32V576.785Z" fill="#2F2E41"/>
<path d="M416.21 566.525C416.087 567.855 415.725 569.153 415.14 570.355C415.09 570.475 415.04 570.585 414.99 570.705C414.41 572.075 413.82 573.425 413.21 574.785C412.91 575.445 412.61 576.115 412.3 576.785H395.74C396.339 576.158 396.894 575.489 397.4 574.785C399.94 571.255 401.41 566.965 404 563.155C404.352 562.633 404.757 562.151 405.21 561.715C409.36 557.695 416.47 558.515 416.21 566.525Z" fill="#FFB8B8"/>
<path d="M426.99 576.785C427.202 576.128 427.379 575.46 427.52 574.785C427.64 574.255 427.74 573.735 427.82 573.205C428.35 569.715 428.34 566.145 429.17 562.715C430.34 557.805 433.85 551.995 430.96 547.865C433.208 547.403 435.328 546.454 437.17 545.085C438.89 543.585 439.89 540.985 438.85 538.945C437.82 536.935 435.03 535.605 435.41 533.375C435.599 532.667 435.933 532.007 436.39 531.435C437.906 529.042 438.691 526.259 438.646 523.427C438.602 520.595 437.731 517.838 436.14 515.495C435.23 514.195 434.11 513.055 433.28 511.695C432.372 510.031 431.677 508.261 431.21 506.425C428.322 497.12 424.066 488.296 418.58 480.245C417.364 478.695 416.421 476.95 415.79 475.085C415.421 473.063 415.347 470.998 415.57 468.955C415.77 460.875 412.75 452.985 408.4 446.185C408.08 445.685 407.75 445.195 407.42 444.705C403.22 438.515 398.01 433.085 392.82 427.695C390.68 428.695 388.79 429.345 387.68 431.425C387.136 432.597 386.801 433.856 386.69 435.145C385.27 445.045 384.04 455.005 383.08 464.955C382.6 469.985 382.11 475.055 382.68 480.075C383.25 485.095 384.96 490.125 388.36 493.855C390.49 496.195 393.19 497.935 395.5 500.095C395.87 500.445 396.23 500.805 396.58 501.175C398.245 502.948 399.723 504.888 400.99 506.965C406.532 515.918 409.101 526.394 408.33 536.895C408.19 538.788 407.94 540.671 407.58 542.535C407.141 545.203 406.24 547.775 404.92 550.135C403.87 551.865 402.49 553.375 401.54 555.165C400.59 556.955 400.14 559.185 401.08 560.975C402.49 560.973 403.888 561.224 405.21 561.715C408.323 562.915 411.029 564.979 413.01 567.665C413.74 568.631 414.402 569.646 414.99 570.705C415.732 572.023 416.393 573.386 416.97 574.785C417.21 575.335 417.44 575.905 417.66 576.475C417.71 576.574 417.75 576.678 417.78 576.785H426.99Z" fill="#2F2E41"/>
<path d="M345.231 402.805L324.027 412.053L319.051 412.545L296.446 407.631L297.443 427.746L319.543 417.521L324.519 417.029L348.195 422.725L345.231 402.805Z" fill="#D94D4D"/>
<path d="M387.74 574.785C387.96 575.445 388.15 576.115 388.32 576.785H395.74C396.339 576.158 396.894 575.489 397.4 574.785H387.74ZM191.75 135.785V576.785H468.25V135.785H191.75ZM466.25 574.785H193.75V137.785H466.25V574.785ZM387.74 574.785C387.96 575.445 388.15 576.115 388.32 576.785H395.74C396.339 576.158 396.894 575.489 397.4 574.785H387.74Z" fill="#2F2E41"/>
<path d="M282.601 328.718L282.772 327.858C282.823 327.603 287.717 302.033 275.107 278.074L274.195 276.341L276.134 276.618C276.69 276.698 289.423 278.74 298.551 298.84C299.352 295.777 300.159 289.335 297.653 278.48L297.297 276.935L298.845 277.279C299.327 277.386 310.314 279.976 314.67 293.32L331.965 278.686V302.458C336.616 300.092 350.879 293.727 359.951 299.396L361.335 300.261L359.936 301.102C359.817 301.173 348.674 307.932 346.465 314.773C349.068 314.795 355.275 314.884 361.422 315.253C377.208 316.2 378.53 318.017 378.53 319.646V320.217L378.039 320.507C377.759 320.672 350.04 337.197 349.426 350.09L349.362 351.418L282.601 328.718ZM345.193 316.766H344.013L344.207 315.601C345.304 309.017 353.924 302.667 357.44 300.324C347.531 295.947 331.628 304.897 331.461 304.993L329.965 305.847V282.998L313.598 296.847L313.185 295.333C310.317 284.818 303.167 280.962 299.977 279.733C303.269 295.495 299.646 301.783 299.485 302.052L298.461 303.759L297.703 301.918C291.089 285.855 281.968 280.747 277.924 279.213C288.324 300.67 285.606 322.778 284.882 327.381L347.565 348.694C349.571 336.329 371.124 322.409 376.058 319.369C373.012 317.751 358.309 316.766 345.193 316.766V316.766Z" fill="#D94D4D"/>
<path d="M269.171 266.613C269.171 265.904 269.382 265.21 269.776 264.62C270.17 264.031 270.73 263.571 271.386 263.299C272.041 263.028 272.762 262.957 273.458 263.095C274.154 263.234 274.793 263.575 275.295 264.077C275.796 264.579 276.138 265.218 276.276 265.914C276.415 266.609 276.344 267.331 276.072 267.986C275.801 268.641 275.341 269.202 274.751 269.596C274.161 269.99 273.468 270.2 272.758 270.2C271.807 270.199 270.896 269.821 270.223 269.149C269.551 268.476 269.172 267.564 269.171 266.613V266.613ZM271.171 266.613C271.171 266.927 271.264 267.234 271.439 267.495C271.613 267.756 271.861 267.959 272.151 268.079C272.441 268.199 272.76 268.231 273.068 268.17C273.376 268.108 273.658 267.957 273.88 267.735C274.102 267.513 274.253 267.231 274.315 266.923C274.376 266.615 274.345 266.296 274.224 266.006C274.104 265.716 273.901 265.468 273.64 265.294C273.379 265.119 273.072 265.026 272.758 265.026C272.338 265.027 271.934 265.194 271.637 265.492C271.339 265.789 271.172 266.193 271.171 266.613V266.613Z" fill="#D94D4D"/>
<path d="M295.041 266.613C295.041 265.904 295.251 265.21 295.646 264.62C296.04 264.031 296.6 263.571 297.255 263.299C297.911 263.028 298.632 262.957 299.328 263.095C300.024 263.234 300.663 263.575 301.164 264.077C301.666 264.579 302.008 265.218 302.146 265.914C302.284 266.609 302.213 267.331 301.942 267.986C301.67 268.641 301.211 269.202 300.621 269.596C300.031 269.99 299.337 270.2 298.628 270.2C297.677 270.199 296.765 269.821 296.093 269.149C295.42 268.476 295.042 267.564 295.041 266.613V266.613ZM297.041 266.613C297.041 266.927 297.134 267.234 297.308 267.495C297.483 267.756 297.731 267.959 298.021 268.079C298.311 268.199 298.63 268.231 298.938 268.17C299.245 268.108 299.528 267.957 299.75 267.735C299.972 267.513 300.123 267.231 300.184 266.923C300.246 266.615 300.214 266.296 300.094 266.006C299.974 265.716 299.771 265.468 299.51 265.294C299.249 265.119 298.942 265.026 298.628 265.026C298.207 265.027 297.804 265.194 297.506 265.492C297.209 265.789 297.042 266.193 297.041 266.613V266.613Z" fill="#D94D4D"/>
<path d="M332.552 273.081C332.552 272.372 332.762 271.678 333.156 271.088C333.55 270.498 334.111 270.039 334.766 269.767C335.421 269.496 336.143 269.425 336.838 269.563C337.534 269.701 338.173 270.043 338.675 270.545C339.177 271.046 339.518 271.685 339.657 272.381C339.795 273.077 339.724 273.798 339.453 274.454C339.181 275.109 338.721 275.669 338.131 276.063C337.542 276.458 336.848 276.668 336.139 276.668C335.188 276.667 334.276 276.289 333.603 275.616C332.931 274.944 332.553 274.032 332.552 273.081V273.081ZM334.552 273.081C334.552 273.395 334.645 273.702 334.819 273.963C334.994 274.224 335.241 274.427 335.531 274.547C335.821 274.667 336.14 274.699 336.448 274.637C336.756 274.576 337.039 274.425 337.261 274.203C337.483 273.981 337.634 273.698 337.695 273.391C337.756 273.083 337.725 272.764 337.605 272.474C337.485 272.184 337.281 271.936 337.02 271.762C336.759 271.587 336.453 271.494 336.139 271.494C335.718 271.495 335.315 271.662 335.017 271.959C334.72 272.257 334.552 272.66 334.552 273.081V273.081Z" fill="#D94D4D"/>
<path d="M382.998 317.059C382.998 316.35 383.208 315.656 383.602 315.066C383.996 314.476 384.556 314.017 385.212 313.745C385.867 313.474 386.588 313.403 387.284 313.541C387.98 313.679 388.619 314.021 389.121 314.523C389.622 315.024 389.964 315.663 390.102 316.359C390.241 317.055 390.17 317.776 389.898 318.432C389.627 319.087 389.167 319.647 388.577 320.041C387.987 320.436 387.294 320.646 386.584 320.646C385.633 320.645 384.722 320.267 384.049 319.594C383.377 318.922 382.999 318.01 382.998 317.059V317.059ZM384.998 317.059C384.998 317.373 385.091 317.68 385.265 317.941C385.439 318.202 385.687 318.405 385.977 318.525C386.267 318.645 386.586 318.677 386.894 318.615C387.202 318.554 387.485 318.403 387.707 318.181C387.929 317.959 388.08 317.676 388.141 317.369C388.202 317.061 388.171 316.742 388.051 316.452C387.93 316.162 387.727 315.914 387.466 315.74C387.205 315.565 386.898 315.472 386.584 315.472C386.164 315.473 385.76 315.64 385.463 315.937C385.165 316.235 384.998 316.638 384.998 317.059V317.059Z" fill="#D94D4D"/>
<path d="M364.889 295.07C364.889 294.36 365.099 293.667 365.493 293.077C365.887 292.487 366.447 292.027 367.103 291.756C367.758 291.484 368.48 291.413 369.176 291.551C369.871 291.69 370.511 292.031 371.012 292.533C371.514 293.035 371.856 293.674 371.994 294.37C372.132 295.066 372.061 295.787 371.79 296.442C371.518 297.098 371.059 297.658 370.469 298.052C369.879 298.446 369.185 298.657 368.476 298.657C367.525 298.656 366.613 298.278 365.94 297.605C365.268 296.933 364.89 296.021 364.889 295.07V295.07ZM366.889 295.07C366.889 295.384 366.982 295.691 367.156 295.952C367.33 296.213 367.578 296.416 367.868 296.536C368.158 296.657 368.477 296.688 368.785 296.627C369.093 296.566 369.376 296.414 369.598 296.192C369.82 295.97 369.971 295.688 370.033 295.38C370.094 295.072 370.062 294.753 369.942 294.463C369.822 294.173 369.618 293.925 369.357 293.75C369.096 293.576 368.79 293.483 368.476 293.483C368.055 293.483 367.652 293.651 367.354 293.948C367.057 294.246 366.889 294.649 366.889 295.07Z" fill="#D94D4D"/>
<path d="M921 645.285H12V647.285H921V645.285Z" fill="#3F3D56" fill-opacity="0.2"/>
</g>
<defs>
<clipPath id="clip0_10_2">
<rect width="921" height="647.736" fill="white"/>
</clipPath>
</defs>
</svg>
