<svg width="120" height="120" viewBox="0 0 120 120" fill="none" xmlns="http://www.w3.org/2000/svg">
<g clip-path="url(#clip0_12_55)">
<path d="M60 118.125C92.1015 118.125 118.125 92.1015 118.125 60C118.125 27.8984 92.1015 1.875 60 1.875C27.8984 1.875 1.875 27.8984 1.875 60C1.875 92.1015 27.8984 118.125 60 118.125Z" fill="#515262"/>
<path d="M60 117.656C91.8427 117.656 117.656 91.8427 117.656 60C117.656 28.1573 91.8427 2.34375 60 2.34375C28.1573 2.34375 2.34375 28.1573 2.34375 60C2.34375 91.8427 28.1573 117.656 60 117.656Z" fill="#FF6464"/>
<path d="M60 95.3906C79.5457 95.3906 95.3906 79.5457 95.3906 60C95.3906 40.4543 79.5457 24.6094 60 24.6094C40.4543 24.6094 24.6094 40.4543 24.6094 60C24.6094 79.5457 40.4543 95.3906 60 95.3906Z" fill="#EFF2FA"/>
<path d="M22.6474 38.4345L9.65531 30.9335C4.70813 39.484 1.875 49.4109 1.875 60H16.875C16.875 52.1435 18.9769 44.7785 22.6474 38.4345Z" fill="#FF6464"/>
<path d="M38.4344 22.6474L30.9335 9.65508C22.1132 14.7588 14.7588 22.1133 9.65527 30.9335L22.6474 38.4344C26.4339 31.8902 31.8902 26.434 38.4344 22.6474Z" fill="#EFF2FA"/>
<path d="M60 16.875V1.875C49.4107 1.875 39.4839 4.70789 30.9335 9.65531L38.4344 22.6477C44.7785 18.9771 52.1435 16.875 60 16.875Z" fill="#FF6464"/>
<path d="M103.125 60H118.125C118.125 49.4109 115.292 39.484 110.345 30.9335L97.3525 38.4345C101.023 44.7785 103.125 52.1435 103.125 60Z" fill="#EFF2FA"/>
<path d="M97.3526 38.4345L110.345 30.9335C105.241 22.1133 97.887 14.7588 89.0665 9.65531L81.5656 22.6474C88.1098 26.434 93.566 31.8902 97.3526 38.4345Z" fill="#FF6464"/>
<path d="M81.5655 22.6474L89.0665 9.65531C80.516 4.70812 70.5891 1.875 60 1.875V16.875C67.8565 16.875 75.2215 18.9771 81.5655 22.6474Z" fill="#EFF2FA"/>
<path d="M16.875 60H1.875C1.875 70.5891 4.70813 80.516 9.65531 89.0667L22.6474 81.5655C18.9769 75.2215 16.875 67.8565 16.875 60Z" fill="#EFF2FA"/>
<path d="M81.5656 97.3526L89.0665 110.345C97.8867 105.241 105.241 97.887 110.345 89.0667L97.3526 81.5656C93.566 88.1098 88.1098 93.566 81.5656 97.3526Z" fill="#EFF2FA"/>
<path d="M22.6474 81.5656L9.65527 89.0667C14.7586 97.887 22.113 105.241 30.9335 110.345L38.4344 97.3526C31.8902 93.566 26.4339 88.1098 22.6474 81.5656Z" fill="#FF6464"/>
<path d="M103.125 60C103.125 67.8565 101.023 75.2215 97.3525 81.5655L110.345 89.0667C115.292 80.516 118.125 70.5891 118.125 60H103.125Z" fill="#FF6464"/>
<path d="M60 103.125V118.125C70.5891 118.125 80.516 115.292 89.0665 110.345L81.5655 97.3526C75.2215 101.023 67.8565 103.125 60 103.125Z" fill="#FF6464"/>
<path d="M38.4345 97.3526L30.9336 110.345C39.4841 115.292 49.411 118.125 60.0001 118.125V103.125C52.1436 103.125 44.7786 101.023 38.4345 97.3526Z" fill="#EFF2FA"/>
<path d="M92.7429 46.4794C91.5764 43.6582 89.9986 40.9472 88.0531 38.422L87.2583 37.3905L92.5988 34.3073L93.2053 35.1145C95.2568 37.8448 96.9368 40.7191 98.1987 43.657L98.5983 44.5875L93.2398 47.6812L92.7429 46.4794Z" fill="#EFF2FA"/>
<path d="M92.2941 35.7991L88.9557 37.7264C90.9092 40.2621 92.5555 43.0437 93.796 46.0439L97.1511 44.1068C95.8723 41.1288 94.2172 38.3588 92.2941 35.7991Z" fill="#EFF2FA"/>
<path d="M81.5779 31.9472C79.0528 30.0016 76.3418 28.4238 73.5206 27.2573L72.3187 26.7605L75.4125 21.402L76.3429 21.8016C79.2811 23.0634 82.155 24.7434 84.8854 26.7949L85.6926 27.4015L82.6097 32.742L81.5779 31.9472Z" fill="#EFF2FA"/>
<path d="M73.9561 26.2041C76.9563 27.4446 79.7379 29.0906 82.2736 31.0444L84.2008 27.7059C81.6412 25.7829 78.8709 24.1277 75.8932 22.8487L73.9561 26.2041Z" fill="#EFF2FA"/>
<path d="M64.6627 24.9145C62.888 24.6806 61.4066 24.5716 60.0001 24.5716C58.5936 24.5716 57.1121 24.6806 55.3374 24.9145L54.0486 25.0845V18.8848L55.0534 18.7648C56.8691 18.548 58.4872 18.4427 59.9998 18.4427C61.5125 18.4427 63.1306 18.548 64.9463 18.7648L65.9511 18.8848V25.0842L64.6627 24.9145Z" fill="#EFF2FA"/>
<path d="M55.1885 19.8966V23.7846C56.7668 23.5765 58.365 23.4321 60 23.4321C61.635 23.4321 63.2332 23.5767 64.8114 23.7846V19.8966C63.2306 19.7079 61.6307 19.5827 60 19.5827C58.3692 19.5827 56.7693 19.7079 55.1885 19.8966Z" fill="#EFF2FA"/>
<path d="M94.9158 65.9515L95.0857 64.6627C95.3196 62.888 95.4284 61.4065 95.4284 60C95.4284 58.5935 95.3194 57.112 95.0857 55.3374L94.9158 54.0485H101.115L101.235 55.0533C101.452 56.869 101.557 58.4869 101.557 59.9998C101.557 61.5131 101.452 63.131 101.235 64.9465L101.115 65.9513H94.9158V65.9515V65.9515Z" fill="#EFF2FA"/>
<path d="M96.5682 60C96.5682 61.6352 96.4236 63.2332 96.2157 64.8117H100.104C100.292 63.2306 100.418 61.631 100.418 60C100.418 58.3692 100.292 56.7694 100.104 55.1885H96.2157C96.4236 56.7668 96.5682 58.3648 96.5682 60Z" fill="#EFF2FA"/>
<path d="M18.885 65.9515L18.765 64.9467C18.5485 63.1312 18.443 61.5134 18.443 60C18.443 58.4871 18.5482 56.8692 18.765 55.0535L18.8848 54.0488H25.0845L24.9146 55.3376C24.6806 57.1123 24.5717 58.5938 24.5717 60.0002C24.5717 61.4067 24.6806 62.8882 24.9146 64.6629L25.0845 65.9517H18.885V65.9515Z" fill="#EFF2FA"/>
<path d="M23.4319 60C23.4319 58.3648 23.5765 56.7668 23.7844 55.1885H19.8966C19.7079 56.7694 19.5828 58.3692 19.5828 60C19.5828 61.631 19.7079 63.2306 19.8968 64.8117H23.7846C23.5765 63.2332 23.4319 61.6352 23.4319 60Z" fill="#EFF2FA"/>
<path d="M34.3071 27.4012L35.1143 26.7947C37.8446 24.7434 40.7187 23.0632 43.6568 21.8013L44.5873 21.4017L47.681 26.7602L46.4792 27.2571C43.658 28.4236 40.947 30.0014 38.4218 31.947L37.3901 32.7417L34.3071 27.4012Z" fill="#EFF2FA"/>
<path d="M37.7265 31.0444C40.2622 29.0909 43.0437 27.4446 46.044 26.2041L44.1069 22.849C41.1289 24.128 38.3588 25.7831 35.7992 27.7062L37.7265 31.0444Z" fill="#EFF2FA"/>
<path d="M87.2583 82.6097L88.0531 81.5782C89.9986 79.053 91.5764 76.342 92.7429 73.5209L93.2398 72.319L98.5983 75.4127L98.1987 76.3432C96.937 79.2806 95.2571 82.1548 93.2053 84.8855L92.5988 85.6927L87.2583 82.6097Z" fill="#EFF2FA"/>
<path d="M97.1512 75.8934L93.7961 73.9563C92.5556 76.9566 90.9096 79.7379 88.9561 82.2738L92.2943 84.2011C94.2171 81.6413 95.8725 78.8712 97.1512 75.8934Z" fill="#EFF2FA"/>
<path d="M60.0001 101.557C58.4872 101.557 56.8693 101.452 55.0536 101.235L54.0488 101.115V94.916L55.3377 95.0859C57.1123 95.3198 58.5938 95.4286 60.0003 95.4286C61.4068 95.4286 62.8883 95.3196 64.663 95.0859L65.9518 94.916V101.115L64.947 101.235C63.1309 101.452 61.513 101.557 60.0001 101.557Z" fill="#EFF2FA"/>
<path d="M64.8114 100.103V96.2156C63.2332 96.4237 61.635 96.5684 60 96.5684C58.365 96.5684 56.7668 96.4237 55.1885 96.2156V100.104C56.7693 100.292 58.3692 100.417 60 100.417C61.6307 100.417 63.2306 100.292 64.8114 100.103Z" fill="#EFF2FA"/>
<path d="M72.319 93.2395L73.5208 92.7427C76.342 91.5762 79.053 89.9984 81.5782 88.0528L82.6099 87.2581L85.6929 92.5983L84.8857 93.2049C82.1552 95.2563 79.2811 96.9363 76.3432 98.1982L75.4127 98.5978L72.319 93.2395Z" fill="#EFF2FA"/>
<path d="M82.2736 88.9559C79.7379 90.9094 76.9563 92.5554 73.9561 93.7959L75.8932 97.151C78.8709 95.872 81.6412 94.2169 84.2008 92.2936L82.2736 88.9559Z" fill="#EFF2FA"/>
<path d="M43.6571 98.1984C40.7192 96.9366 37.845 95.2566 35.1146 93.2051L34.3074 92.5985L37.3903 87.2583L38.4221 88.053C40.9472 89.9986 43.6582 91.5764 46.4794 92.7429L47.6813 93.2398L44.5875 98.5983L43.6571 98.1984Z" fill="#EFF2FA"/>
<path d="M46.044 93.7959C43.0437 92.5554 40.2622 90.9094 37.7265 88.9559L35.7992 92.2938C38.3588 94.2171 41.1291 95.8723 44.1069 97.1513L46.044 93.7959Z" fill="#EFF2FA"/>
<path d="M26.7947 84.8855C24.743 82.1548 23.063 79.2806 21.8013 76.3432L21.4017 75.4127L26.7602 72.319L27.2571 73.5209C28.4236 76.342 30.0014 79.053 31.947 81.5782L32.7417 82.6097L27.4013 85.6927L26.7947 84.8855Z" fill="#EFF2FA"/>
<path d="M31.0442 82.2736C29.0906 79.7379 27.4446 76.9563 26.2041 73.9561L22.849 75.8932C24.1277 78.8709 25.7831 81.641 27.7062 84.2006L31.0442 82.2736Z" fill="#EFF2FA"/>
<path d="M21.402 44.5875L21.8016 43.657C23.0635 40.7191 24.7435 37.845 26.7949 35.1145L27.4015 34.3073L32.742 37.3905L31.9472 38.422C30.0017 40.9472 28.4239 43.6582 27.2574 46.4794L26.7605 47.6812L21.402 44.5875Z" fill="#EFF2FA"/>
<path d="M22.8488 44.1066L26.2038 46.0437C27.4444 43.0434 29.0904 40.2619 31.0439 37.7262L27.7057 35.7989C25.7829 38.3587 24.1277 41.1288 22.8488 44.1066Z" fill="#EFF2FA"/>
<path d="M102.427 17.5734C91.0938 6.24094 76.0266 0 60 0C43.9734 0 28.9062 6.24094 17.5734 17.5734C6.2407 28.9059 0 43.9734 0 60C0 76.0266 6.24094 91.0941 17.5734 102.427C28.9062 113.759 43.9734 120 60 120C76.0266 120 91.0938 113.759 102.427 102.427C113.759 91.0941 120 76.0266 120 60C120 43.9734 113.759 28.9062 102.427 17.5734ZM109.615 86.4799L99.8672 80.8523C102.869 75.1359 104.677 68.6995 104.958 61.875H116.216C115.923 70.7454 113.569 79.1018 109.615 86.4799ZM58.125 104.958V116.216C49.2546 115.923 40.8982 113.569 33.5201 109.615L39.1479 99.8672C44.8641 102.869 51.3005 104.677 58.125 104.958ZM61.875 104.958C68.6995 104.677 75.1359 102.869 80.8523 99.8672L86.4802 109.615C79.102 113.569 70.7454 115.924 61.8752 116.216L61.875 104.958ZM60 101.25C37.2546 101.25 18.75 82.7454 18.75 60C18.75 37.2546 37.2546 18.75 60 18.75C82.7454 18.75 101.25 37.2546 101.25 60C101.25 82.7454 82.7454 101.25 60 101.25ZM3.78445 61.875H15.042C15.3232 68.6995 17.1309 75.1359 20.1328 80.8523L10.3852 86.4802C6.43148 79.1018 4.07672 70.7454 3.78445 61.875ZM10.3854 33.5201L20.1328 39.1477C17.1309 44.8641 15.3232 51.3005 15.042 58.125H3.78445C4.07672 49.2546 6.43148 40.8982 10.3854 33.5201ZM61.875 15.042V3.78445C70.7454 4.07648 79.1018 6.43125 86.4799 10.3852L80.8523 20.1328C75.1359 17.1309 68.6995 15.3232 61.875 15.042ZM58.125 15.042C51.3005 15.3232 44.8641 17.1309 39.1477 20.1328L33.5198 10.3852C40.898 6.43125 49.2546 4.07648 58.1248 3.78445L58.125 15.042ZM104.958 58.125C104.677 51.3005 102.869 44.8641 99.8672 39.1477L109.615 33.5198C113.569 40.898 115.924 49.2546 116.216 58.1248L104.958 58.125ZM107.734 30.2761L97.988 35.9027C94.433 30.3183 89.682 25.567 84.0973 22.012L89.7239 12.2665C97.0087 16.8192 103.181 22.9912 107.734 30.2761ZM30.2761 12.2665L35.9027 22.012C30.3183 25.567 25.567 30.318 22.012 35.9027L12.2665 30.2761C16.8192 22.9912 22.9912 16.8192 30.2761 12.2665ZM12.2665 89.7239L22.012 84.0973C25.567 89.6817 30.318 94.433 35.9027 97.988L30.2761 107.734C22.9912 103.181 16.8192 97.0087 12.2665 89.7239ZM89.7239 107.734L84.0973 97.988C89.6817 94.433 94.433 89.682 97.988 84.0973L107.734 89.7239C103.181 97.0087 97.0087 103.181 89.7239 107.734Z" fill="#2D2B29"/>
<path d="M84.8674 37.1815C85.2373 37.5844 85.7424 37.7885 86.2491 37.7885C86.7021 37.7885 87.1566 37.6252 87.5166 37.2949C88.2795 36.5946 88.3301 35.4084 87.6298 34.6455C86.9065 33.8578 86.1406 33.0919 85.3531 32.3691C84.5904 31.669 83.4042 31.7196 82.7039 32.4825C82.0036 33.2454 82.0545 34.4313 82.8174 35.1316C83.5263 35.7823 84.2161 36.472 84.8674 37.1815Z" fill="#2D2B29"/>
<path d="M26.25 60C26.25 41.3902 41.3902 26.25 60 26.25C65.5779 26.25 71.104 27.6387 75.9813 30.2658C76.893 30.7568 78.0302 30.416 78.5212 29.5043C79.0123 28.5923 78.6712 27.4554 77.7595 26.9641C72.3377 24.0436 66.1966 22.5 60 22.5C39.3225 22.5 22.5 39.3225 22.5 60C22.5 68.6119 25.492 77.0234 30.9251 83.685C31.2959 84.1395 31.8352 84.375 32.3794 84.375C32.7959 84.375 33.2152 84.2367 33.5632 83.9529C34.3657 83.2985 34.4857 82.1173 33.8313 81.3148C28.9423 75.3206 26.25 67.7508 26.25 60Z" fill="#2D2B29"/>
<path d="M93.0321 42.2334C92.5406 41.3217 91.4037 40.9812 90.4919 41.4724C89.5805 41.9637 89.2397 43.1009 89.7309 44.0123C92.3601 48.8911 93.75 54.4195 93.75 60C93.75 78.6098 78.6098 93.75 60 93.75C52.249 93.75 44.6789 91.0575 38.6845 86.1682C37.8823 85.5138 36.7012 85.6336 36.0464 86.4363C35.392 87.2388 35.5118 88.4198 36.3145 89.0745C42.9762 94.5077 51.3876 97.5 60 97.5C80.6775 97.5 97.5 80.6775 97.5 60C97.5 53.8005 95.955 47.6569 93.0321 42.2334Z" fill="#2D2B29"/>
<path d="M39.8508 53.112C39.1148 53.112 38.4535 52.984 37.8668 52.728C37.2908 52.4613 36.8375 52.0987 36.5068 51.64C36.1761 51.1707 36.0055 50.632 35.9948 50.024H37.5468C37.6001 50.5467 37.8135 50.9893 38.1868 51.352C38.5708 51.704 39.1255 51.88 39.8508 51.88C40.5441 51.88 41.0881 51.7093 41.4828 51.368C41.8881 51.016 42.0908 50.568 42.0908 50.024C42.0908 49.5973 41.9735 49.2507 41.7388 48.984C41.5041 48.7173 41.2108 48.5147 40.8588 48.376C40.5068 48.2373 40.0321 48.088 39.4348 47.928C38.6988 47.736 38.1068 47.544 37.6588 47.352C37.2215 47.16 36.8428 46.8613 36.5228 46.456C36.2135 46.04 36.0588 45.4853 36.0588 44.792C36.0588 44.184 36.2135 43.6453 36.5228 43.176C36.8321 42.7067 37.2641 42.344 37.8188 42.088C38.3841 41.832 39.0295 41.704 39.7548 41.704C40.8001 41.704 41.6535 41.9653 42.3148 42.488C42.9868 43.0107 43.3655 43.704 43.4508 44.568H41.8508C41.7975 44.1413 41.5735 43.768 41.1788 43.448C40.7841 43.1173 40.2615 42.952 39.6108 42.952C39.0028 42.952 38.5068 43.112 38.1228 43.432C37.7388 43.7413 37.5468 44.1787 37.5468 44.744C37.5468 45.1493 37.6588 45.48 37.8828 45.736C38.1175 45.992 38.4001 46.1893 38.7308 46.328C39.0721 46.456 39.5468 46.6053 40.1548 46.776C40.8908 46.9787 41.4828 47.1813 41.9308 47.384C42.3788 47.576 42.7628 47.88 43.0828 48.296C43.4028 48.7013 43.5628 49.256 43.5628 49.96C43.5628 50.504 43.4188 51.016 43.1308 51.496C42.8428 51.976 42.4161 52.3653 41.8508 52.664C41.2855 52.9627 40.6188 53.112 39.8508 53.112ZM46.7774 42.808C46.5001 42.808 46.2654 42.712 46.0734 42.52C45.8814 42.328 45.7854 42.0933 45.7854 41.816C45.7854 41.5387 45.8814 41.304 46.0734 41.112C46.2654 40.92 46.5001 40.824 46.7774 40.824C47.0441 40.824 47.2681 40.92 47.4494 41.112C47.6414 41.304 47.7374 41.5387 47.7374 41.816C47.7374 42.0933 47.6414 42.328 47.4494 42.52C47.2681 42.712 47.0441 42.808 46.7774 42.808ZM47.4814 44.232V53H46.0254V44.232H47.4814ZM54.5549 44.072C55.6216 44.072 56.4856 44.3973 57.1469 45.048C57.8083 45.688 58.1389 46.616 58.1389 47.832V53H56.6989V48.04C56.6989 47.1653 56.4803 46.4987 56.0429 46.04C55.6056 45.5707 55.0083 45.336 54.2509 45.336C53.4829 45.336 52.8696 45.576 52.4109 46.056C51.9629 46.536 51.7389 47.2347 51.7389 48.152V53H50.2829V44.232H51.7389V45.48C52.0269 45.032 52.4163 44.6853 52.9069 44.44C53.4083 44.1947 53.9576 44.072 54.5549 44.072ZM64.4533 44.088C65.2106 44.088 65.872 44.2533 66.4373 44.584C67.0133 44.9147 67.44 45.3307 67.7173 45.832V44.232H69.1893V53.192C69.1893 53.992 69.0186 54.7013 68.6773 55.32C68.336 55.9493 67.8453 56.44 67.2053 56.792C66.576 57.144 65.84 57.32 64.9973 57.32C63.8453 57.32 62.8853 57.048 62.1173 56.504C61.3493 55.96 60.896 55.2187 60.7573 54.28H62.1973C62.3573 54.8133 62.688 55.24 63.1893 55.56C63.6906 55.8907 64.2933 56.056 64.9973 56.056C65.7973 56.056 66.448 55.8053 66.9493 55.304C67.4613 54.8027 67.7173 54.0987 67.7173 53.192V51.352C67.4293 51.864 67.0026 52.2907 66.4373 52.632C65.872 52.9733 65.2106 53.144 64.4533 53.144C63.6746 53.144 62.9653 52.952 62.3253 52.568C61.696 52.184 61.2 51.6453 60.8373 50.952C60.4746 50.2587 60.2933 49.4693 60.2933 48.584C60.2933 47.688 60.4746 46.904 60.8373 46.232C61.2 45.5493 61.696 45.0213 62.3253 44.648C62.9653 44.2747 63.6746 44.088 64.4533 44.088ZM67.7173 48.6C67.7173 47.9387 67.584 47.3627 67.3173 46.872C67.0506 46.3813 66.688 46.008 66.2293 45.752C65.7813 45.4853 65.2853 45.352 64.7413 45.352C64.1973 45.352 63.7013 45.48 63.2533 45.736C62.8053 45.992 62.448 46.3653 62.1813 46.856C61.9146 47.3467 61.7813 47.9227 61.7813 48.584C61.7813 49.256 61.9146 49.8427 62.1813 50.344C62.448 50.8347 62.8053 51.2133 63.2533 51.48C63.7013 51.736 64.1973 51.864 64.7413 51.864C65.2853 51.864 65.7813 51.736 66.2293 51.48C66.688 51.2133 67.0506 50.8347 67.3173 50.344C67.584 49.8427 67.7173 49.2613 67.7173 48.6ZM73.4258 41.16V53H71.9698V41.16H73.4258ZM84.2273 48.28C84.2273 48.5573 84.2113 48.8507 84.1793 49.16H77.1713C77.2246 50.024 77.518 50.7013 78.0513 51.192C78.5953 51.672 79.2513 51.912 80.0193 51.912C80.6486 51.912 81.1713 51.768 81.5873 51.48C82.014 51.1813 82.3126 50.7867 82.4833 50.296H84.0513C83.8166 51.1387 83.3473 51.8267 82.6433 52.36C81.9393 52.8827 81.0646 53.144 80.0193 53.144C79.1873 53.144 78.4406 52.9573 77.7793 52.584C77.1286 52.2107 76.6166 51.6827 76.2433 51C75.87 50.3067 75.6833 49.5067 75.6833 48.6C75.6833 47.6933 75.8646 46.8987 76.2273 46.216C76.59 45.5333 77.0966 45.0107 77.7473 44.648C78.4086 44.2747 79.166 44.088 80.0193 44.088C80.8513 44.088 81.5873 44.2693 82.2273 44.632C82.8673 44.9947 83.358 45.496 83.6993 46.136C84.0513 46.7653 84.2273 47.48 84.2273 48.28ZM82.7233 47.976C82.7233 47.4213 82.6006 46.9467 82.3553 46.552C82.11 46.1467 81.774 45.8427 81.3473 45.64C80.9313 45.4267 80.4673 45.32 79.9553 45.32C79.2193 45.32 78.59 45.5547 78.0673 46.024C77.5553 46.4933 77.262 47.144 77.1873 47.976H82.7233ZM43.4271 67.112C43.4271 68.04 43.1071 68.8133 42.4671 69.432C41.8377 70.04 40.8724 70.344 39.5711 70.344H37.4271V75H35.9711V63.848H39.5711C40.8297 63.848 41.7844 64.152 42.4351 64.76C43.0964 65.368 43.4271 66.152 43.4271 67.112ZM39.5711 69.144C40.3817 69.144 40.9791 68.968 41.3631 68.616C41.7471 68.264 41.9391 67.7627 41.9391 67.112C41.9391 65.736 41.1497 65.048 39.5711 65.048H37.4271V69.144H39.5711ZM47.0127 63.16V75H45.5567V63.16H47.0127ZM49.2702 70.584C49.2702 69.688 49.4515 68.904 49.8142 68.232C50.1769 67.5493 50.6729 67.0213 51.3022 66.648C51.9422 66.2747 52.6515 66.088 53.4302 66.088C54.1982 66.088 54.8649 66.2533 55.4302 66.584C55.9955 66.9147 56.4169 67.3307 56.6942 67.832V66.232H58.1662V75H56.6942V73.368C56.4062 73.88 55.9742 74.3067 55.3982 74.648C54.8329 74.9787 54.1715 75.144 53.4142 75.144C52.6355 75.144 51.9315 74.952 51.3022 74.568C50.6729 74.184 50.1769 73.6453 49.8142 72.952C49.4515 72.2587 49.2702 71.4693 49.2702 70.584ZM56.6942 70.6C56.6942 69.9387 56.5609 69.3627 56.2942 68.872C56.0275 68.3813 55.6649 68.008 55.2062 67.752C54.7582 67.4853 54.2622 67.352 53.7182 67.352C53.1742 67.352 52.6782 67.48 52.2302 67.736C51.7822 67.992 51.4249 68.3653 51.1582 68.856C50.8915 69.3467 50.7582 69.9227 50.7582 70.584C50.7582 71.256 50.8915 71.8427 51.1582 72.344C51.4249 72.8347 51.7822 73.2133 52.2302 73.48C52.6782 73.736 53.1742 73.864 53.7182 73.864C54.2622 73.864 54.7582 73.736 55.2062 73.48C55.6649 73.2133 56.0275 72.8347 56.2942 72.344C56.5609 71.8427 56.6942 71.2613 56.6942 70.6ZM68.4987 66.232L63.2187 79.128H61.7147L63.4427 74.904L59.9067 66.232H61.5227L64.2747 73.336L66.9947 66.232H68.4987ZM78.2823 70.28C78.2823 70.5573 78.2663 70.8507 78.2343 71.16H71.2263C71.2796 72.024 71.573 72.7013 72.1063 73.192C72.6503 73.672 73.3063 73.912 74.0743 73.912C74.7036 73.912 75.2263 73.768 75.6423 73.48C76.069 73.1813 76.3676 72.7867 76.5383 72.296H78.1063C77.8716 73.1387 77.4023 73.8267 76.6983 74.36C75.9943 74.8827 75.1196 75.144 74.0743 75.144C73.2423 75.144 72.4956 74.9573 71.8343 74.584C71.1836 74.2107 70.6716 73.6827 70.2983 73C69.925 72.3067 69.7383 71.5067 69.7383 70.6C69.7383 69.6933 69.9196 68.8987 70.2823 68.216C70.645 67.5333 71.1516 67.0107 71.8023 66.648C72.4636 66.2747 73.221 66.088 74.0743 66.088C74.9063 66.088 75.6423 66.2693 76.2823 66.632C76.9223 66.9947 77.413 67.496 77.7543 68.136C78.1063 68.7653 78.2823 69.48 78.2823 70.28ZM76.7783 69.976C76.7783 69.4213 76.6556 68.9467 76.4103 68.552C76.165 68.1467 75.829 67.8427 75.4023 67.64C74.9863 67.4267 74.5223 67.32 74.0103 67.32C73.2743 67.32 72.645 67.5547 72.1223 68.024C71.6103 68.4933 71.317 69.144 71.2423 69.976H76.7783ZM81.9802 67.656C82.2362 67.1547 82.5989 66.7653 83.0682 66.488C83.5482 66.2107 84.1295 66.072 84.8122 66.072V67.576H84.4282C82.7962 67.576 81.9802 68.4613 81.9802 70.232V75H80.5242V66.232H81.9802V67.656Z" fill="black"/>
</g>
<defs>
<clipPath id="clip0_12_55">
<rect width="120" height="120" fill="white"/>
</clipPath>
</defs>
</svg>
