<svg width="120" height="120" viewBox="0 0 120 120" fill="none" xmlns="http://www.w3.org/2000/svg">
<g clip-path="url(#clip0_2_55)">
<path d="M60 118.125C92.1015 118.125 118.125 92.1015 118.125 60C118.125 27.8984 92.1015 1.875 60 1.875C27.8984 1.875 1.875 27.8984 1.875 60C1.875 92.1015 27.8984 118.125 60 118.125Z" fill="#515262"/>
<path d="M60 117.656C91.8427 117.656 117.656 91.8427 117.656 60C117.656 28.1573 91.8427 2.34375 60 2.34375C28.1573 2.34375 2.34375 28.1573 2.34375 60C2.34375 91.8427 28.1573 117.656 60 117.656Z" fill="#FF6464"/>
<path d="M60 95.3906C79.5457 95.3906 95.3906 79.5457 95.3906 60C95.3906 40.4543 79.5457 24.6094 60 24.6094C40.4543 24.6094 24.6094 40.4543 24.6094 60C24.6094 79.5457 40.4543 95.3906 60 95.3906Z" fill="#EFF2FA"/>
<path d="M22.6474 38.4345L9.65531 30.9335C4.70813 39.484 1.875 49.411 1.875 60H16.875C16.875 52.1435 18.9769 44.7785 22.6474 38.4345Z" fill="#FF6464"/>
<path d="M38.4345 22.6474L30.9335 9.65509C22.1133 14.7588 14.7589 22.1133 9.65533 30.9335L22.6474 38.4345C26.434 31.8902 31.8903 26.434 38.4345 22.6474Z" fill="#EFF2FA"/>
<path d="M60 16.875V1.875C49.4107 1.875 39.484 4.70789 30.9335 9.65531L38.4345 22.6477C44.7785 18.9771 52.1435 16.875 60 16.875Z" fill="#FF6464"/>
<path d="M103.125 60H118.125C118.125 49.411 115.292 39.484 110.345 30.9335L97.3526 38.4345C101.023 44.7785 103.125 52.1435 103.125 60Z" fill="#EFF2FA"/>
<path d="M97.3526 38.4344L110.345 30.9335C105.241 22.1133 97.887 14.7588 89.0665 9.6553L81.5656 22.6474C88.1098 26.434 93.566 31.8902 97.3526 38.4344Z" fill="#FF6464"/>
<path d="M81.5655 22.6474L89.0665 9.65531C80.516 4.70812 70.5891 1.875 60 1.875V16.875C67.8565 16.875 75.2215 18.9771 81.5655 22.6474Z" fill="#EFF2FA"/>
<path d="M16.875 60H1.875C1.875 70.5891 4.70813 80.516 9.65531 89.0667L22.6474 81.5655C18.9769 75.2215 16.875 67.8565 16.875 60Z" fill="#EFF2FA"/>
<path d="M81.5656 97.3526L89.0665 110.345C97.8867 105.241 105.241 97.887 110.345 89.0667L97.3526 81.5656C93.566 88.1098 88.1098 93.566 81.5656 97.3526Z" fill="#EFF2FA"/>
<path d="M22.6474 81.5656L9.65533 89.0667C14.7586 97.887 22.1131 105.241 30.9335 110.345L38.4345 97.3526C31.8903 93.566 26.434 88.1098 22.6474 81.5656Z" fill="#FF6464"/>
<path d="M103.125 60C103.125 67.8565 101.023 75.2215 97.3526 81.5655L110.345 89.0667C115.292 80.516 118.125 70.5891 118.125 60H103.125Z" fill="#FF6464"/>
<path d="M60 103.125V118.125C70.5891 118.125 80.516 115.292 89.0665 110.345L81.5655 97.3526C75.2215 101.023 67.8565 103.125 60 103.125Z" fill="#FF6464"/>
<path d="M38.4345 97.3526L30.9335 110.345C39.484 115.292 49.411 118.125 60 118.125V103.125C52.1435 103.125 44.7785 101.023 38.4345 97.3526Z" fill="#EFF2FA"/>
<path d="M92.7429 46.4794C91.5764 43.6582 89.9986 40.9472 88.0531 38.4221L87.2583 37.3906L92.5988 34.3074L93.2053 35.1146C95.2568 37.8448 96.9368 40.7192 98.1987 43.6571L98.5983 44.5875L93.2398 47.6813L92.7429 46.4794Z" fill="#EFF2FA"/>
<path d="M92.2941 35.7992L88.9556 37.7264C90.9091 40.2621 92.5554 43.0437 93.7959 46.0439L97.151 44.1068C95.8723 41.1289 94.2171 38.3588 92.2941 35.7992Z" fill="#EFF2FA"/>
<path d="M81.578 31.9472C79.0529 30.0017 76.3418 28.4239 73.5207 27.2574L72.3188 26.7605L75.4125 21.402L76.343 21.8016C79.2811 23.0635 82.155 24.7435 84.8855 26.7949L85.6927 27.4015L82.6097 32.742L81.578 31.9472Z" fill="#EFF2FA"/>
<path d="M73.9561 26.2041C76.9564 27.4446 79.7379 29.0906 82.2736 31.0444L84.2009 27.7059C81.6413 25.7829 78.871 24.1277 75.8932 22.8488L73.9561 26.2041Z" fill="#EFF2FA"/>
<path d="M64.6627 24.9145C62.888 24.6806 61.4065 24.5717 60 24.5717C58.5935 24.5717 57.112 24.6806 55.3374 24.9145L54.0485 25.0845V18.8848L55.0533 18.7648C56.869 18.548 58.4871 18.4427 59.9998 18.4427C61.5124 18.4427 63.1306 18.548 64.9463 18.7648L65.951 18.8848V25.0842L64.6627 24.9145Z" fill="#EFF2FA"/>
<path d="M55.1885 19.8966V23.7846C56.7668 23.5765 58.365 23.4321 60 23.4321C61.635 23.4321 63.2332 23.5767 64.8115 23.7846V19.8966C63.2306 19.7079 61.6308 19.5828 60 19.5828C58.3692 19.5828 56.7694 19.7079 55.1885 19.8966Z" fill="#EFF2FA"/>
<path d="M94.9158 65.9515L95.0857 64.6627C95.3196 62.888 95.4284 61.4065 95.4284 60C95.4284 58.5935 95.3194 57.112 95.0857 55.3374L94.9158 54.0485H101.115L101.235 55.0533C101.452 56.869 101.557 58.4869 101.557 59.9998C101.557 61.5131 101.452 63.131 101.235 64.9465L101.115 65.9513H94.9158V65.9515V65.9515Z" fill="#EFF2FA"/>
<path d="M96.5681 60C96.5681 61.6352 96.4235 63.2332 96.2156 64.8117H100.103C100.292 63.2306 100.418 61.631 100.418 60C100.418 58.3692 100.292 56.7694 100.104 55.1885H96.2156C96.4235 56.7668 96.5681 58.3648 96.5681 60Z" fill="#EFF2FA"/>
<path d="M18.885 65.9515L18.765 64.9467C18.5485 63.1313 18.443 61.5134 18.443 60C18.443 58.4871 18.5482 56.8692 18.765 55.0535L18.8848 54.0488H25.0845L24.9146 55.3376C24.6806 57.1123 24.5717 58.5938 24.5717 60.0003C24.5717 61.4067 24.6806 62.8882 24.9146 64.6629L25.0845 65.9517H18.885V65.9515Z" fill="#EFF2FA"/>
<path d="M23.4319 60C23.4319 58.3648 23.5765 56.7668 23.7844 55.1885H19.8966C19.7079 56.7694 19.5828 58.3692 19.5828 60C19.5828 61.631 19.7079 63.2306 19.8968 64.8117H23.7846C23.5765 63.2332 23.4319 61.6352 23.4319 60Z" fill="#EFF2FA"/>
<path d="M34.3071 27.4013L35.1143 26.7947C37.8446 24.7435 40.7187 23.0632 43.6568 21.8013L44.5873 21.4017L47.681 26.7602L46.4792 27.2571C43.658 28.4236 40.947 30.0014 38.4218 31.947L37.3901 32.7417L34.3071 27.4013Z" fill="#EFF2FA"/>
<path d="M37.7265 31.0444C40.2622 29.0909 43.0437 27.4446 46.044 26.2041L44.1069 22.849C41.1289 24.128 38.3588 25.7831 35.7992 27.7062L37.7265 31.0444Z" fill="#EFF2FA"/>
<path d="M87.2583 82.6097L88.0531 81.5782C89.9986 79.0531 91.5764 76.342 92.7429 73.5209L93.2398 72.319L98.5983 75.4127L98.1987 76.3432C96.937 79.2806 95.2571 82.1548 93.2053 84.8855L92.5988 85.6927L87.2583 82.6097Z" fill="#EFF2FA"/>
<path d="M97.1513 75.8935L93.7962 73.9563C92.5556 76.9566 90.9096 79.7379 88.9561 82.2738L92.2943 84.2011C94.2171 81.6413 95.8725 78.8712 97.1513 75.8935Z" fill="#EFF2FA"/>
<path d="M60 101.557C58.4871 101.557 56.8692 101.452 55.0535 101.235L54.0488 101.115V94.916L55.3376 95.086C57.1123 95.3199 58.5938 95.4286 60.0003 95.4286C61.4067 95.4286 62.8882 95.3196 64.6629 95.086L65.9517 94.916V101.115L64.947 101.235C63.1308 101.452 61.5129 101.557 60 101.557Z" fill="#EFF2FA"/>
<path d="M64.8115 100.103V96.2156C63.2332 96.4238 61.635 96.5684 60 96.5684C58.365 96.5684 56.7668 96.4238 55.1885 96.2156V100.104C56.7694 100.292 58.3692 100.418 60 100.418C61.6308 100.418 63.2306 100.292 64.8115 100.103Z" fill="#EFF2FA"/>
<path d="M72.319 93.2395L73.5209 92.7427C76.3421 91.5762 79.0531 89.9984 81.5782 88.0528L82.61 87.2581L85.6929 92.5983L84.8857 93.2049C82.1553 95.2563 79.2811 96.9363 76.3432 98.1982L75.4128 98.5978L72.319 93.2395Z" fill="#EFF2FA"/>
<path d="M82.2736 88.9559C79.7379 90.9094 76.9564 92.5554 73.9561 93.7959L75.8932 97.151C78.871 95.872 81.6413 94.2169 84.2009 92.2936L82.2736 88.9559Z" fill="#EFF2FA"/>
<path d="M43.6571 98.1985C40.7192 96.9366 37.845 95.2566 35.1146 93.2051L34.3074 92.5985L37.3903 87.2583L38.4221 88.0531C40.9472 89.9986 43.6582 91.5764 46.4794 92.7429L47.6813 93.2398L44.5875 98.5983L43.6571 98.1985Z" fill="#EFF2FA"/>
<path d="M46.044 93.7959C43.0437 92.5554 40.2622 90.9094 37.7265 88.9559L35.7992 92.2938C38.3588 94.2171 41.1291 95.8723 44.1069 97.1513L46.044 93.7959Z" fill="#EFF2FA"/>
<path d="M26.7947 84.8855C24.743 82.1548 23.063 79.2806 21.8013 76.3432L21.4017 75.4127L26.7602 72.319L27.2571 73.5209C28.4236 76.342 30.0014 79.0531 31.947 81.5782L32.7417 82.6097L27.4013 85.6927L26.7947 84.8855Z" fill="#EFF2FA"/>
<path d="M31.0442 82.2736C29.0906 79.7379 27.4446 76.9563 26.2041 73.9561L22.849 75.8932C24.1277 78.8709 25.7831 81.641 27.7062 84.2006L31.0442 82.2736Z" fill="#EFF2FA"/>
<path d="M21.402 44.5875L21.8016 43.6571C23.0635 40.7192 24.7435 37.845 26.7949 35.1146L27.4015 34.3074L32.742 37.3906L31.9472 38.4221C30.0017 40.9472 28.4239 43.6582 27.2574 46.4794L26.7605 47.6813L21.402 44.5875Z" fill="#EFF2FA"/>
<path d="M22.8488 44.1066L26.2038 46.0437C27.4444 43.0435 29.0904 40.2619 31.0439 37.7262L27.7057 35.7989C25.7829 38.3588 24.1277 41.1288 22.8488 44.1066Z" fill="#EFF2FA"/>
<path d="M102.427 17.5734C91.0938 6.24094 76.0266 0 60 0C43.9734 0 28.9062 6.24094 17.5734 17.5734C6.2407 28.9059 0 43.9734 0 60C0 76.0266 6.24094 91.0941 17.5734 102.427C28.9062 113.759 43.9734 120 60 120C76.0266 120 91.0938 113.759 102.427 102.427C113.759 91.0941 120 76.0266 120 60C120 43.9734 113.759 28.9062 102.427 17.5734ZM109.615 86.4799L99.8672 80.8523C102.869 75.1359 104.677 68.6995 104.958 61.875H116.216C115.923 70.7454 113.569 79.1018 109.615 86.4799ZM58.125 104.958V116.216C49.2546 115.923 40.8982 113.569 33.5201 109.615L39.1479 99.8672C44.8641 102.869 51.3005 104.677 58.125 104.958ZM61.875 104.958C68.6995 104.677 75.1359 102.869 80.8523 99.8672L86.4802 109.615C79.102 113.569 70.7454 115.924 61.8752 116.216L61.875 104.958ZM60 101.25C37.2546 101.25 18.75 82.7454 18.75 60C18.75 37.2546 37.2546 18.75 60 18.75C82.7454 18.75 101.25 37.2546 101.25 60C101.25 82.7454 82.7454 101.25 60 101.25ZM3.78445 61.875H15.042C15.3232 68.6995 17.1309 75.1359 20.1328 80.8523L10.3852 86.4802C6.43148 79.1018 4.07672 70.7454 3.78445 61.875ZM10.3854 33.5201L20.1328 39.1477C17.1309 44.8641 15.3232 51.3005 15.042 58.125H3.78445C4.07672 49.2546 6.43148 40.8982 10.3854 33.5201ZM61.875 15.042V3.78445C70.7454 4.07648 79.1018 6.43125 86.4799 10.3852L80.8523 20.1328C75.1359 17.1309 68.6995 15.3232 61.875 15.042ZM58.125 15.042C51.3005 15.3232 44.8641 17.1309 39.1477 20.1328L33.5198 10.3852C40.898 6.43125 49.2546 4.07648 58.1248 3.78445L58.125 15.042ZM104.958 58.125C104.677 51.3005 102.869 44.8641 99.8672 39.1477L109.615 33.5198C113.569 40.898 115.924 49.2546 116.216 58.1248L104.958 58.125ZM107.734 30.2761L97.988 35.9027C94.433 30.3183 89.682 25.567 84.0973 22.012L89.7239 12.2665C97.0087 16.8192 103.181 22.9912 107.734 30.2761ZM30.2761 12.2665L35.9027 22.012C30.3183 25.567 25.567 30.318 22.012 35.9027L12.2665 30.2761C16.8192 22.9912 22.9912 16.8192 30.2761 12.2665ZM12.2665 89.7239L22.012 84.0973C25.567 89.6817 30.318 94.433 35.9027 97.988L30.2761 107.734C22.9912 103.181 16.8192 97.0087 12.2665 89.7239ZM89.7239 107.734L84.0973 97.988C89.6817 94.433 94.433 89.682 97.988 84.0973L107.734 89.7239C103.181 97.0087 97.0087 103.181 89.7239 107.734Z" fill="#2D2B29"/>
<path d="M84.8674 37.1815C85.2373 37.5844 85.7424 37.7885 86.2491 37.7885C86.7021 37.7885 87.1566 37.6251 87.5166 37.2949C88.2795 36.5946 88.3301 35.4084 87.6298 34.6455C86.9065 33.8578 86.1406 33.0919 85.3531 32.369C84.5904 31.669 83.4042 31.7196 82.7039 32.4825C82.0036 33.2454 82.0545 34.4313 82.8174 35.1316C83.5263 35.7822 84.2161 36.472 84.8674 37.1815Z" fill="#2D2B29"/>
<path d="M26.25 60C26.25 41.3902 41.3902 26.25 60 26.25C65.5779 26.25 71.104 27.6387 75.9813 30.2658C76.893 30.7568 78.0302 30.416 78.5212 29.5043C79.0123 28.5923 78.6712 27.4554 77.7595 26.9641C72.3377 24.0436 66.1966 22.5 60 22.5C39.3225 22.5 22.5 39.3225 22.5 60C22.5 68.6119 25.492 77.0234 30.9251 83.685C31.2959 84.1395 31.8352 84.375 32.3794 84.375C32.7959 84.375 33.2152 84.2367 33.5632 83.9529C34.3657 83.2985 34.4857 82.1173 33.8313 81.3148C28.9423 75.3206 26.25 67.7508 26.25 60Z" fill="#2D2B29"/>
<path d="M93.0321 42.2335C92.5406 41.3217 91.4037 40.9812 90.4919 41.4724C89.5805 41.9637 89.2397 43.1009 89.7309 44.0124C92.3601 48.8911 93.75 54.4195 93.75 60C93.75 78.6099 78.6098 93.75 60 93.75C52.249 93.75 44.6789 91.0575 38.6845 86.1682C37.8823 85.5138 36.7012 85.6336 36.0464 86.4363C35.392 87.2388 35.5118 88.4199 36.3145 89.0745C42.9762 94.5077 51.3876 97.5 60 97.5C80.6775 97.5 97.5 80.6775 97.5 60C97.5 53.8006 95.955 47.6569 93.0321 42.2335Z" fill="#2D2B29"/>
<path d="M40.5889 66.112C39.8529 66.112 39.1916 65.984 38.6049 65.728C38.0289 65.4613 37.5756 65.0987 37.2449 64.64C36.9143 64.1707 36.7436 63.632 36.7329 63.024H38.2849C38.3383 63.5467 38.5516 63.9893 38.9249 64.352C39.3089 64.704 39.8636 64.88 40.5889 64.88C41.2823 64.88 41.8263 64.7093 42.2209 64.368C42.6263 64.016 42.8289 63.568 42.8289 63.024C42.8289 62.5973 42.7116 62.2507 42.4769 61.984C42.2423 61.7173 41.9489 61.5147 41.5969 61.376C41.2449 61.2373 40.7703 61.088 40.1729 60.928C39.4369 60.736 38.8449 60.544 38.3969 60.352C37.9596 60.16 37.5809 59.8613 37.2609 59.456C36.9516 59.04 36.7969 58.4853 36.7969 57.792C36.7969 57.184 36.9516 56.6453 37.2609 56.176C37.5703 55.7067 38.0023 55.344 38.5569 55.088C39.1223 54.832 39.7676 54.704 40.4929 54.704C41.5383 54.704 42.3916 54.9653 43.0529 55.488C43.7249 56.0107 44.1036 56.704 44.1889 57.568H42.5889C42.5356 57.1413 42.3116 56.768 41.9169 56.448C41.5223 56.1173 40.9996 55.952 40.3489 55.952C39.7409 55.952 39.2449 56.112 38.8609 56.432C38.4769 56.7413 38.2849 57.1787 38.2849 57.744C38.2849 58.1493 38.3969 58.48 38.6209 58.736C38.8556 58.992 39.1383 59.1893 39.4689 59.328C39.8103 59.456 40.2849 59.6053 40.8929 59.776C41.6289 59.9787 42.2209 60.1813 42.6689 60.384C43.1169 60.576 43.5009 60.88 43.8209 61.296C44.1409 61.7013 44.3009 62.256 44.3009 62.96C44.3009 63.504 44.1569 64.016 43.8689 64.496C43.5809 64.976 43.1543 65.3653 42.5889 65.664C42.0236 65.9627 41.3569 66.112 40.5889 66.112ZM48.5396 58.432V63.6C48.5396 64.0267 48.6302 64.3307 48.8116 64.512C48.9929 64.6827 49.3076 64.768 49.7556 64.768H50.8276V66H49.5156C48.7049 66 48.0969 65.8133 47.6916 65.44C47.2862 65.0667 47.0836 64.4533 47.0836 63.6V58.432H45.9476V57.232H47.0836V55.024H48.5396V57.232H50.8276V58.432H48.5396ZM52.3677 61.584C52.3677 60.688 52.549 59.904 52.9117 59.232C53.2744 58.5493 53.7704 58.0213 54.3997 57.648C55.0397 57.2747 55.749 57.088 56.5277 57.088C57.2957 57.088 57.9624 57.2533 58.5277 57.584C59.093 57.9147 59.5144 58.3307 59.7917 58.832V57.232H61.2637V66H59.7917V64.368C59.5037 64.88 59.0717 65.3067 58.4957 65.648C57.9304 65.9787 57.269 66.144 56.5117 66.144C55.733 66.144 55.029 65.952 54.3997 65.568C53.7704 65.184 53.2744 64.6453 52.9117 63.952C52.549 63.2587 52.3677 62.4693 52.3677 61.584ZM59.7917 61.6C59.7917 60.9387 59.6584 60.3627 59.3917 59.872C59.125 59.3813 58.7624 59.008 58.3037 58.752C57.8557 58.4853 57.3597 58.352 56.8157 58.352C56.2717 58.352 55.7757 58.48 55.3277 58.736C54.8797 58.992 54.5224 59.3653 54.2557 59.856C53.989 60.3467 53.8557 60.9227 53.8557 61.584C53.8557 62.256 53.989 62.8427 54.2557 63.344C54.5224 63.8347 54.8797 64.2133 55.3277 64.48C55.7757 64.736 56.2717 64.864 56.8157 64.864C57.3597 64.864 57.8557 64.736 58.3037 64.48C58.7624 64.2133 59.125 63.8347 59.3917 63.344C59.6584 62.8427 59.7917 62.2613 59.7917 61.6ZM68.3162 57.072C69.3829 57.072 70.2469 57.3973 70.9082 58.048C71.5695 58.688 71.9002 59.616 71.9002 60.832V66H70.4602V61.04C70.4602 60.1653 70.2415 59.4987 69.8042 59.04C69.3669 58.5707 68.7695 58.336 68.0122 58.336C67.2442 58.336 66.6309 58.576 66.1722 59.056C65.7242 59.536 65.5002 60.2347 65.5002 61.152V66H64.0442V57.232H65.5002V58.48C65.7882 58.032 66.1775 57.6853 66.6682 57.44C67.1695 57.1947 67.7189 57.072 68.3162 57.072ZM74.0546 61.584C74.0546 60.688 74.2359 59.904 74.5986 59.232C74.9612 58.5493 75.4572 58.0213 76.0866 57.648C76.7266 57.2747 77.4412 57.088 78.2306 57.088C78.9132 57.088 79.5479 57.248 80.1346 57.568C80.7212 57.8773 81.1692 58.288 81.4786 58.8V54.16H82.9506V66H81.4786V64.352C81.1906 64.8747 80.7639 65.3067 80.1986 65.648C79.6332 65.9787 78.9719 66.144 78.2146 66.144C77.4359 66.144 76.7266 65.952 76.0866 65.568C75.4572 65.184 74.9612 64.6453 74.5986 63.952C74.2359 63.2587 74.0546 62.4693 74.0546 61.584ZM81.4786 61.6C81.4786 60.9387 81.3452 60.3627 81.0786 59.872C80.8119 59.3813 80.4492 59.008 79.9906 58.752C79.5426 58.4853 79.0466 58.352 78.5026 58.352C77.9586 58.352 77.4626 58.48 77.0146 58.736C76.5666 58.992 76.2092 59.3653 75.9426 59.856C75.6759 60.3467 75.5426 60.9227 75.5426 61.584C75.5426 62.256 75.6759 62.8427 75.9426 63.344C76.2092 63.8347 76.5666 64.2133 77.0146 64.48C77.4626 64.736 77.9586 64.864 78.5026 64.864C79.0466 64.864 79.5426 64.736 79.9906 64.48C80.4492 64.2133 80.8119 63.8347 81.0786 63.344C81.3452 62.8427 81.4786 62.2613 81.4786 61.6Z" fill="black"/>
</g>
<defs>
<clipPath id="clip0_2_55">
<rect width="120" height="120" fill="white"/>
</clipPath>
</defs>
</svg>
