<svg width="120" height="120" viewBox="0 0 120 120" fill="none" xmlns="http://www.w3.org/2000/svg">
<g clip-path="url(#clip0_4_100)">
<path d="M60 118.125C92.1015 118.125 118.125 92.1015 118.125 60C118.125 27.8984 92.1015 1.875 60 1.875C27.8984 1.875 1.875 27.8984 1.875 60C1.875 92.1015 27.8984 118.125 60 118.125Z" fill="#515262"/>
<path d="M60 117.656C91.8427 117.656 117.656 91.8427 117.656 60C117.656 28.1573 91.8427 2.34375 60 2.34375C28.1573 2.34375 2.34375 28.1573 2.34375 60C2.34375 91.8427 28.1573 117.656 60 117.656Z" fill="#FF6464"/>
<path d="M60 95.3906C79.5457 95.3906 95.3906 79.5457 95.3906 60C95.3906 40.4543 79.5457 24.6094 60 24.6094C40.4543 24.6094 24.6094 40.4543 24.6094 60C24.6094 79.5457 40.4543 95.3906 60 95.3906Z" fill="#EFF2FA"/>
<path d="M22.6474 38.4345L9.65531 30.9335C4.70813 39.484 1.875 49.411 1.875 60H16.875C16.875 52.1435 18.9769 44.7785 22.6474 38.4345Z" fill="#FF6464"/>
<path d="M38.4345 22.6474L30.9335 9.65509C22.1133 14.7588 14.7589 22.1133 9.65533 30.9335L22.6474 38.4345C26.434 31.8902 31.8903 26.434 38.4345 22.6474Z" fill="#EFF2FA"/>
<path d="M60 16.875V1.875C49.4107 1.875 39.484 4.70789 30.9335 9.65531L38.4345 22.6477C44.7785 18.9771 52.1435 16.875 60 16.875Z" fill="#FF6464"/>
<path d="M103.125 60H118.125C118.125 49.411 115.292 39.484 110.345 30.9335L97.3526 38.4345C101.023 44.7785 103.125 52.1435 103.125 60Z" fill="#EFF2FA"/>
<path d="M97.3526 38.4344L110.345 30.9335C105.241 22.1133 97.887 14.7588 89.0665 9.6553L81.5656 22.6474C88.1098 26.434 93.566 31.8902 97.3526 38.4344Z" fill="#FF6464"/>
<path d="M81.5655 22.6474L89.0665 9.65531C80.516 4.70812 70.5891 1.875 60 1.875V16.875C67.8565 16.875 75.2215 18.9771 81.5655 22.6474Z" fill="#EFF2FA"/>
<path d="M16.875 60H1.875C1.875 70.5891 4.70813 80.516 9.65531 89.0667L22.6474 81.5655C18.9769 75.2215 16.875 67.8565 16.875 60Z" fill="#EFF2FA"/>
<path d="M81.5656 97.3526L89.0665 110.345C97.8867 105.241 105.241 97.887 110.345 89.0667L97.3526 81.5656C93.566 88.1098 88.1098 93.566 81.5656 97.3526Z" fill="#EFF2FA"/>
<path d="M22.6474 81.5656L9.65533 89.0667C14.7586 97.887 22.1131 105.241 30.9335 110.345L38.4345 97.3526C31.8903 93.566 26.434 88.1098 22.6474 81.5656Z" fill="#FF6464"/>
<path d="M103.125 60C103.125 67.8565 101.023 75.2215 97.3526 81.5655L110.345 89.0667C115.292 80.516 118.125 70.5891 118.125 60H103.125Z" fill="#FF6464"/>
<path d="M60 103.125V118.125C70.5891 118.125 80.516 115.292 89.0665 110.345L81.5655 97.3526C75.2215 101.023 67.8565 103.125 60 103.125Z" fill="#FF6464"/>
<path d="M38.4345 97.3526L30.9335 110.345C39.484 115.292 49.411 118.125 60 118.125V103.125C52.1435 103.125 44.7785 101.023 38.4345 97.3526Z" fill="#EFF2FA"/>
<path d="M92.7429 46.4794C91.5764 43.6582 89.9986 40.9472 88.0531 38.4221L87.2583 37.3906L92.5988 34.3074L93.2053 35.1146C95.2568 37.8448 96.9368 40.7192 98.1987 43.6571L98.5983 44.5875L93.2398 47.6813L92.7429 46.4794Z" fill="#EFF2FA"/>
<path d="M92.2941 35.7992L88.9556 37.7264C90.9091 40.2621 92.5554 43.0437 93.7959 46.0439L97.151 44.1068C95.8723 41.1289 94.2171 38.3588 92.2941 35.7992Z" fill="#EFF2FA"/>
<path d="M81.578 31.9472C79.0529 30.0017 76.3418 28.4239 73.5207 27.2574L72.3188 26.7605L75.4125 21.402L76.343 21.8016C79.2811 23.0635 82.155 24.7435 84.8855 26.7949L85.6927 27.4015L82.6097 32.742L81.578 31.9472Z" fill="#EFF2FA"/>
<path d="M73.9561 26.2041C76.9564 27.4446 79.7379 29.0906 82.2736 31.0444L84.2009 27.7059C81.6413 25.7829 78.871 24.1277 75.8932 22.8488L73.9561 26.2041Z" fill="#EFF2FA"/>
<path d="M64.6627 24.9145C62.888 24.6806 61.4065 24.5717 60 24.5717C58.5935 24.5717 57.112 24.6806 55.3374 24.9145L54.0485 25.0845V18.8848L55.0533 18.7648C56.869 18.548 58.4871 18.4427 59.9998 18.4427C61.5124 18.4427 63.1306 18.548 64.9463 18.7648L65.951 18.8848V25.0842L64.6627 24.9145Z" fill="#EFF2FA"/>
<path d="M55.1885 19.8966V23.7846C56.7668 23.5765 58.365 23.4321 60 23.4321C61.635 23.4321 63.2332 23.5767 64.8115 23.7846V19.8966C63.2306 19.7079 61.6308 19.5828 60 19.5828C58.3692 19.5828 56.7694 19.7079 55.1885 19.8966Z" fill="#EFF2FA"/>
<path d="M94.9158 65.9515L95.0857 64.6627C95.3196 62.888 95.4284 61.4065 95.4284 60C95.4284 58.5935 95.3194 57.112 95.0857 55.3374L94.9158 54.0485H101.115L101.235 55.0533C101.452 56.869 101.557 58.4869 101.557 59.9998C101.557 61.5131 101.452 63.131 101.235 64.9465L101.115 65.9513H94.9158V65.9515V65.9515Z" fill="#EFF2FA"/>
<path d="M96.5681 60C96.5681 61.6353 96.4235 63.2332 96.2156 64.8117H100.103C100.292 63.2306 100.418 61.631 100.418 60C100.418 58.3692 100.292 56.7694 100.104 55.1885H96.2156C96.4235 56.7668 96.5681 58.3648 96.5681 60Z" fill="#EFF2FA"/>
<path d="M18.885 65.9515L18.765 64.9467C18.5485 63.1313 18.443 61.5134 18.443 60C18.443 58.4871 18.5482 56.8692 18.765 55.0535L18.8848 54.0488H25.0845L24.9146 55.3376C24.6806 57.1123 24.5717 58.5938 24.5717 60.0003C24.5717 61.4067 24.6806 62.8882 24.9146 64.6629L25.0845 65.9517H18.885V65.9515Z" fill="#EFF2FA"/>
<path d="M23.4319 60C23.4319 58.3648 23.5765 56.7668 23.7844 55.1885H19.8966C19.7079 56.7694 19.5828 58.3692 19.5828 60C19.5828 61.631 19.7079 63.2306 19.8968 64.8117H23.7846C23.5765 63.2332 23.4319 61.6353 23.4319 60Z" fill="#EFF2FA"/>
<path d="M34.3071 27.4013L35.1143 26.7947C37.8446 24.7435 40.7187 23.0632 43.6568 21.8013L44.5873 21.4017L47.681 26.7602L46.4792 27.2571C43.658 28.4236 40.947 30.0014 38.4218 31.947L37.3901 32.7417L34.3071 27.4013Z" fill="#EFF2FA"/>
<path d="M37.7265 31.0444C40.2622 29.0909 43.0437 27.4446 46.044 26.2041L44.1069 22.849C41.1289 24.128 38.3588 25.7831 35.7992 27.7062L37.7265 31.0444Z" fill="#EFF2FA"/>
<path d="M87.2583 82.6097L88.0531 81.5782C89.9986 79.0531 91.5764 76.342 92.7429 73.5209L93.2398 72.319L98.5983 75.4127L98.1987 76.3432C96.937 79.2806 95.2571 82.1548 93.2053 84.8855L92.5988 85.6927L87.2583 82.6097Z" fill="#EFF2FA"/>
<path d="M97.1513 75.8935L93.7962 73.9564C92.5556 76.9566 90.9096 79.7379 88.9561 82.2739L92.2943 84.2011C94.2171 81.6413 95.8725 78.8712 97.1513 75.8935Z" fill="#EFF2FA"/>
<path d="M60 101.557C58.4871 101.557 56.8692 101.452 55.0535 101.235L54.0488 101.115V94.916L55.3376 95.086C57.1123 95.3199 58.5938 95.4286 60.0003 95.4286C61.4067 95.4286 62.8882 95.3196 64.6629 95.086L65.9517 94.916V101.115L64.947 101.235C63.1308 101.452 61.5129 101.557 60 101.557Z" fill="#EFF2FA"/>
<path d="M64.8115 100.103V96.2156C63.2332 96.4238 61.635 96.5684 60 96.5684C58.365 96.5684 56.7668 96.4238 55.1885 96.2156V100.104C56.7694 100.292 58.3692 100.418 60 100.418C61.6308 100.418 63.2306 100.292 64.8115 100.103Z" fill="#EFF2FA"/>
<path d="M72.319 93.2395L73.5209 92.7427C76.3421 91.5762 79.0531 89.9984 81.5782 88.0528L82.61 87.2581L85.6929 92.5983L84.8857 93.2049C82.1553 95.2563 79.2811 96.9363 76.3432 98.1982L75.4128 98.5978L72.319 93.2395Z" fill="#EFF2FA"/>
<path d="M82.2736 88.9559C79.7379 90.9094 76.9564 92.5554 73.9561 93.7959L75.8932 97.151C78.871 95.872 81.6413 94.2169 84.2009 92.2936L82.2736 88.9559Z" fill="#EFF2FA"/>
<path d="M43.6571 98.1985C40.7192 96.9366 37.845 95.2566 35.1146 93.2051L34.3074 92.5985L37.3903 87.2583L38.4221 88.0531C40.9472 89.9986 43.6582 91.5764 46.4794 92.7429L47.6813 93.2398L44.5875 98.5983L43.6571 98.1985Z" fill="#EFF2FA"/>
<path d="M46.044 93.7959C43.0437 92.5554 40.2622 90.9094 37.7265 88.9559L35.7992 92.2938C38.3588 94.2171 41.1291 95.8723 44.1069 97.1513L46.044 93.7959Z" fill="#EFF2FA"/>
<path d="M26.7947 84.8855C24.743 82.1548 23.063 79.2806 21.8013 76.3432L21.4017 75.4127L26.7602 72.319L27.2571 73.5209C28.4236 76.342 30.0014 79.0531 31.947 81.5782L32.7417 82.6097L27.4013 85.6927L26.7947 84.8855Z" fill="#EFF2FA"/>
<path d="M31.0442 82.2736C29.0906 79.7379 27.4446 76.9564 26.2041 73.9561L22.849 75.8932C24.1277 78.871 25.7831 81.641 27.7062 84.2007L31.0442 82.2736Z" fill="#EFF2FA"/>
<path d="M21.402 44.5875L21.8016 43.6571C23.0635 40.7192 24.7435 37.845 26.7949 35.1146L27.4015 34.3074L32.742 37.3906L31.9472 38.4221C30.0017 40.9472 28.4239 43.6582 27.2574 46.4794L26.7605 47.6813L21.402 44.5875Z" fill="#EFF2FA"/>
<path d="M22.8488 44.1066L26.2038 46.0437C27.4444 43.0435 29.0904 40.2619 31.0439 37.7262L27.7057 35.7989C25.7829 38.3588 24.1277 41.1288 22.8488 44.1066Z" fill="#EFF2FA"/>
<path d="M102.427 17.5734C91.0938 6.24094 76.0266 0 60 0C43.9734 0 28.9062 6.24094 17.5734 17.5734C6.2407 28.9059 0 43.9734 0 60C0 76.0266 6.24094 91.0941 17.5734 102.427C28.9062 113.759 43.9734 120 60 120C76.0266 120 91.0938 113.759 102.427 102.427C113.759 91.0941 120 76.0266 120 60C120 43.9734 113.759 28.9062 102.427 17.5734ZM109.615 86.4799L99.8672 80.8523C102.869 75.1359 104.677 68.6995 104.958 61.875H116.216C115.923 70.7454 113.569 79.1018 109.615 86.4799ZM58.125 104.958V116.216C49.2546 115.923 40.8982 113.569 33.5201 109.615L39.1479 99.8672C44.8641 102.869 51.3005 104.677 58.125 104.958ZM61.875 104.958C68.6995 104.677 75.1359 102.869 80.8523 99.8672L86.4802 109.615C79.102 113.569 70.7454 115.924 61.8752 116.216L61.875 104.958ZM60 101.25C37.2546 101.25 18.75 82.7454 18.75 60C18.75 37.2546 37.2546 18.75 60 18.75C82.7454 18.75 101.25 37.2546 101.25 60C101.25 82.7454 82.7454 101.25 60 101.25ZM3.78445 61.875H15.042C15.3232 68.6995 17.1309 75.1359 20.1328 80.8523L10.3852 86.4802C6.43148 79.1018 4.07672 70.7454 3.78445 61.875ZM10.3854 33.5201L20.1328 39.1477C17.1309 44.8641 15.3232 51.3005 15.042 58.125H3.78445C4.07672 49.2546 6.43148 40.8982 10.3854 33.5201ZM61.875 15.042V3.78445C70.7454 4.07648 79.1018 6.43125 86.4799 10.3852L80.8523 20.1328C75.1359 17.1309 68.6995 15.3232 61.875 15.042ZM58.125 15.042C51.3005 15.3232 44.8641 17.1309 39.1477 20.1328L33.5198 10.3852C40.898 6.43125 49.2546 4.07648 58.1248 3.78445L58.125 15.042ZM104.958 58.125C104.677 51.3005 102.869 44.8641 99.8672 39.1477L109.615 33.5198C113.569 40.898 115.924 49.2546 116.216 58.1248L104.958 58.125ZM107.734 30.2761L97.988 35.9027C94.433 30.3183 89.682 25.567 84.0973 22.012L89.7239 12.2665C97.0087 16.8192 103.181 22.9912 107.734 30.2761ZM30.2761 12.2665L35.9027 22.012C30.3183 25.567 25.567 30.318 22.012 35.9027L12.2665 30.2761C16.8192 22.9912 22.9912 16.8192 30.2761 12.2665ZM12.2665 89.7239L22.012 84.0973C25.567 89.6817 30.318 94.433 35.9027 97.988L30.2761 107.734C22.9912 103.181 16.8192 97.0087 12.2665 89.7239ZM89.7239 107.734L84.0973 97.988C89.6817 94.433 94.433 89.682 97.988 84.0973L107.734 89.7239C103.181 97.0087 97.0087 103.181 89.7239 107.734Z" fill="#2D2B29"/>
<path d="M84.8674 37.1815C85.2373 37.5844 85.7424 37.7885 86.2491 37.7885C86.7021 37.7885 87.1566 37.6251 87.5166 37.2949C88.2795 36.5946 88.3301 35.4084 87.6298 34.6455C86.9065 33.8578 86.1406 33.0919 85.3531 32.369C84.5904 31.669 83.4042 31.7196 82.7039 32.4825C82.0036 33.2454 82.0545 34.4313 82.8174 35.1316C83.5263 35.7822 84.2161 36.472 84.8674 37.1815Z" fill="#2D2B29"/>
<path d="M26.25 60C26.25 41.3902 41.3902 26.25 60 26.25C65.5779 26.25 71.104 27.6387 75.9813 30.2658C76.893 30.7568 78.0302 30.416 78.5212 29.5043C79.0123 28.5923 78.6712 27.4554 77.7595 26.9641C72.3377 24.0436 66.1966 22.5 60 22.5C39.3225 22.5 22.5 39.3225 22.5 60C22.5 68.6119 25.492 77.0234 30.9251 83.685C31.2959 84.1395 31.8352 84.375 32.3794 84.375C32.7959 84.375 33.2152 84.2367 33.5632 83.9529C34.3657 83.2985 34.4857 82.1173 33.8313 81.3148C28.9423 75.3206 26.25 67.7508 26.25 60Z" fill="#2D2B29"/>
<path d="M93.0321 42.2335C92.5406 41.3217 91.4037 40.9812 90.4919 41.4724C89.5805 41.9637 89.2397 43.1009 89.7309 44.0124C92.3601 48.8911 93.75 54.4195 93.75 60C93.75 78.6099 78.6098 93.75 60 93.75C52.249 93.75 44.6789 91.0575 38.6845 86.1682C37.8823 85.5138 36.7012 85.6336 36.0464 86.4363C35.392 87.2388 35.5118 88.4199 36.3145 89.0745C42.9762 94.5077 51.3876 97.5 60 97.5C80.6775 97.5 97.5 80.6775 97.5 60C97.5 53.8006 95.955 47.6569 93.0321 42.2335Z" fill="#2D2B29"/>
<path d="M45.0539 53.112C44.3179 53.112 43.6566 52.984 43.0699 52.728C42.4939 52.4613 42.0406 52.0987 41.7099 51.64C41.3793 51.1707 41.2086 50.632 41.1979 50.024H42.7499C42.8033 50.5467 43.0166 50.9893 43.3899 51.352C43.7739 51.704 44.3286 51.88 45.0539 51.88C45.7473 51.88 46.2913 51.7093 46.6859 51.368C47.0913 51.016 47.2939 50.568 47.2939 50.024C47.2939 49.5973 47.1766 49.2507 46.9419 48.984C46.7073 48.7173 46.4139 48.5147 46.0619 48.376C45.7099 48.2373 45.2353 48.088 44.6379 47.928C43.9019 47.736 43.3099 47.544 42.8619 47.352C42.4246 47.16 42.0459 46.8613 41.7259 46.456C41.4166 46.04 41.2619 45.4853 41.2619 44.792C41.2619 44.184 41.4166 43.6453 41.7259 43.176C42.0353 42.7067 42.4673 42.344 43.0219 42.088C43.5873 41.832 44.2326 41.704 44.9579 41.704C46.0033 41.704 46.8566 41.9653 47.5179 42.488C48.1899 43.0107 48.5686 43.704 48.6539 44.568H47.0539C47.0006 44.1413 46.7766 43.768 46.3819 43.448C45.9873 43.1173 45.4646 42.952 44.8139 42.952C44.2059 42.952 43.7099 43.112 43.3259 43.432C42.9419 43.7413 42.7499 44.1787 42.7499 44.744C42.7499 45.1493 42.8619 45.48 43.0859 45.736C43.3206 45.992 43.6033 46.1893 43.9339 46.328C44.2753 46.456 44.7499 46.6053 45.3579 46.776C46.0939 46.9787 46.6859 47.1813 47.1339 47.384C47.5819 47.576 47.9659 47.88 48.2859 48.296C48.6059 48.7013 48.7659 49.256 48.7659 49.96C48.7659 50.504 48.6219 51.016 48.3339 51.496C48.0459 51.976 47.6193 52.3653 47.0539 52.664C46.4886 52.9627 45.8219 53.112 45.0539 53.112ZM53.0046 45.432V50.6C53.0046 51.0267 53.0952 51.3307 53.2766 51.512C53.4579 51.6827 53.7726 51.768 54.2206 51.768H55.2926V53H53.9806C53.1699 53 52.5619 52.8133 52.1566 52.44C51.7512 52.0667 51.5486 51.4533 51.5486 50.6V45.432H50.4126V44.232H51.5486V42.024H53.0046V44.232H55.2926V45.432H53.0046ZM56.8327 48.584C56.8327 47.688 57.014 46.904 57.3767 46.232C57.7394 45.5493 58.2354 45.0213 58.8647 44.648C59.5047 44.2747 60.214 44.088 60.9927 44.088C61.7607 44.088 62.4274 44.2533 62.9927 44.584C63.558 44.9147 63.9794 45.3307 64.2567 45.832V44.232H65.7287V53H64.2567V51.368C63.9687 51.88 63.5367 52.3067 62.9607 52.648C62.3954 52.9787 61.734 53.144 60.9767 53.144C60.198 53.144 59.494 52.952 58.8647 52.568C58.2354 52.184 57.7394 51.6453 57.3767 50.952C57.014 50.2587 56.8327 49.4693 56.8327 48.584ZM64.2567 48.6C64.2567 47.9387 64.1234 47.3627 63.8567 46.872C63.59 46.3813 63.2274 46.008 62.7687 45.752C62.3207 45.4853 61.8247 45.352 61.2807 45.352C60.7367 45.352 60.2407 45.48 59.7927 45.736C59.3447 45.992 58.9874 46.3653 58.7207 46.856C58.454 47.3467 58.3207 47.9227 58.3207 48.584C58.3207 49.256 58.454 49.8427 58.7207 50.344C58.9874 50.8347 59.3447 51.2133 59.7927 51.48C60.2407 51.736 60.7367 51.864 61.2807 51.864C61.8247 51.864 62.3207 51.736 62.7687 51.48C63.2274 51.2133 63.59 50.8347 63.8567 50.344C64.1234 49.8427 64.2567 49.2613 64.2567 48.6ZM69.9652 45.656C70.2212 45.1547 70.5839 44.7653 71.0532 44.488C71.5332 44.2107 72.1145 44.072 72.7972 44.072V45.576H72.4132C70.7812 45.576 69.9652 46.4613 69.9652 48.232V53H68.5092V44.232H69.9652V45.656ZM76.5739 45.432V50.6C76.5739 51.0267 76.6646 51.3307 76.8459 51.512C77.0273 51.6827 77.3419 51.768 77.7899 51.768H78.8619V53H77.5499C76.7393 53 76.1313 52.8133 75.7259 52.44C75.3206 52.0667 75.1179 51.4533 75.1179 50.6V45.432H73.9819V44.232H75.1179V42.024H76.5739V44.232H78.8619V45.432H76.5739ZM44.3641 67.08C44.0547 66.4293 43.6067 65.928 43.0201 65.576C42.4334 65.2133 41.7507 65.032 40.9721 65.032C40.1934 65.032 39.4894 65.2133 38.8601 65.576C38.2414 65.928 37.7507 66.44 37.3881 67.112C37.0361 67.7733 36.8601 68.5413 36.8601 69.416C36.8601 70.2907 37.0361 71.0587 37.3881 71.72C37.7507 72.3813 38.2414 72.8933 38.8601 73.256C39.4894 73.608 40.1934 73.784 40.9721 73.784C42.0601 73.784 42.9561 73.4587 43.6601 72.808C44.3641 72.1573 44.7747 71.2773 44.8921 70.168H40.4441V68.984H46.4441V70.104C46.3587 71.0213 46.0707 71.864 45.5801 72.632C45.0894 73.3893 44.4441 73.992 43.6441 74.44C42.8441 74.8773 41.9534 75.096 40.9721 75.096C39.9374 75.096 38.9934 74.856 38.1401 74.376C37.2867 73.8853 36.6094 73.208 36.1081 72.344C35.6174 71.48 35.3721 70.504 35.3721 69.416C35.3721 68.328 35.6174 67.352 36.1081 66.488C36.6094 65.6133 37.2867 64.936 38.1401 64.456C38.9934 63.9653 39.9374 63.72 40.9721 63.72C42.1561 63.72 43.2014 64.0133 44.1081 64.6C45.0254 65.1867 45.6921 66.0133 46.1081 67.08H44.3641ZM48.1452 70.584C48.1452 69.688 48.3265 68.904 48.6892 68.232C49.0519 67.5493 49.5479 67.0213 50.1772 66.648C50.8172 66.2747 51.5265 66.088 52.3052 66.088C53.0732 66.088 53.7399 66.2533 54.3052 66.584C54.8705 66.9147 55.2919 67.3307 55.5692 67.832V66.232H57.0412V75H55.5692V73.368C55.2812 73.88 54.8492 74.3067 54.2732 74.648C53.7079 74.9787 53.0465 75.144 52.2892 75.144C51.5105 75.144 50.8065 74.952 50.1772 74.568C49.5479 74.184 49.0519 73.6453 48.6892 72.952C48.3265 72.2587 48.1452 71.4693 48.1452 70.584ZM55.5692 70.6C55.5692 69.9387 55.4359 69.3627 55.1692 68.872C54.9025 68.3813 54.5399 68.008 54.0812 67.752C53.6332 67.4853 53.1372 67.352 52.5932 67.352C52.0492 67.352 51.5532 67.48 51.1052 67.736C50.6572 67.992 50.2999 68.3653 50.0332 68.856C49.7665 69.3467 49.6332 69.9227 49.6332 70.584C49.6332 71.256 49.7665 71.8427 50.0332 72.344C50.2999 72.8347 50.6572 73.2133 51.1052 73.48C51.5532 73.736 52.0492 73.864 52.5932 73.864C53.1372 73.864 53.6332 73.736 54.0812 73.48C54.5399 73.2133 54.9025 72.8347 55.1692 72.344C55.4359 71.8427 55.5692 71.2613 55.5692 70.6ZM70.3657 66.072C71.0484 66.072 71.6564 66.216 72.1897 66.504C72.723 66.7813 73.1444 67.2027 73.4537 67.768C73.763 68.3333 73.9177 69.0213 73.9177 69.832V75H72.4777V70.04C72.4777 69.1653 72.259 68.4987 71.8217 68.04C71.395 67.5707 70.8137 67.336 70.0777 67.336C69.3204 67.336 68.7177 67.5813 68.2697 68.072C67.8217 68.552 67.5977 69.2507 67.5977 70.168V75H66.1577V70.04C66.1577 69.1653 65.939 68.4987 65.5017 68.04C65.075 67.5707 64.4937 67.336 63.7577 67.336C63.0004 67.336 62.3977 67.5813 61.9497 68.072C61.5017 68.552 61.2777 69.2507 61.2777 70.168V75H59.8217V66.232H61.2777V67.496C61.5657 67.0373 61.9497 66.6853 62.4297 66.44C62.9204 66.1947 63.459 66.072 64.0457 66.072C64.7817 66.072 65.4324 66.2373 65.9977 66.568C66.563 66.8987 66.9844 67.384 67.2617 68.024C67.507 67.4053 67.9124 66.9253 68.4777 66.584C69.043 66.2427 69.6724 66.072 70.3657 66.072ZM84.6261 70.28C84.6261 70.5573 84.6101 70.8507 84.5781 71.16H77.5701C77.6234 72.024 77.9167 72.7013 78.4501 73.192C78.9941 73.672 79.6501 73.912 80.4181 73.912C81.0474 73.912 81.5701 73.768 81.9861 73.48C82.4127 73.1813 82.7114 72.7867 82.8821 72.296H84.4501C84.2154 73.1387 83.7461 73.8267 83.0421 74.36C82.3381 74.8827 81.4634 75.144 80.4181 75.144C79.5861 75.144 78.8394 74.9573 78.1781 74.584C77.5274 74.2107 77.0154 73.6827 76.6421 73C76.2687 72.3067 76.0821 71.5067 76.0821 70.6C76.0821 69.6933 76.2634 68.8987 76.6261 68.216C76.9887 67.5333 77.4954 67.0107 78.1461 66.648C78.8074 66.2747 79.5647 66.088 80.4181 66.088C81.2501 66.088 81.9861 66.2693 82.6261 66.632C83.2661 66.9947 83.7567 67.496 84.0981 68.136C84.4501 68.7653 84.6261 69.48 84.6261 70.28ZM83.1221 69.976C83.1221 69.4213 82.9994 68.9467 82.7541 68.552C82.5087 68.1467 82.1727 67.8427 81.7461 67.64C81.3301 67.4267 80.8661 67.32 80.3541 67.32C79.6181 67.32 78.9887 67.5547 78.4661 68.024C77.9541 68.4933 77.6607 69.144 77.5861 69.976H83.1221Z" fill="black"/>
</g>
<defs>
<clipPath id="clip0_4_100">
<rect width="120" height="120" fill="white"/>
</clipPath>
</defs>
</svg>
