<svg width="587" height="155" viewBox="0 0 587 155" fill="none" xmlns="http://www.w3.org/2000/svg">
<path d="M28.3272 68.2238L25.4582 66.6423L23.5651 42.7839L13.9194 60.2813L11.0504 58.6998L23.1814 36.694L26.0504 38.2755L27.9609 62.1024L37.5892 44.6365L40.4582 46.218L28.3272 68.2238Z" fill="white"/>
<path d="M48.6335 78.5741C46.5289 77.5788 44.8397 76.1825 43.5658 74.3854C42.3021 72.5665 41.5759 70.5372 41.3873 68.2976C41.2307 66.0465 41.6757 63.8145 42.7223 61.6015C43.7689 59.3885 45.2067 57.6393 47.0359 56.3539C48.8969 55.0571 50.9262 54.331 53.1236 54.1755C55.3313 53.9983 57.4874 54.4074 59.5919 55.4027C61.7181 56.4082 63.4131 57.8205 64.6768 59.6393C65.9507 61.4365 66.6711 63.4498 66.838 65.6792C67.0049 67.9085 66.56 70.1406 65.5031 72.3753C64.4462 74.6099 63.0033 76.37 61.1741 77.6554C59.345 78.9408 57.3266 79.672 55.1189 79.8492C52.9215 80.0047 50.7597 79.5796 48.6335 78.5741ZM49.8494 76.0031C51.4332 76.7521 53.0287 77.0554 54.6359 76.9128C56.2649 76.7805 57.7605 76.2003 59.1229 75.172C60.507 74.154 61.6249 72.7447 62.4765 70.9439C63.3384 69.1214 63.7186 67.3632 63.6171 65.6692C63.5476 63.9637 63.058 62.4446 62.1485 61.1118C61.239 59.779 59.9815 58.733 58.376 57.9737C56.7705 57.2144 55.1641 56.906 53.5569 57.0486C51.9497 57.1911 50.454 57.7714 49.0699 58.7894C47.7178 59.7959 46.6108 61.2104 45.7489 63.0329C44.8972 64.8337 44.5062 66.5868 44.5757 68.2922C44.667 70.0079 45.1673 71.5322 46.0768 72.865C47.008 74.208 48.2655 75.2541 49.8494 76.0031Z" fill="white"/>
<path d="M115.812 78.6323L107.379 102.074L104.296 100.965L110.585 83.4853L96.5053 98.1617L94.3373 97.3818L92.8126 77.0535L86.5122 94.5667L83.4296 93.4578L91.8626 70.0165L95.1824 71.2108L96.8836 93.7068L112.526 77.4502L115.812 78.6323Z" fill="white"/>
<path d="M129.397 109.003C127.158 108.366 125.263 107.264 123.713 105.7C122.169 104.112 121.12 102.228 120.568 100.05C120.046 97.8546 120.12 95.5798 120.791 93.2255C121.461 90.8712 122.594 88.9105 124.188 87.3434C125.812 85.7598 127.696 84.7117 129.838 84.1991C131.987 83.6634 134.181 83.7145 136.42 84.3524C138.682 84.9969 140.585 86.113 142.129 87.7008C143.68 89.2656 144.719 91.134 145.249 93.3061C145.778 95.4782 145.704 97.753 145.026 100.13C144.349 102.508 143.213 104.48 141.619 106.047C140.024 107.614 138.152 108.666 136.003 109.201C133.861 109.714 131.659 109.648 129.397 109.003ZM130.176 106.268C131.861 106.748 133.485 106.787 135.047 106.383C136.632 105.987 138.013 105.17 139.189 103.932C140.388 102.702 141.261 101.129 141.806 99.213C142.359 97.2742 142.446 95.4774 142.069 93.8228C141.722 92.1516 140.991 90.733 139.876 89.5668C138.76 88.4006 137.349 87.5742 135.641 87.0876C133.933 86.6009 132.298 86.5593 130.735 86.9627C129.173 87.366 127.792 88.183 126.593 89.4135C125.424 90.6276 124.563 92.204 124.011 94.1429C123.465 96.0586 123.365 97.8521 123.713 99.5232C124.083 101.201 124.826 102.623 125.941 103.789C127.08 104.962 128.491 105.788 130.176 106.268Z" fill="white"/>
<path d="M164.353 117.472L160.752 106.157L156.887 105.296L154.655 115.31L151.457 114.597L156.916 90.1065L164.822 91.8687C166.673 92.2812 168.16 92.9447 169.284 93.8591C170.431 94.7788 171.201 95.8479 171.593 97.0664C171.986 98.285 172.028 99.5853 171.72 100.967C171.344 102.654 170.52 104.032 169.249 105.101C168.002 106.175 166.359 106.706 164.321 106.695L168.183 118.326L164.353 117.472ZM157.459 102.731L162.167 103.78C163.9 104.167 165.295 104.035 166.349 103.385C167.409 102.711 168.098 101.66 168.417 100.231C168.741 98.7788 168.558 97.5578 167.869 96.5681C167.203 95.5837 165.992 94.8957 164.235 94.5041L159.526 93.4545L157.459 102.731Z" fill="white"/>
<path d="M185.014 98.6597L183.589 106.926L192.601 108.479L192.142 111.139L183.131 109.587L181.664 118.101L191.739 119.837L191.281 122.498L177.977 120.206L182.244 95.4426L195.548 97.7349L195.089 100.396L185.014 98.6597Z" fill="white"/>
<path d="M216.609 113.365C216.823 110.927 217.565 108.787 218.835 106.947C220.107 105.084 221.735 103.685 223.72 102.751C225.73 101.819 227.894 101.455 230.213 101.658C232.938 101.898 235.259 102.764 237.176 104.257C239.093 105.751 240.412 107.746 241.132 110.242L237.223 109.899C236.662 108.332 235.76 107.084 234.516 106.156C233.296 105.23 231.778 104.687 229.961 104.527C228.216 104.374 226.614 104.643 225.156 105.334C223.698 106.025 222.508 107.089 221.587 108.526C220.668 109.939 220.12 111.65 219.944 113.658C219.77 115.643 220.011 117.422 220.668 118.998C221.327 120.549 222.314 121.793 223.629 122.727C224.944 123.662 226.475 124.206 228.22 124.359C230.037 124.518 231.625 124.26 232.986 123.585C234.372 122.887 235.478 121.816 236.304 120.371L240.213 120.714C239.07 123.023 237.425 124.746 235.278 125.882C233.132 126.995 230.697 127.431 227.971 127.192C225.652 126.988 223.583 126.265 221.765 125.021C219.973 123.755 218.612 122.106 217.682 120.073C216.753 118.04 216.395 115.804 216.609 113.365Z" fill="white"/>
<path d="M264.745 123.35L253.805 123.05L251.637 128.572L248.182 128.477L257.934 103.788L261.713 103.891L270.062 129.078L266.607 128.983L264.745 123.35ZM263.882 120.661L259.695 107.869L254.813 120.412L263.882 120.661Z" fill="white"/>
<path d="M293.088 128.659L286.837 118.564L282.878 118.671L283.155 128.927L279.881 129.016L279.203 103.933L287.3 103.714C289.196 103.663 290.8 103.944 292.113 104.557C293.45 105.169 294.457 106.018 295.135 107.104C295.812 108.19 296.17 109.441 296.208 110.857C296.255 112.584 295.792 114.121 294.82 115.468C293.872 116.814 292.409 117.73 290.429 118.215L297.01 128.553L293.088 128.659ZM282.808 116.044L287.63 115.914C289.405 115.866 290.725 115.398 291.589 114.511C292.453 113.599 292.865 112.411 292.826 110.948C292.785 109.46 292.311 108.321 291.401 107.529C290.515 106.737 289.173 106.365 287.373 106.413L282.551 106.544L282.808 116.044Z" fill="white"/>
<path d="M312.708 102.394C315.435 102.169 317.833 102.489 319.903 103.354C321.995 104.192 323.646 105.513 324.854 107.316C326.086 109.116 326.808 111.296 327.019 113.856C327.231 116.415 326.876 118.684 325.956 120.662C325.057 122.615 323.645 124.176 321.719 125.347C319.814 126.491 317.499 127.176 314.772 127.401L306.987 128.044L304.922 103.037L312.708 102.394ZM314.55 124.71C317.779 124.444 320.173 123.391 321.731 121.553C323.287 119.691 323.937 117.217 323.683 114.131C323.426 111.022 322.365 108.665 320.498 107.061C318.656 105.455 316.132 104.785 312.927 105.049L308.406 105.422L310.03 125.084L314.55 124.71Z" fill="white"/>
<path d="M349.561 110.97C349.142 108.558 349.309 106.3 350.064 104.195C350.815 102.067 352.029 100.297 353.708 98.8847C355.411 97.4682 357.409 96.5606 359.703 96.1619C362.398 95.6934 364.864 95.9347 367.1 96.8858C369.336 97.8369 371.122 99.4264 372.46 101.654L368.594 102.326C367.649 100.956 366.457 99.9817 365.016 99.4038C363.6 98.8218 361.993 98.687 360.196 98.9994C358.47 99.2994 356.991 99.9706 355.759 101.013C354.527 102.055 353.651 103.389 353.13 105.014C352.604 106.616 352.514 108.41 352.859 110.396C353.2 112.359 353.891 114.017 354.93 115.371C355.965 116.701 357.238 117.649 358.749 118.215C360.261 118.781 361.879 118.913 363.605 118.613C365.402 118.301 366.871 117.644 368.013 116.641C369.173 115.611 369.967 114.292 370.394 112.683L374.26 112.011C373.749 114.536 372.601 116.623 370.818 118.273C369.03 119.899 366.788 120.947 364.092 121.415C361.799 121.814 359.614 121.646 357.537 120.91C355.48 120.147 353.741 118.903 352.321 117.177C350.9 115.45 349.98 113.381 349.561 110.97Z" fill="white"/>
<path d="M396.634 114.726C394.371 115.27 392.179 115.242 390.06 114.641C387.935 114.017 386.097 112.892 384.545 111.265C383.012 109.61 381.959 107.592 381.386 105.212C380.813 102.832 380.837 100.568 381.455 98.4197C382.092 96.2424 383.217 94.4043 384.831 92.9052C386.44 91.3827 388.376 90.3493 390.639 89.8048C392.926 89.2547 395.132 89.2918 397.257 89.9161C399.376 90.5171 401.2 91.6336 402.728 93.2654C404.256 94.8973 405.309 96.915 405.887 99.3184C406.465 101.722 406.445 103.998 405.826 106.146C405.208 108.294 404.094 110.13 402.485 111.652C400.871 113.151 398.921 114.176 396.634 114.726ZM395.969 111.961C397.672 111.551 399.105 110.787 400.268 109.668C401.454 108.543 402.255 107.153 402.671 105.498C403.111 103.837 403.098 102.038 402.632 100.101C402.16 98.1414 401.354 96.5334 400.213 95.2775C399.089 93.9927 397.755 93.1164 396.211 92.6486C394.667 92.1807 393.031 92.1545 391.304 92.5699C389.578 92.9853 388.133 93.7524 386.97 94.8714C385.808 95.9903 385.007 97.3802 384.567 99.0412C384.145 100.673 384.17 102.469 384.641 104.429C385.107 106.366 385.902 107.977 387.026 109.262C388.173 110.541 389.518 111.414 391.062 111.882C392.63 112.344 394.265 112.371 395.969 111.961Z" fill="white"/>
<path d="M414.326 83.8515L418.975 99.0316C419.628 101.166 420.63 102.591 421.979 103.308C423.35 104.017 424.966 104.087 426.825 103.518C428.66 102.956 429.936 102 430.653 100.651C431.392 99.2952 431.435 97.5501 430.782 95.4159L426.133 80.2358L429.265 79.2765L433.903 94.4222C434.515 96.4187 434.63 98.2284 434.248 99.8512C433.86 101.451 433.079 102.795 431.906 103.882C430.756 104.962 429.332 105.762 427.633 106.282C425.935 106.802 424.296 106.94 422.715 106.696C421.157 106.445 419.77 105.766 418.552 104.658C417.35 103.52 416.443 101.953 415.832 99.9565L411.194 84.8107L414.326 83.8515Z" fill="white"/>
<path d="M465.826 92.8118L462.755 93.9517L443.45 79.8053L450.402 98.5366L447.331 99.6766L438.587 76.1189L441.658 74.979L460.951 89.0917L454.011 70.3941L457.082 69.2542L465.826 92.8118Z" fill="white"/>
<path d="M480.569 59.3434L481.628 61.7878L475.352 64.5072L484.269 85.0865L481.263 86.389L472.346 65.8097L466.037 68.5434L464.978 66.099L480.569 59.3434Z" fill="white"/>
<path d="M491.395 54.2114L502.221 76.8478L499.266 78.2613L488.44 55.6249L491.395 54.2114Z" fill="white"/>
<path d="M529.379 62.8694L526.487 64.4085L505.469 52.9607L514.855 70.5985L511.963 72.1376L500.158 49.9552L503.05 48.4162L524.051 59.8322L514.682 42.2261L517.574 40.6871L529.379 62.8694Z" fill="white"/>
<path d="M546.18 32.1224C544.82 31.2396 543.371 30.8065 541.832 30.8229C540.28 30.819 538.757 31.2757 537.265 32.1931C535.772 33.1105 534.636 34.2876 533.857 35.7242C533.086 37.1279 532.749 38.6874 532.845 40.4028C532.95 42.0852 533.517 43.7647 534.548 45.4413C535.578 47.118 536.821 48.3828 538.275 49.2357C539.749 50.0761 541.293 50.4795 542.906 50.4457C544.527 50.379 546.084 49.8869 547.576 48.9695C549.662 47.6876 550.996 46.0084 551.579 43.9317C552.162 41.855 551.912 39.6843 550.83 37.4196L542.304 42.6602L540.909 40.3906L552.41 33.3215L553.73 35.4684C554.647 37.3273 555.088 39.2819 555.052 41.3322C555.004 43.362 554.477 45.2775 553.471 47.0789C552.453 48.8597 551.003 50.3282 549.122 51.4844C547.139 52.7035 545.047 53.3556 542.845 53.4409C540.631 53.5058 538.535 53.0054 536.556 51.9399C534.598 50.8619 532.977 49.28 531.696 47.1945C530.414 45.1089 529.734 42.949 529.657 40.7148C529.587 38.4475 530.087 36.3511 531.158 34.4256C532.215 32.4797 533.736 30.8972 535.719 29.6782C537.989 28.2832 540.338 27.6139 542.767 27.6702C545.217 27.714 547.469 28.5131 549.523 30.0677L546.18 32.1224Z" fill="white"/>
<path d="M557.486 15.8823L567.306 30.9733L565.046 32.5155L554.572 17.8711L557.486 15.8823ZM570.414 37.6995C569.899 38.0513 569.341 38.1705 568.741 38.0572C568.14 37.9439 567.664 37.6295 567.312 37.1141C566.961 36.5987 566.841 36.0408 566.955 35.4405C567.068 34.8401 567.382 34.3641 567.898 34.0123C568.393 33.6741 568.932 33.5684 569.512 33.6953C570.112 33.8086 570.588 34.1229 570.94 34.6383C571.292 35.1538 571.411 35.7116 571.298 36.312C571.204 36.8988 570.91 37.3613 570.414 37.6995Z" fill="white"/>
</svg>
