<svg width="120" height="120" viewBox="0 0 120 120" fill="none" xmlns="http://www.w3.org/2000/svg">
<g clip-path="url(#clip0_2_153)">
<path d="M60 118.125C92.1015 118.125 118.125 92.1015 118.125 60C118.125 27.8984 92.1015 1.875 60 1.875C27.8984 1.875 1.875 27.8984 1.875 60C1.875 92.1015 27.8984 118.125 60 118.125Z" fill="#515262"/>
<path d="M60 117.656C91.8427 117.656 117.656 91.8427 117.656 60C117.656 28.1573 91.8427 2.34375 60 2.34375C28.1573 2.34375 2.34375 28.1573 2.34375 60C2.34375 91.8427 28.1573 117.656 60 117.656Z" fill="#FF6464"/>
<path d="M60 95.3906C79.5457 95.3906 95.3906 79.5457 95.3906 60C95.3906 40.4543 79.5457 24.6094 60 24.6094C40.4543 24.6094 24.6094 40.4543 24.6094 60C24.6094 79.5457 40.4543 95.3906 60 95.3906Z" fill="#EFF2FA"/>
<path d="M22.6474 38.4345L9.65531 30.9335C4.70813 39.484 1.875 49.411 1.875 60H16.875C16.875 52.1435 18.9769 44.7785 22.6474 38.4345Z" fill="#FF6464"/>
<path d="M38.4345 22.6474L30.9335 9.65509C22.1133 14.7588 14.7589 22.1133 9.65533 30.9335L22.6474 38.4345C26.434 31.8902 31.8903 26.434 38.4345 22.6474Z" fill="#EFF2FA"/>
<path d="M60 16.875V1.875C49.4107 1.875 39.484 4.70789 30.9335 9.65531L38.4345 22.6477C44.7785 18.9771 52.1435 16.875 60 16.875Z" fill="#FF6464"/>
<path d="M103.125 60H118.125C118.125 49.411 115.292 39.484 110.345 30.9335L97.3526 38.4345C101.023 44.7785 103.125 52.1435 103.125 60Z" fill="#EFF2FA"/>
<path d="M97.3526 38.4344L110.345 30.9335C105.241 22.1133 97.887 14.7588 89.0665 9.6553L81.5656 22.6474C88.1098 26.434 93.566 31.8902 97.3526 38.4344Z" fill="#FF6464"/>
<path d="M81.5655 22.6474L89.0665 9.65531C80.516 4.70812 70.5891 1.875 60 1.875V16.875C67.8565 16.875 75.2215 18.9771 81.5655 22.6474Z" fill="#EFF2FA"/>
<path d="M16.875 60H1.875C1.875 70.5891 4.70813 80.516 9.65531 89.0667L22.6474 81.5655C18.9769 75.2215 16.875 67.8565 16.875 60Z" fill="#EFF2FA"/>
<path d="M81.5656 97.3526L89.0665 110.345C97.8867 105.241 105.241 97.887 110.345 89.0667L97.3526 81.5656C93.566 88.1098 88.1098 93.566 81.5656 97.3526Z" fill="#EFF2FA"/>
<path d="M22.6474 81.5656L9.65533 89.0667C14.7586 97.887 22.1131 105.241 30.9335 110.345L38.4345 97.3526C31.8903 93.566 26.434 88.1098 22.6474 81.5656Z" fill="#FF6464"/>
<path d="M103.125 60C103.125 67.8565 101.023 75.2215 97.3526 81.5655L110.345 89.0667C115.292 80.516 118.125 70.5891 118.125 60H103.125Z" fill="#FF6464"/>
<path d="M60 103.125V118.125C70.5891 118.125 80.516 115.292 89.0665 110.345L81.5655 97.3526C75.2215 101.023 67.8565 103.125 60 103.125Z" fill="#FF6464"/>
<path d="M38.4345 97.3526L30.9335 110.345C39.484 115.292 49.411 118.125 60 118.125V103.125C52.1435 103.125 44.7785 101.023 38.4345 97.3526Z" fill="#EFF2FA"/>
<path d="M92.7429 46.4794C91.5764 43.6582 89.9986 40.9472 88.0531 38.4221L87.2583 37.3906L92.5988 34.3074L93.2053 35.1146C95.2568 37.8448 96.9368 40.7192 98.1987 43.6571L98.5983 44.5875L93.2398 47.6813L92.7429 46.4794Z" fill="#EFF2FA"/>
<path d="M92.2941 35.7992L88.9556 37.7264C90.9091 40.2621 92.5554 43.0437 93.7959 46.0439L97.151 44.1068C95.8723 41.1289 94.2171 38.3588 92.2941 35.7992Z" fill="#EFF2FA"/>
<path d="M81.578 31.9472C79.0529 30.0017 76.3418 28.4239 73.5207 27.2574L72.3188 26.7605L75.4125 21.402L76.343 21.8016C79.2811 23.0635 82.155 24.7435 84.8855 26.7949L85.6927 27.4015L82.6097 32.742L81.578 31.9472Z" fill="#EFF2FA"/>
<path d="M73.9561 26.2041C76.9564 27.4446 79.7379 29.0906 82.2736 31.0444L84.2009 27.7059C81.6413 25.7829 78.871 24.1277 75.8932 22.8488L73.9561 26.2041Z" fill="#EFF2FA"/>
<path d="M64.6627 24.9145C62.888 24.6806 61.4065 24.5717 60 24.5717C58.5935 24.5717 57.112 24.6806 55.3374 24.9145L54.0485 25.0845V18.8848L55.0533 18.7648C56.869 18.548 58.4871 18.4427 59.9998 18.4427C61.5124 18.4427 63.1306 18.548 64.9463 18.7648L65.951 18.8848V25.0842L64.6627 24.9145Z" fill="#EFF2FA"/>
<path d="M55.1885 19.8966V23.7846C56.7668 23.5765 58.365 23.4321 60 23.4321C61.635 23.4321 63.2332 23.5767 64.8115 23.7846V19.8966C63.2306 19.7079 61.6308 19.5828 60 19.5828C58.3692 19.5828 56.7694 19.7079 55.1885 19.8966Z" fill="#EFF2FA"/>
<path d="M94.9158 65.9515L95.0857 64.6627C95.3196 62.888 95.4284 61.4065 95.4284 60C95.4284 58.5935 95.3194 57.112 95.0857 55.3374L94.9158 54.0485H101.115L101.235 55.0533C101.452 56.869 101.557 58.4869 101.557 59.9998C101.557 61.5131 101.452 63.131 101.235 64.9465L101.115 65.9513H94.9158V65.9515V65.9515Z" fill="#EFF2FA"/>
<path d="M96.5681 60C96.5681 61.6353 96.4235 63.2332 96.2156 64.8117H100.103C100.292 63.2306 100.418 61.631 100.418 60C100.418 58.3692 100.292 56.7694 100.104 55.1885H96.2156C96.4235 56.7668 96.5681 58.3648 96.5681 60Z" fill="#EFF2FA"/>
<path d="M18.885 65.9515L18.765 64.9467C18.5485 63.1313 18.443 61.5134 18.443 60C18.443 58.4871 18.5482 56.8692 18.765 55.0535L18.8848 54.0488H25.0845L24.9146 55.3376C24.6806 57.1123 24.5717 58.5938 24.5717 60.0003C24.5717 61.4067 24.6806 62.8882 24.9146 64.6629L25.0845 65.9517H18.885V65.9515Z" fill="#EFF2FA"/>
<path d="M23.4319 60C23.4319 58.3648 23.5765 56.7668 23.7844 55.1885H19.8966C19.7079 56.7694 19.5828 58.3692 19.5828 60C19.5828 61.631 19.7079 63.2306 19.8968 64.8117H23.7846C23.5765 63.2332 23.4319 61.6353 23.4319 60Z" fill="#EFF2FA"/>
<path d="M34.3071 27.4013L35.1143 26.7947C37.8446 24.7435 40.7187 23.0632 43.6568 21.8013L44.5873 21.4017L47.681 26.7602L46.4792 27.2571C43.658 28.4236 40.947 30.0014 38.4218 31.947L37.3901 32.7417L34.3071 27.4013Z" fill="#EFF2FA"/>
<path d="M37.7265 31.0444C40.2622 29.0909 43.0437 27.4446 46.044 26.2041L44.1069 22.849C41.1289 24.128 38.3588 25.7831 35.7992 27.7062L37.7265 31.0444Z" fill="#EFF2FA"/>
<path d="M87.2583 82.6097L88.0531 81.5782C89.9986 79.0531 91.5764 76.342 92.7429 73.5209L93.2398 72.319L98.5983 75.4127L98.1987 76.3432C96.937 79.2806 95.2571 82.1548 93.2053 84.8855L92.5988 85.6927L87.2583 82.6097Z" fill="#EFF2FA"/>
<path d="M97.1513 75.8935L93.7962 73.9564C92.5556 76.9566 90.9096 79.7379 88.9561 82.2739L92.2943 84.2011C94.2171 81.6413 95.8725 78.8712 97.1513 75.8935Z" fill="#EFF2FA"/>
<path d="M60 101.557C58.4871 101.557 56.8692 101.452 55.0535 101.235L54.0488 101.115V94.916L55.3376 95.086C57.1123 95.3199 58.5938 95.4286 60.0003 95.4286C61.4067 95.4286 62.8882 95.3196 64.6629 95.086L65.9517 94.916V101.115L64.947 101.235C63.1308 101.452 61.5129 101.557 60 101.557Z" fill="#EFF2FA"/>
<path d="M64.8115 100.103V96.2156C63.2332 96.4238 61.635 96.5684 60 96.5684C58.365 96.5684 56.7668 96.4238 55.1885 96.2156V100.104C56.7694 100.292 58.3692 100.418 60 100.418C61.6308 100.418 63.2306 100.292 64.8115 100.103Z" fill="#EFF2FA"/>
<path d="M72.319 93.2395L73.5209 92.7427C76.3421 91.5762 79.0531 89.9984 81.5782 88.0528L82.61 87.2581L85.6929 92.5983L84.8857 93.2049C82.1553 95.2563 79.2811 96.9363 76.3432 98.1982L75.4128 98.5978L72.319 93.2395Z" fill="#EFF2FA"/>
<path d="M82.2736 88.9559C79.7379 90.9094 76.9564 92.5554 73.9561 93.7959L75.8932 97.151C78.871 95.872 81.6413 94.2169 84.2009 92.2936L82.2736 88.9559Z" fill="#EFF2FA"/>
<path d="M43.6571 98.1985C40.7192 96.9366 37.845 95.2566 35.1146 93.2051L34.3074 92.5985L37.3903 87.2583L38.4221 88.0531C40.9472 89.9986 43.6582 91.5764 46.4794 92.7429L47.6813 93.2398L44.5875 98.5983L43.6571 98.1985Z" fill="#EFF2FA"/>
<path d="M46.044 93.7959C43.0437 92.5554 40.2622 90.9094 37.7265 88.9559L35.7992 92.2938C38.3588 94.2171 41.1291 95.8723 44.1069 97.1513L46.044 93.7959Z" fill="#EFF2FA"/>
<path d="M26.7947 84.8855C24.743 82.1548 23.063 79.2806 21.8013 76.3432L21.4017 75.4127L26.7602 72.319L27.2571 73.5209C28.4236 76.342 30.0014 79.0531 31.947 81.5782L32.7417 82.6097L27.4013 85.6927L26.7947 84.8855Z" fill="#EFF2FA"/>
<path d="M31.0442 82.2736C29.0906 79.7379 27.4446 76.9564 26.2041 73.9561L22.849 75.8932C24.1277 78.871 25.7831 81.641 27.7062 84.2007L31.0442 82.2736Z" fill="#EFF2FA"/>
<path d="M21.402 44.5875L21.8016 43.6571C23.0635 40.7192 24.7435 37.845 26.7949 35.1146L27.4015 34.3074L32.742 37.3906L31.9472 38.4221C30.0017 40.9472 28.4239 43.6582 27.2574 46.4794L26.7605 47.6813L21.402 44.5875Z" fill="#EFF2FA"/>
<path d="M22.8488 44.1066L26.2038 46.0437C27.4444 43.0435 29.0904 40.2619 31.0439 37.7262L27.7057 35.7989C25.7829 38.3588 24.1277 41.1288 22.8488 44.1066Z" fill="#EFF2FA"/>
<path d="M102.427 17.5734C91.0938 6.24094 76.0266 0 60 0C43.9734 0 28.9062 6.24094 17.5734 17.5734C6.2407 28.9059 0 43.9734 0 60C0 76.0266 6.24094 91.0941 17.5734 102.427C28.9062 113.759 43.9734 120 60 120C76.0266 120 91.0938 113.759 102.427 102.427C113.759 91.0941 120 76.0266 120 60C120 43.9734 113.759 28.9062 102.427 17.5734ZM109.615 86.4799L99.8672 80.8523C102.869 75.1359 104.677 68.6995 104.958 61.875H116.216C115.923 70.7454 113.569 79.1018 109.615 86.4799ZM58.125 104.958V116.216C49.2546 115.923 40.8982 113.569 33.5201 109.615L39.1479 99.8672C44.8641 102.869 51.3005 104.677 58.125 104.958ZM61.875 104.958C68.6995 104.677 75.1359 102.869 80.8523 99.8672L86.4802 109.615C79.102 113.569 70.7454 115.924 61.8752 116.216L61.875 104.958ZM60 101.25C37.2546 101.25 18.75 82.7454 18.75 60C18.75 37.2546 37.2546 18.75 60 18.75C82.7454 18.75 101.25 37.2546 101.25 60C101.25 82.7454 82.7454 101.25 60 101.25ZM3.78445 61.875H15.042C15.3232 68.6995 17.1309 75.1359 20.1328 80.8523L10.3852 86.4802C6.43148 79.1018 4.07672 70.7454 3.78445 61.875ZM10.3854 33.5201L20.1328 39.1477C17.1309 44.8641 15.3232 51.3005 15.042 58.125H3.78445C4.07672 49.2546 6.43148 40.8982 10.3854 33.5201ZM61.875 15.042V3.78445C70.7454 4.07648 79.1018 6.43125 86.4799 10.3852L80.8523 20.1328C75.1359 17.1309 68.6995 15.3232 61.875 15.042ZM58.125 15.042C51.3005 15.3232 44.8641 17.1309 39.1477 20.1328L33.5198 10.3852C40.898 6.43125 49.2546 4.07648 58.1248 3.78445L58.125 15.042ZM104.958 58.125C104.677 51.3005 102.869 44.8641 99.8672 39.1477L109.615 33.5198C113.569 40.898 115.924 49.2546 116.216 58.1248L104.958 58.125ZM107.734 30.2761L97.988 35.9027C94.433 30.3183 89.682 25.567 84.0973 22.012L89.7239 12.2665C97.0087 16.8192 103.181 22.9912 107.734 30.2761ZM30.2761 12.2665L35.9027 22.012C30.3183 25.567 25.567 30.318 22.012 35.9027L12.2665 30.2761C16.8192 22.9912 22.9912 16.8192 30.2761 12.2665ZM12.2665 89.7239L22.012 84.0973C25.567 89.6817 30.318 94.433 35.9027 97.988L30.2761 107.734C22.9912 103.181 16.8192 97.0087 12.2665 89.7239ZM89.7239 107.734L84.0973 97.988C89.6817 94.433 94.433 89.682 97.988 84.0973L107.734 89.7239C103.181 97.0087 97.0087 103.181 89.7239 107.734Z" fill="#2D2B29"/>
<path d="M84.8674 37.1815C85.2373 37.5844 85.7424 37.7885 86.2491 37.7885C86.7021 37.7885 87.1566 37.6251 87.5166 37.2949C88.2795 36.5946 88.3301 35.4084 87.6298 34.6455C86.9065 33.8578 86.1406 33.0919 85.3531 32.369C84.5904 31.669 83.4042 31.7196 82.7039 32.4825C82.0036 33.2454 82.0545 34.4313 82.8174 35.1316C83.5263 35.7822 84.2161 36.472 84.8674 37.1815Z" fill="#2D2B29"/>
<path d="M26.25 60C26.25 41.3902 41.3902 26.25 60 26.25C65.5779 26.25 71.104 27.6387 75.9813 30.2658C76.893 30.7568 78.0302 30.416 78.5212 29.5043C79.0123 28.5923 78.6712 27.4554 77.7595 26.9641C72.3377 24.0436 66.1966 22.5 60 22.5C39.3225 22.5 22.5 39.3225 22.5 60C22.5 68.6119 25.492 77.0234 30.9251 83.685C31.2959 84.1395 31.8352 84.375 32.3794 84.375C32.7959 84.375 33.2152 84.2367 33.5632 83.9529C34.3657 83.2985 34.4857 82.1173 33.8313 81.3148C28.9423 75.3206 26.25 67.7508 26.25 60Z" fill="#2D2B29"/>
<path d="M93.0321 42.2335C92.5406 41.3217 91.4037 40.9812 90.4919 41.4724C89.5805 41.9637 89.2397 43.1009 89.7309 44.0124C92.3601 48.8911 93.75 54.4195 93.75 60C93.75 78.6099 78.6098 93.75 60 93.75C52.249 93.75 44.6789 91.0575 38.6845 86.1682C37.8823 85.5138 36.7012 85.6336 36.0464 86.4363C35.392 87.2388 35.5118 88.4199 36.3145 89.0745C42.9762 94.5077 51.3876 97.5 60 97.5C80.6775 97.5 97.5 80.6775 97.5 60C97.5 53.8006 95.955 47.6569 93.0321 42.2335Z" fill="#2D2B29"/>
<path d="M40.4384 55.242L37.6104 65H36.1824L33.9144 57.146L31.5624 65L30.1484 65.014L27.4184 55.242H28.7764L30.9044 63.516L33.2564 55.242H34.6844L36.9244 63.488L39.0664 55.242H40.4384ZM42.3507 56.082C42.108 56.082 41.9027 55.998 41.7347 55.83C41.5667 55.662 41.4827 55.4567 41.4827 55.214C41.4827 54.9713 41.5667 54.766 41.7347 54.598C41.9027 54.43 42.108 54.346 42.3507 54.346C42.584 54.346 42.78 54.43 42.9387 54.598C43.1067 54.766 43.1907 54.9713 43.1907 55.214C43.1907 55.4567 43.1067 55.662 42.9387 55.83C42.78 55.998 42.584 56.082 42.3507 56.082ZM42.9667 57.328V65H41.6927V57.328H42.9667ZM46.552 58.378V62.9C46.552 63.2733 46.6313 63.5393 46.79 63.698C46.9486 63.8473 47.224 63.922 47.616 63.922H48.554V65H47.406C46.6966 65 46.1646 64.8367 45.81 64.51C45.4553 64.1833 45.278 63.6467 45.278 62.9V58.378H44.284V57.328H45.278V55.396H46.552V57.328H48.554V58.378H46.552ZM53.7656 57.188C54.3442 57.188 54.8669 57.314 55.3336 57.566C55.8002 57.8087 56.1642 58.1773 56.4256 58.672C56.6962 59.1667 56.8316 59.7687 56.8316 60.478V65H55.5716V60.66C55.5716 59.8947 55.3802 59.3113 54.9976 58.91C54.6149 58.4993 54.0922 58.294 53.4296 58.294C52.7576 58.294 52.2209 58.504 51.8196 58.924C51.4276 59.344 51.2316 59.9553 51.2316 60.758V65H49.9576V54.64H51.2316V58.42C51.4836 58.028 51.8289 57.7247 52.2676 57.51C52.7156 57.2953 53.2149 57.188 53.7656 57.188ZM58.2966 61.136C58.2966 60.352 58.4553 59.666 58.7726 59.078C59.09 58.4807 59.524 58.0187 60.0746 57.692C60.6346 57.3653 61.26 57.202 61.9506 57.202C62.548 57.202 63.1033 57.342 63.6166 57.622C64.13 57.8927 64.522 58.252 64.7926 58.7V54.64H66.0806V65H64.7926V63.558C64.5406 64.0153 64.1673 64.3933 63.6726 64.692C63.178 64.9813 62.5993 65.126 61.9366 65.126C61.2553 65.126 60.6346 64.958 60.0746 64.622C59.524 64.286 59.09 63.8147 58.7726 63.208C58.4553 62.6013 58.2966 61.9107 58.2966 61.136ZM64.7926 61.15C64.7926 60.5713 64.676 60.0673 64.4426 59.638C64.2093 59.2087 63.892 58.882 63.4906 58.658C63.0986 58.4247 62.6646 58.308 62.1886 58.308C61.7126 58.308 61.2786 58.42 60.8866 58.644C60.4946 58.868 60.182 59.1947 59.9486 59.624C59.7153 60.0533 59.5986 60.5573 59.5986 61.136C59.5986 61.724 59.7153 62.2373 59.9486 62.676C60.182 63.1053 60.4946 63.4367 60.8866 63.67C61.2786 63.894 61.7126 64.006 62.1886 64.006C62.6646 64.006 63.0986 63.894 63.4906 63.67C63.892 63.4367 64.2093 63.1053 64.4426 62.676C64.676 62.2373 64.7926 61.7287 64.7926 61.15ZM69.3676 58.574C69.5916 58.1353 69.9089 57.7947 70.3196 57.552C70.7396 57.3093 71.2483 57.188 71.8456 57.188V58.504H71.5096C70.0816 58.504 69.3676 59.2787 69.3676 60.828V65H68.0936V57.328H69.3676V58.574ZM72.7002 61.136C72.7002 60.352 72.8589 59.666 73.1762 59.078C73.4936 58.4807 73.9276 58.0187 74.4782 57.692C75.0382 57.3653 75.6589 57.202 76.3402 57.202C77.0122 57.202 77.5956 57.3467 78.0902 57.636C78.5849 57.9253 78.9536 58.2893 79.1962 58.728V57.328H80.4842V65H79.1962V63.572C78.9442 64.02 78.5662 64.3933 78.0622 64.692C77.5676 64.9813 76.9889 65.126 76.3262 65.126C75.6449 65.126 75.0289 64.958 74.4782 64.622C73.9276 64.286 73.4936 63.8147 73.1762 63.208C72.8589 62.6013 72.7002 61.9107 72.7002 61.136ZM79.1962 61.15C79.1962 60.5713 79.0796 60.0673 78.8462 59.638C78.6129 59.2087 78.2956 58.882 77.8942 58.658C77.5022 58.4247 77.0682 58.308 76.5922 58.308C76.1162 58.308 75.6822 58.42 75.2902 58.644C74.8982 58.868 74.5856 59.1947 74.3522 59.624C74.1189 60.0533 74.0022 60.5573 74.0022 61.136C74.0022 61.724 74.1189 62.2373 74.3522 62.676C74.5856 63.1053 74.8982 63.4367 75.2902 63.67C75.6822 63.894 76.1162 64.006 76.5922 64.006C77.0682 64.006 77.5022 63.894 77.8942 63.67C78.2956 63.4367 78.6129 63.1053 78.8462 62.676C79.0796 62.2373 79.1962 61.7287 79.1962 61.15ZM92.7172 57.328L90.3232 65H89.0072L87.1592 58.91L85.3112 65H83.9952L81.5872 57.328H82.8892L84.6532 63.768L86.5572 57.328H87.8592L89.7212 63.782L91.4572 57.328H92.7172Z" fill="black"/>
</g>
<defs>
<clipPath id="clip0_2_153">
<rect width="120" height="120" fill="white"/>
</clipPath>
</defs>
</svg>
