<svg width="348" height="462" viewBox="0 0 348 462" fill="none" xmlns="http://www.w3.org/2000/svg">
<g filter="url(#filter0_d_9_1310)">
<rect x="34" y="29" width="280" height="394" rx="20" fill="#F2F2F2"/>
<rect x="34.5" y="29.5" width="279" height="393" rx="19.5" stroke="#D2D2D2"/>
</g>
<path d="M80.8906 68.0078V125H69.6406V80.9766L56.125 85.2734V76.4062L79.6797 68.0078H80.8906ZM137.687 91.5625V101.406C137.687 105.677 137.232 109.362 136.32 112.461C135.409 115.534 134.094 118.06 132.375 120.039C130.682 121.992 128.664 123.437 126.32 124.375C123.977 125.312 121.372 125.781 118.508 125.781C116.216 125.781 114.081 125.495 112.102 124.922C110.122 124.323 108.339 123.398 106.75 122.148C105.187 120.898 103.833 119.323 102.687 117.422C101.568 115.495 100.708 113.203 100.109 110.547C99.5104 107.891 99.2109 104.844 99.2109 101.406V91.5625C99.2109 87.2917 99.6667 83.6328 100.578 80.5859C101.516 77.513 102.831 75 104.523 73.0469C106.242 71.0937 108.273 69.6615 110.617 68.75C112.961 67.8125 115.565 67.3437 118.43 67.3437C120.721 67.3437 122.844 67.6432 124.797 68.2422C126.776 68.8151 128.56 69.7135 130.148 70.9375C131.737 72.1615 133.091 73.737 134.211 75.6641C135.331 77.5651 136.19 79.8437 136.789 82.5C137.388 85.1302 137.687 88.151 137.687 91.5625ZM126.398 102.891V90.0391C126.398 87.9818 126.281 86.1849 126.047 84.6484C125.839 83.112 125.513 81.8099 125.07 80.7422C124.628 79.6484 124.081 78.763 123.43 78.0859C122.779 77.4089 122.036 76.9141 121.203 76.6016C120.37 76.2891 119.445 76.1328 118.43 76.1328C117.154 76.1328 116.021 76.3802 115.031 76.875C114.068 77.3698 113.247 78.1641 112.57 79.2578C111.893 80.3255 111.372 81.7578 111.008 83.5547C110.669 85.3255 110.5 87.487 110.5 90.0391V102.891C110.5 104.948 110.604 106.758 110.812 108.32C111.047 109.883 111.385 111.224 111.828 112.344C112.297 113.437 112.844 114.336 113.469 115.039C114.12 115.716 114.862 116.211 115.695 116.523C116.555 116.836 117.492 116.992 118.508 116.992C119.758 116.992 120.865 116.745 121.828 116.25C122.818 115.729 123.651 114.922 124.328 113.828C125.031 112.708 125.552 111.25 125.891 109.453C126.229 107.656 126.398 105.469 126.398 102.891Z" fill="#050505"/>
<path fill-rule="evenodd" clip-rule="evenodd" d="M110.755 176.288C109.056 176.288 107.437 176.659 105.961 177.328C107.347 175.139 108.161 172.487 108.161 169.627C108.161 162.122 102.571 156.037 95.6759 156.037C88.7809 156.037 83.1913 162.122 83.1913 169.627C83.1913 172.35 83.93 174.884 85.197 177.01C83.9372 176.545 82.5883 176.288 81.1841 176.288C74.2888 176.288 68.6995 182.373 68.6995 189.878C68.6995 197.383 74.2888 203.467 81.1841 203.467C82.7413 203.467 84.2308 203.154 85.6056 202.587C85.6053 202.59 91.4158 200.882 95.2354 193.315V197.871C95.2354 197.871 93.277 212.234 79.4706 213.806H77.2672V216.044H114.868V213.806H112.665C98.8584 212.234 96.8999 197.871 96.8999 197.871V193.622C97.6113 195.327 101.545 203.665 110.384 203.458C110.508 203.461 110.631 203.467 110.755 203.467C117.651 203.467 123.24 197.383 123.24 189.878C123.24 182.373 117.651 176.288 110.755 176.288Z" fill="#1A1919"/>
<defs>
<filter id="filter0_d_9_1310" x="0" y="0" width="348" height="462" filterUnits="userSpaceOnUse" color-interpolation-filters="sRGB">
<feFlood flood-opacity="0" result="BackgroundImageFix"/>
<feColorMatrix in="SourceAlpha" type="matrix" values="0 0 0 0 0 0 0 0 0 0 0 0 0 0 0 0 0 0 127 0" result="hardAlpha"/>
<feOffset dy="5"/>
<feGaussianBlur stdDeviation="17"/>
<feColorMatrix type="matrix" values="0 0 0 0 0 0 0 0 0 0 0 0 0 0 0 0 0 0 0.1 0"/>
<feBlend mode="normal" in2="BackgroundImageFix" result="effect1_dropShadow_9_1310"/>
<feBlend mode="normal" in="SourceGraphic" in2="effect1_dropShadow_9_1310" result="shape"/>
</filter>
</defs>
</svg>
