<svg width="351" height="464" viewBox="0 0 351 464" fill="none" xmlns="http://www.w3.org/2000/svg">
<g filter="url(#filter0_d_9_1213)">
<rect x="36.1233" y="29" width="280" height="394" rx="20" transform="rotate(0.308765 36.1233 29)" fill="#F2F2F2"/>
<rect x="36.6206" y="29.5027" width="279" height="393" rx="19.5" transform="rotate(0.308765 36.6206 29.5027)" stroke="#D2D2D2"/>
</g>
<path d="M82.8031 68.26L82.496 125.251L71.2461 125.191L71.4834 81.1679L57.9448 85.3919L57.9926 76.5248L81.5922 68.2535L82.8031 68.26ZM139.472 92.1204L139.419 101.964C139.396 106.235 138.921 109.917 137.992 113.011C137.064 116.079 135.736 118.598 134.006 120.568C132.303 122.512 130.277 123.946 127.928 124.871C125.58 125.796 122.973 126.251 120.108 126.235C117.817 126.223 115.683 125.925 113.707 125.341C111.731 124.732 109.952 123.798 108.37 122.539C106.815 121.281 105.469 119.698 104.333 117.791C103.224 115.858 102.377 113.561 101.792 110.902C101.208 108.243 100.925 105.194 100.943 101.757L100.996 91.9131C101.019 87.6423 101.495 83.9859 102.423 80.944C103.377 77.8762 104.705 75.3703 106.408 73.4263C108.138 71.4825 110.177 70.0612 112.525 69.1624C114.874 68.2375 117.481 67.7828 120.345 67.7982C122.637 67.8106 124.758 68.1215 126.707 68.731C128.683 69.3145 130.462 70.2226 132.044 71.4551C133.626 72.6876 134.972 74.2704 136.081 76.2035C137.191 78.1105 138.038 80.3938 138.623 83.0532C139.207 85.6866 139.491 88.709 139.472 92.1204ZM128.122 103.388L128.192 90.5362C128.203 88.4789 128.095 86.6814 127.869 85.1437C127.669 83.6062 127.35 82.3023 126.914 81.2323C126.477 80.1361 125.935 79.2478 125.287 78.5672C124.64 77.8866 123.9 77.3878 123.069 77.0708C122.237 76.7539 121.313 76.5926 120.298 76.5872C119.022 76.5803 117.888 76.8216 116.895 77.311C115.929 77.8006 115.105 78.5905 114.422 79.6805C113.739 80.7446 113.21 82.174 112.836 83.9689C112.488 85.7379 112.307 87.8984 112.293 90.4505L112.224 103.302C112.213 105.359 112.307 107.17 112.507 108.733C112.733 110.297 113.065 111.64 113.501 112.762C113.964 113.858 114.506 114.76 115.127 115.466C115.775 116.147 116.514 116.645 117.346 116.962C118.203 117.28 119.14 117.441 120.156 117.446C121.406 117.453 122.514 117.212 123.48 116.722C124.472 116.207 125.31 115.404 125.993 114.314C126.702 113.198 127.231 111.742 127.579 109.947C127.927 108.152 128.108 105.966 128.122 103.388Z" fill="#F24822"/>
<path fill-rule="evenodd" clip-rule="evenodd" d="M109.757 160.401C99.0668 160.508 96.8761 172.666 96.8761 172.666C96.8761 172.666 94.475 160.483 83.7862 160.261C73.0973 160.039 66.4683 169.377 70.0334 179.264C73.5982 189.151 77.1911 191.391 82.833 198.575C88.4747 205.76 96.6721 218.18 96.6151 221.099C96.5899 218.18 104.578 205.847 110.297 198.723C116.017 191.6 119.633 189.399 123.305 179.552C126.976 169.704 120.448 160.294 109.757 160.401Z" fill="#F24822"/>
<defs>
<filter id="filter0_d_9_1213" x="0.107422" y="0.107422" width="349.904" height="463.288" filterUnits="userSpaceOnUse" color-interpolation-filters="sRGB">
<feFlood flood-opacity="0" result="BackgroundImageFix"/>
<feColorMatrix in="SourceAlpha" type="matrix" values="0 0 0 0 0 0 0 0 0 0 0 0 0 0 0 0 0 0 127 0" result="hardAlpha"/>
<feOffset dy="5"/>
<feGaussianBlur stdDeviation="17"/>
<feColorMatrix type="matrix" values="0 0 0 0 0 0 0 0 0 0 0 0 0 0 0 0 0 0 0.1 0"/>
<feBlend mode="normal" in2="BackgroundImageFix" result="effect1_dropShadow_9_1213"/>
<feBlend mode="normal" in="SourceGraphic" in2="effect1_dropShadow_9_1213" result="shape"/>
</filter>
</defs>
</svg>
