<svg width="348" height="462" viewBox="0 0 348 462" fill="none" xmlns="http://www.w3.org/2000/svg">
<g filter="url(#filter0_d_9_1028)">
<rect x="34" y="29" width="280" height="394" rx="20" fill="#F2F2F2"/>
<rect x="34.5" y="29.5" width="279" height="393" rx="19.5" stroke="#D2D2D2"/>
</g>
<path d="M115.344 116.211V125H76.4375V117.5L94.8359 97.7734C96.6849 95.7161 98.1432 93.9062 99.2109 92.3437C100.279 90.7552 101.047 89.3359 101.516 88.0859C102.01 86.8099 102.258 85.599 102.258 84.4531C102.258 82.7344 101.971 81.263 101.398 80.0391C100.826 78.7891 99.9792 77.8255 98.8594 77.1484C97.7656 76.4714 96.4115 76.1328 94.7969 76.1328C93.0781 76.1328 91.5937 76.5495 90.3437 77.3828C89.1198 78.2161 88.1823 79.375 87.5312 80.8594C86.9062 82.3437 86.5937 84.0234 86.5937 85.8984H75.3047C75.3047 82.513 76.112 79.4141 77.7266 76.6016C79.3411 73.763 81.6198 71.5104 84.5625 69.8437C87.5052 68.151 90.9948 67.3047 95.0312 67.3047C99.0156 67.3047 102.375 67.9557 105.109 69.2578C107.87 70.5339 109.953 72.3828 111.359 74.8047C112.792 77.2005 113.508 80.0651 113.508 83.3984C113.508 85.2734 113.208 87.1094 112.609 88.9062C112.01 90.6771 111.151 92.4479 110.031 94.2187C108.937 95.9635 107.609 97.7344 106.047 99.5312C104.484 101.328 102.753 103.19 100.852 105.117L90.9687 116.211H115.344Z" fill="#F24822"/>
<path fill-rule="evenodd" clip-rule="evenodd" d="M67.2307 185.628L96.5044 215.831L125.778 185.628L96.5044 155.425L67.2307 185.628Z" fill="#F24822"/>
<defs>
<filter id="filter0_d_9_1028" x="0" y="0" width="348" height="462" filterUnits="userSpaceOnUse" color-interpolation-filters="sRGB">
<feFlood flood-opacity="0" result="BackgroundImageFix"/>
<feColorMatrix in="SourceAlpha" type="matrix" values="0 0 0 0 0 0 0 0 0 0 0 0 0 0 0 0 0 0 127 0" result="hardAlpha"/>
<feOffset dy="5"/>
<feGaussianBlur stdDeviation="17"/>
<feColorMatrix type="matrix" values="0 0 0 0 0 0 0 0 0 0 0 0 0 0 0 0 0 0 0.1 0"/>
<feBlend mode="normal" in2="BackgroundImageFix" result="effect1_dropShadow_9_1028"/>
<feBlend mode="normal" in="SourceGraphic" in2="effect1_dropShadow_9_1028" result="shape"/>
</filter>
</defs>
</svg>
