<svg width="351" height="464" viewBox="0 0 351 464" fill="none" xmlns="http://www.w3.org/2000/svg">
<g filter="url(#filter0_d_9_1205)">
<rect x="37" y="29" width="280" height="394" rx="20" transform="rotate(0.308765 37 29)" fill="#F2F2F2"/>
<rect x="37.4973" y="29.5027" width="279" height="393" rx="19.5" transform="rotate(0.308765 37.4973 29.5027)" stroke="#D2D2D2"/>
</g>
<path d="M117.873 116.648L117.825 125.437L78.9195 125.227L78.96 117.727L97.4644 98.1003C99.3245 96.053 100.793 94.251 101.869 92.6943C102.945 91.1115 103.721 89.6964 104.196 88.449C104.698 87.1756 104.952 85.966 104.958 84.8202C104.967 83.1015 104.689 81.6286 104.122 80.4016C103.556 79.1485 102.715 78.1804 101.599 77.4973C100.509 76.8143 99.1566 76.4685 97.542 76.4598C95.8233 76.4505 94.3367 76.8592 93.0822 77.6858C91.8538 78.5125 90.91 79.6663 90.251 81.1471C89.618 82.6281 89.2965 84.3061 89.2864 86.1811L77.9975 86.1202C78.0157 82.7349 78.8397 79.6403 80.4694 76.8366C82.0993 74.0068 84.39 71.7665 87.3417 70.1157C90.2934 68.4389 93.7875 67.6113 97.8239 67.6331C101.808 67.6545 105.164 68.3237 107.891 69.6405C110.645 70.9314 112.718 72.7915 114.111 75.221C115.531 77.6245 116.231 80.4929 116.214 83.8262C116.203 85.7011 115.894 87.5354 115.285 89.329C114.677 91.0966 113.808 92.8628 112.679 94.6276C111.576 96.3664 110.238 98.1301 108.666 99.9185C107.094 101.707 105.352 103.56 103.44 105.476L93.4979 116.517L117.873 116.648Z" fill="#F24822"/>
<path fill-rule="evenodd" clip-rule="evenodd" d="M110.634 160.401C99.9434 160.508 97.7527 172.666 97.7527 172.666C97.7527 172.666 95.3516 160.483 84.6629 160.261C73.9739 160.039 67.3449 169.377 70.91 179.264C74.4748 189.151 78.0677 191.391 83.7097 198.575C89.3513 205.76 97.5487 218.18 97.4917 221.099C97.4665 218.18 105.455 205.847 111.174 198.723C116.893 191.6 120.51 189.399 124.181 179.552C127.852 169.704 121.325 160.294 110.634 160.401Z" fill="#F24822"/>
<defs>
<filter id="filter0_d_9_1205" x="0.984253" y="0.107422" width="349.904" height="463.288" filterUnits="userSpaceOnUse" color-interpolation-filters="sRGB">
<feFlood flood-opacity="0" result="BackgroundImageFix"/>
<feColorMatrix in="SourceAlpha" type="matrix" values="0 0 0 0 0 0 0 0 0 0 0 0 0 0 0 0 0 0 127 0" result="hardAlpha"/>
<feOffset dy="5"/>
<feGaussianBlur stdDeviation="17"/>
<feColorMatrix type="matrix" values="0 0 0 0 0 0 0 0 0 0 0 0 0 0 0 0 0 0 0.1 0"/>
<feBlend mode="normal" in2="BackgroundImageFix" result="effect1_dropShadow_9_1205"/>
<feBlend mode="normal" in="SourceGraphic" in2="effect1_dropShadow_9_1205" result="shape"/>
</filter>
</defs>
</svg>
