<svg width="348" height="462" viewBox="0 0 348 462" fill="none" xmlns="http://www.w3.org/2000/svg">
<g filter="url(#filter0_d_9_1113)">
<rect x="34" y="29" width="280" height="394" rx="20" fill="#F2F2F2"/>
<rect x="34.5" y="29.5" width="279" height="393" rx="19.5" stroke="#D2D2D2"/>
</g>
<path d="M115.344 116.211V125H76.4375V117.5L94.8359 97.7734C96.6849 95.7161 98.1432 93.9062 99.2109 92.3438C100.279 90.7552 101.047 89.3359 101.516 88.0859C102.01 86.8099 102.258 85.599 102.258 84.4531C102.258 82.7344 101.971 81.263 101.398 80.0391C100.826 78.7891 99.9792 77.8255 98.8594 77.1484C97.7656 76.4714 96.4115 76.1328 94.7969 76.1328C93.0781 76.1328 91.5938 76.5495 90.3438 77.3828C89.1198 78.2161 88.1823 79.375 87.5312 80.8594C86.9062 82.3438 86.5938 84.0234 86.5938 85.8984H75.3047C75.3047 82.513 76.112 79.4141 77.7266 76.6016C79.3411 73.763 81.6198 71.5104 84.5625 69.8438C87.5052 68.151 90.9948 67.3047 95.0312 67.3047C99.0156 67.3047 102.375 67.9557 105.109 69.2578C107.87 70.5339 109.953 72.3828 111.359 74.8047C112.792 77.2005 113.508 80.0651 113.508 83.3984C113.508 85.2734 113.208 87.1094 112.609 88.9062C112.01 90.6771 111.151 92.4479 110.031 94.2188C108.938 95.9635 107.609 97.7344 106.047 99.5312C104.484 101.328 102.753 103.19 100.852 105.117L90.9688 116.211H115.344Z" fill="black"/>
<path fill-rule="evenodd" clip-rule="evenodd" d="M109.244 200.984C119.532 201.117 125.862 193.546 122.38 185.577C118.899 177.608 115.428 175.815 109.963 170.037C104.495 164.259 96.5444 154.265 96.5819 151.907C96.6222 154.265 88.999 164.259 83.5312 170.037C78.0661 175.815 74.598 177.608 71.1139 185.577C67.6324 193.546 73.9645 201.117 84.2505 200.984C91.3128 200.893 94.4909 196.233 95.7874 193.32L95.7874 197.133C95.7874 197.133 93.5326 210.886 77.6205 212.392L75.0839 212.392L75.0839 214.535L118.413 214.535L118.413 212.392L115.874 212.392C99.9641 210.886 97.7066 197.133 97.7066 197.133L97.7066 193.821C99.234 196.737 102.573 200.898 109.244 200.984Z" fill="#1A1919"/>
<defs>
<filter id="filter0_d_9_1113" x="0" y="0" width="348" height="462" filterUnits="userSpaceOnUse" color-interpolation-filters="sRGB">
<feFlood flood-opacity="0" result="BackgroundImageFix"/>
<feColorMatrix in="SourceAlpha" type="matrix" values="0 0 0 0 0 0 0 0 0 0 0 0 0 0 0 0 0 0 127 0" result="hardAlpha"/>
<feOffset dy="5"/>
<feGaussianBlur stdDeviation="17"/>
<feColorMatrix type="matrix" values="0 0 0 0 0 0 0 0 0 0 0 0 0 0 0 0 0 0 0.1 0"/>
<feBlend mode="normal" in2="BackgroundImageFix" result="effect1_dropShadow_9_1113"/>
<feBlend mode="normal" in="SourceGraphic" in2="effect1_dropShadow_9_1113" result="shape"/>
</filter>
</defs>
</svg>
