<svg width="348" height="462" viewBox="0 0 348 462" fill="none" xmlns="http://www.w3.org/2000/svg">
<g filter="url(#filter0_d_9_1303)">
<rect x="34" y="29" width="280" height="394" rx="20" fill="#F2F2F2"/>
<rect x="34.5" y="29.5" width="279" height="393" rx="19.5" stroke="#D2D2D2"/>
</g>
<path d="M87.9609 91.6797H93.9766C95.9036 91.6797 97.4922 91.3542 98.7422 90.7031C99.9922 90.026 100.917 89.0885 101.516 87.8906C102.141 86.6667 102.453 85.2474 102.453 83.6328C102.453 82.1745 102.167 80.8854 101.594 79.7656C101.047 78.6198 100.201 77.7344 99.0547 77.1094C97.9089 76.4583 96.4635 76.1328 94.7187 76.1328C93.3385 76.1328 92.0625 76.4062 90.8906 76.9531C89.7187 77.5 88.7812 78.2682 88.0781 79.2578C87.375 80.2474 87.0234 81.4453 87.0234 82.8516H75.7344C75.7344 79.7266 76.5677 77.0052 78.2344 74.6875C79.9271 72.3698 82.1927 70.5599 85.0312 69.2578C87.8698 67.9557 90.9948 67.3047 94.4062 67.3047C98.2604 67.3047 101.633 67.9297 104.523 69.1797C107.414 70.4036 109.667 72.2135 111.281 74.6094C112.896 77.0052 113.703 79.974 113.703 83.5156C113.703 85.3125 113.286 87.0573 112.453 88.75C111.62 90.4167 110.422 91.9271 108.859 93.2812C107.323 94.6094 105.448 95.6771 103.234 96.4844C101.021 97.2656 98.5339 97.6562 95.7734 97.6562H87.9609V91.6797ZM87.9609 100.234V94.4141H95.7734C98.8724 94.4141 101.594 94.7656 103.937 95.4687C106.281 96.1719 108.247 97.1875 109.836 98.5156C111.424 99.8177 112.622 101.367 113.43 103.164C114.237 104.935 114.641 106.901 114.641 109.062C114.641 111.719 114.133 114.089 113.117 116.172C112.102 118.229 110.669 119.974 108.82 121.406C106.997 122.839 104.862 123.932 102.414 124.687C99.9661 125.417 97.2969 125.781 94.4062 125.781C92.0104 125.781 89.6536 125.456 87.3359 124.805C85.0443 124.128 82.9609 123.125 81.0859 121.797C79.237 120.443 77.7526 118.75 76.6328 116.719C75.5391 114.661 74.9922 112.227 74.9922 109.414H86.2812C86.2812 110.872 86.6458 112.174 87.375 113.32C88.1042 114.466 89.1068 115.365 90.3828 116.016C91.6849 116.667 93.1302 116.992 94.7187 116.992C96.5156 116.992 98.0521 116.667 99.3281 116.016C100.63 115.339 101.62 114.401 102.297 113.203C103 111.979 103.352 110.56 103.352 108.945C103.352 106.862 102.974 105.195 102.219 103.945C101.464 102.669 100.383 101.732 98.9766 101.133C97.5703 100.534 95.9036 100.234 93.9766 100.234H87.9609Z" fill="#050505"/>
<path fill-rule="evenodd" clip-rule="evenodd" d="M110.755 176.288C109.056 176.288 107.437 176.659 105.961 177.328C107.347 175.139 108.161 172.487 108.161 169.627C108.161 162.122 102.571 156.037 95.6759 156.037C88.7809 156.037 83.1913 162.122 83.1913 169.627C83.1913 172.35 83.93 174.884 85.197 177.01C83.9372 176.545 82.5883 176.288 81.1841 176.288C74.2888 176.288 68.6995 182.373 68.6995 189.878C68.6995 197.383 74.2888 203.467 81.1841 203.467C82.7413 203.467 84.2308 203.154 85.6056 202.587C85.6053 202.59 91.4158 200.882 95.2354 193.315V197.871C95.2354 197.871 93.277 212.234 79.4706 213.806H77.2672V216.044H114.868V213.806H112.665C98.8584 212.234 96.8999 197.871 96.8999 197.871V193.622C97.6113 195.327 101.545 203.665 110.384 203.458C110.508 203.461 110.631 203.467 110.755 203.467C117.651 203.467 123.24 197.383 123.24 189.878C123.24 182.373 117.651 176.288 110.755 176.288Z" fill="#1A1919"/>
<defs>
<filter id="filter0_d_9_1303" x="0" y="0" width="348" height="462" filterUnits="userSpaceOnUse" color-interpolation-filters="sRGB">
<feFlood flood-opacity="0" result="BackgroundImageFix"/>
<feColorMatrix in="SourceAlpha" type="matrix" values="0 0 0 0 0 0 0 0 0 0 0 0 0 0 0 0 0 0 127 0" result="hardAlpha"/>
<feOffset dy="5"/>
<feGaussianBlur stdDeviation="17"/>
<feColorMatrix type="matrix" values="0 0 0 0 0 0 0 0 0 0 0 0 0 0 0 0 0 0 0.1 0"/>
<feBlend mode="normal" in2="BackgroundImageFix" result="effect1_dropShadow_9_1303"/>
<feBlend mode="normal" in="SourceGraphic" in2="effect1_dropShadow_9_1303" result="shape"/>
</filter>
</defs>
</svg>
