<svg width="348" height="462" viewBox="0 0 348 462" fill="none" xmlns="http://www.w3.org/2000/svg">
<g filter="url(#filter0_d_9_1114)">
<rect x="34" y="29" width="280" height="394" rx="20" fill="#F2F2F2"/>
<rect x="34.5" y="29.5" width="279" height="393" rx="19.5" stroke="#D2D2D2"/>
</g>
<path d="M87.9609 91.6797H93.9766C95.9036 91.6797 97.4922 91.3542 98.7422 90.7031C99.9922 90.026 100.917 89.0885 101.516 87.8906C102.141 86.6667 102.453 85.2474 102.453 83.6328C102.453 82.1745 102.167 80.8854 101.594 79.7656C101.047 78.6198 100.201 77.7344 99.0547 77.1094C97.9089 76.4583 96.4635 76.1328 94.7188 76.1328C93.3385 76.1328 92.0625 76.4062 90.8906 76.9531C89.7188 77.5 88.7812 78.2682 88.0781 79.2578C87.375 80.2474 87.0234 81.4453 87.0234 82.8516H75.7344C75.7344 79.7266 76.5677 77.0052 78.2344 74.6875C79.9271 72.3698 82.1927 70.5599 85.0312 69.2578C87.8698 67.9557 90.9948 67.3047 94.4062 67.3047C98.2604 67.3047 101.633 67.9297 104.523 69.1797C107.414 70.4036 109.667 72.2135 111.281 74.6094C112.896 77.0052 113.703 79.974 113.703 83.5156C113.703 85.3125 113.286 87.0573 112.453 88.75C111.62 90.4167 110.422 91.9271 108.859 93.2812C107.323 94.6094 105.448 95.6771 103.234 96.4844C101.021 97.2656 98.5339 97.6562 95.7734 97.6562H87.9609V91.6797ZM87.9609 100.234V94.4141H95.7734C98.8724 94.4141 101.594 94.7656 103.938 95.4688C106.281 96.1719 108.247 97.1875 109.836 98.5156C111.424 99.8177 112.622 101.367 113.43 103.164C114.237 104.935 114.641 106.901 114.641 109.062C114.641 111.719 114.133 114.089 113.117 116.172C112.102 118.229 110.669 119.974 108.82 121.406C106.997 122.839 104.862 123.932 102.414 124.688C99.9661 125.417 97.2969 125.781 94.4062 125.781C92.0104 125.781 89.6536 125.456 87.3359 124.805C85.0443 124.128 82.9609 123.125 81.0859 121.797C79.237 120.443 77.7526 118.75 76.6328 116.719C75.5391 114.661 74.9922 112.227 74.9922 109.414H86.2812C86.2812 110.872 86.6458 112.174 87.375 113.32C88.1042 114.466 89.1068 115.365 90.3828 116.016C91.6849 116.667 93.1302 116.992 94.7188 116.992C96.5156 116.992 98.0521 116.667 99.3281 116.016C100.63 115.339 101.62 114.401 102.297 113.203C103 111.979 103.352 110.56 103.352 108.945C103.352 106.862 102.974 105.195 102.219 103.945C101.464 102.669 100.383 101.732 98.9766 101.133C97.5703 100.534 95.9036 100.234 93.9766 100.234H87.9609Z" fill="black"/>
<path fill-rule="evenodd" clip-rule="evenodd" d="M109.244 200.984C119.532 201.117 125.862 193.546 122.38 185.577C118.899 177.608 115.428 175.815 109.963 170.037C104.495 164.259 96.5444 154.265 96.582 151.907C96.6222 154.265 88.999 164.259 83.5312 170.037C78.0661 175.815 74.598 177.608 71.1139 185.577C67.6324 193.546 73.9646 201.117 84.2506 200.984C91.3128 200.893 94.491 196.233 95.7874 193.32L95.7874 197.133C95.7874 197.133 93.5327 210.886 77.6205 212.392L75.0839 212.392L75.0839 214.535L118.413 214.535L118.413 212.392L115.874 212.392C99.9641 210.886 97.7067 197.133 97.7067 197.133L97.7067 193.821C99.234 196.737 102.573 200.898 109.244 200.984Z" fill="#1A1919"/>
<defs>
<filter id="filter0_d_9_1114" x="0" y="0" width="348" height="462" filterUnits="userSpaceOnUse" color-interpolation-filters="sRGB">
<feFlood flood-opacity="0" result="BackgroundImageFix"/>
<feColorMatrix in="SourceAlpha" type="matrix" values="0 0 0 0 0 0 0 0 0 0 0 0 0 0 0 0 0 0 127 0" result="hardAlpha"/>
<feOffset dy="5"/>
<feGaussianBlur stdDeviation="17"/>
<feColorMatrix type="matrix" values="0 0 0 0 0 0 0 0 0 0 0 0 0 0 0 0 0 0 0.1 0"/>
<feBlend mode="normal" in2="BackgroundImageFix" result="effect1_dropShadow_9_1114"/>
<feBlend mode="normal" in="SourceGraphic" in2="effect1_dropShadow_9_1114" result="shape"/>
</filter>
</defs>
</svg>
