<svg width="351" height="464" viewBox="0 0 351 464" fill="none" xmlns="http://www.w3.org/2000/svg">
<g filter="url(#filter0_d_9_1207)">
<rect x="36.1233" y="29" width="280" height="394" rx="20" transform="rotate(0.308765 36.1233 29)" fill="#F2F2F2"/>
<rect x="36.6206" y="29.5027" width="279" height="393" rx="19.5" transform="rotate(0.308765 36.6206 29.5027)" stroke="#D2D2D2"/>
</g>
<path d="M118.001 104.192L117.953 113.02L76.977 112.8L76.4669 105.961L100.38 68.4719L109.325 68.5201L99.5507 84.6786L87.6494 104.029L118.001 104.192ZM111.747 68.5332L111.441 125.407L100.191 125.347L100.497 68.4725L111.747 68.5332Z" fill="#F24822"/>
<path fill-rule="evenodd" clip-rule="evenodd" d="M109.757 160.401C99.0667 160.508 96.876 172.666 96.876 172.666C96.876 172.666 94.4748 160.483 83.7861 160.261C73.0971 160.039 66.4682 169.377 70.0332 179.264C73.598 189.151 77.191 191.391 82.8329 198.575C88.4746 205.76 96.6719 218.18 96.615 221.099C96.5898 218.18 104.578 205.847 110.297 198.723C116.016 191.6 119.633 189.399 123.304 179.552C126.976 169.704 120.448 160.294 109.757 160.401Z" fill="#F24822"/>
<defs>
<filter id="filter0_d_9_1207" x="0.107544" y="0.107422" width="349.904" height="463.288" filterUnits="userSpaceOnUse" color-interpolation-filters="sRGB">
<feFlood flood-opacity="0" result="BackgroundImageFix"/>
<feColorMatrix in="SourceAlpha" type="matrix" values="0 0 0 0 0 0 0 0 0 0 0 0 0 0 0 0 0 0 127 0" result="hardAlpha"/>
<feOffset dy="5"/>
<feGaussianBlur stdDeviation="17"/>
<feColorMatrix type="matrix" values="0 0 0 0 0 0 0 0 0 0 0 0 0 0 0 0 0 0 0.1 0"/>
<feBlend mode="normal" in2="BackgroundImageFix" result="effect1_dropShadow_9_1207"/>
<feBlend mode="normal" in="SourceGraphic" in2="effect1_dropShadow_9_1207" result="shape"/>
</filter>
</defs>
</svg>
