<svg width="348" height="462" viewBox="0 0 348 462" fill="none" xmlns="http://www.w3.org/2000/svg">
<g filter="url(#filter0_d_9_1031)">
<rect x="34" y="29" width="280" height="394" rx="20" fill="#F2F2F2"/>
<rect x="34.5" y="29.5" width="279" height="393" rx="19.5" stroke="#D2D2D2"/>
</g>
<path d="M87.0234 99.1016L78.0391 96.9531L81.2812 68.125H113.234V77.2266H90.5391L89.1328 89.8437C89.888 89.401 91.0339 88.9323 92.5703 88.4375C94.1068 87.9167 95.8255 87.6562 97.7266 87.6562C100.487 87.6562 102.935 88.0859 105.07 88.9453C107.206 89.8047 109.016 91.0547 110.5 92.6953C112.01 94.3359 113.156 96.3411 113.937 98.7109C114.719 101.081 115.109 103.763 115.109 106.758C115.109 109.284 114.719 111.693 113.937 113.984C113.156 116.25 111.971 118.281 110.383 120.078C108.794 121.849 106.802 123.242 104.406 124.258C102.01 125.273 99.1719 125.781 95.8906 125.781C93.4427 125.781 91.0729 125.417 88.7812 124.687C86.5156 123.958 84.4714 122.878 82.6484 121.445C80.8516 120.013 79.4062 118.281 78.3125 116.25C77.2448 114.193 76.6849 111.849 76.6328 109.219H87.8047C87.9609 110.833 88.3776 112.227 89.0547 113.398C89.7578 114.544 90.6823 115.43 91.8281 116.055C92.974 116.68 94.3151 116.992 95.8516 116.992C97.2839 116.992 98.5078 116.719 99.5234 116.172C100.539 115.625 101.359 114.87 101.984 113.906C102.609 112.917 103.065 111.771 103.352 110.469C103.664 109.141 103.82 107.708 103.82 106.172C103.82 104.635 103.638 103.242 103.273 101.992C102.909 100.742 102.349 99.6615 101.594 98.75C100.839 97.8385 99.875 97.1354 98.7031 96.6406C97.5573 96.1458 96.2161 95.8984 94.6797 95.8984C92.5964 95.8984 90.9818 96.224 89.8359 96.875C88.7161 97.526 87.7786 98.2682 87.0234 99.1016Z" fill="#F24822"/>
<path fill-rule="evenodd" clip-rule="evenodd" d="M67.2307 185.628L96.5044 215.831L125.778 185.628L96.5044 155.425L67.2307 185.628Z" fill="#F24822"/>
<defs>
<filter id="filter0_d_9_1031" x="0" y="0" width="348" height="462" filterUnits="userSpaceOnUse" color-interpolation-filters="sRGB">
<feFlood flood-opacity="0" result="BackgroundImageFix"/>
<feColorMatrix in="SourceAlpha" type="matrix" values="0 0 0 0 0 0 0 0 0 0 0 0 0 0 0 0 0 0 127 0" result="hardAlpha"/>
<feOffset dy="5"/>
<feGaussianBlur stdDeviation="17"/>
<feColorMatrix type="matrix" values="0 0 0 0 0 0 0 0 0 0 0 0 0 0 0 0 0 0 0.1 0"/>
<feBlend mode="normal" in2="BackgroundImageFix" result="effect1_dropShadow_9_1031"/>
<feBlend mode="normal" in="SourceGraphic" in2="effect1_dropShadow_9_1031" result="shape"/>
</filter>
</defs>
</svg>
