<svg width="348" height="462" viewBox="0 0 348 462" fill="none" xmlns="http://www.w3.org/2000/svg">
<g filter="url(#filter0_d_9_1116)">
<rect x="34" y="29" width="280" height="394" rx="20" fill="#F2F2F2"/>
<rect x="34.5" y="29.5" width="279" height="393" rx="19.5" stroke="#D2D2D2"/>
</g>
<path d="M87.0234 99.1016L78.0391 96.9531L81.2812 68.125H113.234V77.2266H90.5391L89.1328 89.8438C89.888 89.401 91.0339 88.9323 92.5703 88.4375C94.1068 87.9167 95.8255 87.6562 97.7266 87.6562C100.487 87.6562 102.935 88.0859 105.07 88.9453C107.206 89.8047 109.016 91.0547 110.5 92.6953C112.01 94.3359 113.156 96.3411 113.938 98.7109C114.719 101.081 115.109 103.763 115.109 106.758C115.109 109.284 114.719 111.693 113.938 113.984C113.156 116.25 111.971 118.281 110.383 120.078C108.794 121.849 106.802 123.242 104.406 124.258C102.01 125.273 99.1719 125.781 95.8906 125.781C93.4427 125.781 91.0729 125.417 88.7812 124.688C86.5156 123.958 84.4714 122.878 82.6484 121.445C80.8516 120.013 79.4062 118.281 78.3125 116.25C77.2448 114.193 76.6849 111.849 76.6328 109.219H87.8047C87.9609 110.833 88.3776 112.227 89.0547 113.398C89.7578 114.544 90.6823 115.43 91.8281 116.055C92.974 116.68 94.3151 116.992 95.8516 116.992C97.2839 116.992 98.5078 116.719 99.5234 116.172C100.539 115.625 101.359 114.87 101.984 113.906C102.609 112.917 103.065 111.771 103.352 110.469C103.664 109.141 103.82 107.708 103.82 106.172C103.82 104.635 103.638 103.242 103.273 101.992C102.909 100.742 102.349 99.6615 101.594 98.75C100.839 97.8385 99.875 97.1354 98.7031 96.6406C97.5573 96.1458 96.2161 95.8984 94.6797 95.8984C92.5964 95.8984 90.9818 96.224 89.8359 96.875C88.7161 97.526 87.7786 98.2682 87.0234 99.1016Z" fill="black"/>
<path fill-rule="evenodd" clip-rule="evenodd" d="M109.244 200.984C119.532 201.117 125.862 193.546 122.38 185.577C118.899 177.608 115.428 175.815 109.963 170.037C104.495 164.259 96.5444 154.265 96.582 151.907C96.6222 154.265 88.999 164.259 83.5312 170.037C78.0661 175.815 74.598 177.608 71.1139 185.577C67.6324 193.546 73.9646 201.117 84.2506 200.984C91.3128 200.893 94.491 196.233 95.7874 193.32L95.7874 197.133C95.7874 197.133 93.5327 210.886 77.6205 212.392L75.0839 212.392L75.0839 214.535L118.413 214.535L118.413 212.392L115.874 212.392C99.9641 210.886 97.7067 197.133 97.7067 197.133L97.7067 193.821C99.234 196.737 102.573 200.898 109.244 200.984Z" fill="#1A1919"/>
<defs>
<filter id="filter0_d_9_1116" x="0" y="0" width="348" height="462" filterUnits="userSpaceOnUse" color-interpolation-filters="sRGB">
<feFlood flood-opacity="0" result="BackgroundImageFix"/>
<feColorMatrix in="SourceAlpha" type="matrix" values="0 0 0 0 0 0 0 0 0 0 0 0 0 0 0 0 0 0 127 0" result="hardAlpha"/>
<feOffset dy="5"/>
<feGaussianBlur stdDeviation="17"/>
<feColorMatrix type="matrix" values="0 0 0 0 0 0 0 0 0 0 0 0 0 0 0 0 0 0 0.1 0"/>
<feBlend mode="normal" in2="BackgroundImageFix" result="effect1_dropShadow_9_1116"/>
<feBlend mode="normal" in="SourceGraphic" in2="effect1_dropShadow_9_1116" result="shape"/>
</filter>
</defs>
</svg>
