<svg width="348" height="462" viewBox="0 0 348 462" fill="none" xmlns="http://www.w3.org/2000/svg">
<g filter="url(#filter0_d_9_1306)">
<rect x="34" y="29" width="280" height="394" rx="20" fill="#F2F2F2"/>
<rect x="34.5" y="29.5" width="279" height="393" rx="19.5" stroke="#D2D2D2"/>
</g>
<path d="M105.461 67.5391H107.102V76.5234H106.437C103.469 76.5234 100.826 76.9661 98.5078 77.8516C96.1901 78.737 94.224 80 92.6094 81.6406C91.0208 83.2552 89.7969 85.2083 88.9375 87.5C88.1042 89.7917 87.6875 92.3568 87.6875 95.1953V104.648C87.6875 106.68 87.8828 108.477 88.2734 110.039C88.6901 111.576 89.276 112.865 90.0312 113.906C90.8125 114.922 91.724 115.69 92.7656 116.211C93.8073 116.706 94.9792 116.953 96.2812 116.953C97.5052 116.953 98.612 116.693 99.6016 116.172C100.617 115.651 101.477 114.922 102.18 113.984C102.909 113.021 103.456 111.901 103.82 110.625C104.211 109.323 104.406 107.904 104.406 106.367C104.406 104.831 104.211 103.411 103.82 102.109C103.456 100.807 102.909 99.6875 102.18 98.75C101.451 97.7865 100.565 97.0443 99.5234 96.5234C98.4818 96.0026 97.3099 95.7422 96.0078 95.7422C94.237 95.7422 92.6745 96.1589 91.3203 96.9922C89.9922 97.7995 88.9505 98.8411 88.1953 100.117C87.4401 101.393 87.0365 102.734 86.9844 104.141L83.5859 101.953C83.6641 99.9479 84.0807 98.0469 84.8359 96.25C85.6172 94.4531 86.6849 92.8646 88.0391 91.4844C89.4193 90.0781 91.0729 88.9844 93 88.2031C94.9271 87.3958 97.1016 86.9922 99.5234 86.9922C102.18 86.9922 104.51 87.5 106.516 88.5156C108.547 89.5312 110.24 90.9245 111.594 92.6953C112.948 94.4661 113.964 96.5104 114.641 98.8281C115.318 101.146 115.656 103.62 115.656 106.25C115.656 109.01 115.201 111.576 114.289 113.945C113.404 116.315 112.115 118.385 110.422 120.156C108.755 121.927 106.75 123.307 104.406 124.297C102.062 125.286 99.4323 125.781 96.5156 125.781C93.4948 125.781 90.7474 125.234 88.2734 124.141C85.8255 123.021 83.7161 121.458 81.9453 119.453C80.1745 117.448 78.8073 115.065 77.8437 112.305C76.9062 109.544 76.4375 106.523 76.4375 103.242V98.8672C76.4375 94.2839 77.1016 90.0911 78.4297 86.2891C79.7839 82.4609 81.724 79.1536 84.25 76.3672C86.776 73.5547 89.8229 71.3802 93.3906 69.8437C96.9583 68.3073 100.982 67.5391 105.461 67.5391Z" fill="#050505"/>
<path fill-rule="evenodd" clip-rule="evenodd" d="M110.755 176.288C109.056 176.288 107.437 176.659 105.961 177.328C107.347 175.139 108.161 172.487 108.161 169.627C108.161 162.122 102.571 156.037 95.6759 156.037C88.7809 156.037 83.1913 162.122 83.1913 169.627C83.1913 172.35 83.93 174.884 85.197 177.01C83.9372 176.545 82.5883 176.288 81.1841 176.288C74.2888 176.288 68.6995 182.373 68.6995 189.878C68.6995 197.383 74.2888 203.467 81.1841 203.467C82.7413 203.467 84.2308 203.154 85.6056 202.587C85.6053 202.59 91.4158 200.882 95.2354 193.315V197.871C95.2354 197.871 93.277 212.234 79.4706 213.806H77.2672V216.044H114.868V213.806H112.665C98.8584 212.234 96.8999 197.871 96.8999 197.871V193.622C97.6113 195.327 101.545 203.665 110.384 203.458C110.508 203.461 110.631 203.467 110.755 203.467C117.651 203.467 123.24 197.383 123.24 189.878C123.24 182.373 117.651 176.288 110.755 176.288Z" fill="#1A1919"/>
<defs>
<filter id="filter0_d_9_1306" x="0" y="0" width="348" height="462" filterUnits="userSpaceOnUse" color-interpolation-filters="sRGB">
<feFlood flood-opacity="0" result="BackgroundImageFix"/>
<feColorMatrix in="SourceAlpha" type="matrix" values="0 0 0 0 0 0 0 0 0 0 0 0 0 0 0 0 0 0 127 0" result="hardAlpha"/>
<feOffset dy="5"/>
<feGaussianBlur stdDeviation="17"/>
<feColorMatrix type="matrix" values="0 0 0 0 0 0 0 0 0 0 0 0 0 0 0 0 0 0 0.1 0"/>
<feBlend mode="normal" in2="BackgroundImageFix" result="effect1_dropShadow_9_1306"/>
<feBlend mode="normal" in="SourceGraphic" in2="effect1_dropShadow_9_1306" result="shape"/>
</filter>
</defs>
</svg>
