<svg width="351" height="464" viewBox="0 0 351 464" fill="none" xmlns="http://www.w3.org/2000/svg">
<g filter="url(#filter0_d_9_1209)">
<rect x="36.1233" y="29" width="280" height="394" rx="20" transform="rotate(0.308765 36.1233 29)" fill="#F2F2F2"/>
<rect x="36.6206" y="29.5027" width="279" height="393" rx="19.5" transform="rotate(0.308765 36.6206 29.5027)" stroke="#D2D2D2"/>
</g>
<path d="M107.376 67.9236L109.016 67.9325L108.968 76.9167L108.304 76.9132C105.335 76.8972 102.689 77.3256 100.367 78.1985C98.0445 79.0714 96.0716 80.3238 94.4482 81.9557C92.851 83.5617 91.6165 85.5082 90.7448 87.7953C89.8991 90.0824 89.4686 92.6452 89.4533 95.4837L89.4024 104.937C89.3915 106.968 89.5771 108.766 89.9593 110.33C90.3677 111.869 90.9466 113.161 91.6962 114.207C92.472 115.227 93.3793 116 94.4181 116.526C95.4571 117.027 96.6277 117.281 97.9297 117.288C99.1537 117.294 100.262 117.04 101.254 116.524C102.273 116.009 103.136 115.284 103.844 114.351C104.578 113.391 105.131 112.274 105.503 111C105.9 109.7 106.103 108.282 106.112 106.746C106.12 105.209 105.932 103.789 105.549 102.485C105.191 101.181 104.65 100.058 103.926 99.1164C103.202 98.149 102.321 97.402 101.282 96.8756C100.243 96.3492 99.0727 96.0824 97.7706 96.0754C95.9998 96.0659 94.4351 96.4741 93.0764 97.3001C91.744 98.1003 90.6967 99.1363 89.9346 100.408C89.1726 101.68 88.7617 103.019 88.702 104.425L85.3154 102.219C85.4044 100.215 85.8313 98.3158 86.5961 96.523C87.3871 94.7304 88.4633 93.1476 89.8249 91.7747C91.2127 90.3759 92.8722 89.2911 94.8034 88.5203C96.7349 87.7234 98.9115 87.3314 101.333 87.3445C103.99 87.3588 106.317 87.8792 108.317 88.9056C110.343 89.9321 112.028 91.3345 113.373 93.1126C114.717 94.8907 115.722 96.9404 116.387 99.2617C117.051 101.583 117.376 104.059 117.362 106.689C117.347 109.449 116.878 112.012 115.953 114.377C115.055 116.742 113.755 118.805 112.053 120.567C110.377 122.329 108.364 123.698 106.015 124.675C103.666 125.652 101.033 126.133 98.1165 126.117C95.0957 126.101 92.3513 125.539 89.8833 124.432C87.4414 123.299 85.3405 121.725 83.5805 119.71C81.8205 117.696 80.4662 115.305 79.5175 112.54C78.5949 109.774 78.1425 106.751 78.1601 103.47L78.1837 99.0949C78.2084 94.5116 78.8951 90.3226 80.2437 86.5277C81.6184 82.7069 83.5763 79.4101 86.1174 76.6373C88.6585 73.8385 91.7171 71.6805 95.293 70.1633C98.8689 68.646 102.896 67.8995 107.376 67.9236Z" fill="#F24822"/>
<path fill-rule="evenodd" clip-rule="evenodd" d="M109.757 160.401C99.0667 160.508 96.876 172.666 96.876 172.666C96.876 172.666 94.4748 160.483 83.7861 160.261C73.0971 160.039 66.4682 169.377 70.0332 179.264C73.598 189.151 77.191 191.391 82.8329 198.575C88.4746 205.76 96.6719 218.18 96.615 221.099C96.5898 218.18 104.578 205.847 110.297 198.723C116.016 191.6 119.633 189.399 123.304 179.552C126.976 169.704 120.448 160.294 109.757 160.401Z" fill="#F24822"/>
<defs>
<filter id="filter0_d_9_1209" x="0.107544" y="0.107422" width="349.904" height="463.288" filterUnits="userSpaceOnUse" color-interpolation-filters="sRGB">
<feFlood flood-opacity="0" result="BackgroundImageFix"/>
<feColorMatrix in="SourceAlpha" type="matrix" values="0 0 0 0 0 0 0 0 0 0 0 0 0 0 0 0 0 0 127 0" result="hardAlpha"/>
<feOffset dy="5"/>
<feGaussianBlur stdDeviation="17"/>
<feColorMatrix type="matrix" values="0 0 0 0 0 0 0 0 0 0 0 0 0 0 0 0 0 0 0.1 0"/>
<feBlend mode="normal" in2="BackgroundImageFix" result="effect1_dropShadow_9_1209"/>
<feBlend mode="normal" in="SourceGraphic" in2="effect1_dropShadow_9_1209" result="shape"/>
</filter>
</defs>
</svg>
