<svg width="348" height="462" viewBox="0 0 348 462" fill="none" xmlns="http://www.w3.org/2000/svg">
<g filter="url(#filter0_d_9_1034)">
<rect x="34" y="29" width="280" height="394" rx="20" fill="#F2F2F2"/>
<rect x="34.5" y="29.5" width="279" height="393" rx="19.5" stroke="#D2D2D2"/>
</g>
<path d="M114.758 109.414C114.758 112.982 113.924 115.99 112.258 118.437C110.591 120.859 108.299 122.695 105.383 123.945C102.492 125.169 99.2109 125.781 95.5391 125.781C91.8672 125.781 88.5729 125.169 85.6562 123.945C82.7396 122.695 80.4349 120.859 78.7422 118.437C77.0495 115.99 76.2031 112.982 76.2031 109.414C76.2031 107.018 76.6849 104.857 77.6484 102.93C78.612 100.977 79.9531 99.3099 81.6719 97.9297C83.4167 96.5234 85.4609 95.4557 87.8047 94.7266C90.1484 93.9714 92.7005 93.5937 95.4609 93.5937C99.1589 93.5937 102.466 94.2448 105.383 95.5469C108.299 96.849 110.591 98.6849 112.258 101.055C113.924 103.424 114.758 106.211 114.758 109.414ZM103.43 108.672C103.43 106.927 103.091 105.43 102.414 104.18C101.763 102.904 100.839 101.927 99.6406 101.25C98.4427 100.573 97.0495 100.234 95.4609 100.234C93.8724 100.234 92.4792 100.573 91.2812 101.25C90.0833 101.927 89.1458 102.904 88.4687 104.18C87.8177 105.43 87.4922 106.927 87.4922 108.672C87.4922 110.391 87.8177 111.875 88.4687 113.125C89.1458 114.375 90.0833 115.339 91.2812 116.016C92.5052 116.667 93.9245 116.992 95.5391 116.992C97.1536 116.992 98.5469 116.667 99.7187 116.016C100.917 115.339 101.828 114.375 102.453 113.125C103.104 111.875 103.43 110.391 103.43 108.672ZM113.547 83.2031C113.547 86.0937 112.779 88.6589 111.242 90.8984C109.706 93.112 107.57 94.8437 104.836 96.0937C102.128 97.3437 99.0286 97.9687 95.5391 97.9687C92.0234 97.9687 88.8984 97.3437 86.1641 96.0937C83.4297 94.8437 81.2943 93.112 79.7578 90.8984C78.2214 88.6589 77.4531 86.0937 77.4531 83.2031C77.4531 79.7656 78.2214 76.875 79.7578 74.5312C81.3203 72.1615 83.4557 70.3646 86.1641 69.1406C88.8984 67.9167 91.9974 67.3047 95.4609 67.3047C98.9766 67.3047 102.089 67.9167 104.797 69.1406C107.531 70.3646 109.667 72.1615 111.203 74.5312C112.766 76.875 113.547 79.7656 113.547 83.2031ZM102.297 83.7109C102.297 82.1745 102.023 80.8464 101.477 79.7266C100.93 78.5807 100.148 77.6953 99.1328 77.0703C98.1432 76.4453 96.9193 76.1328 95.4609 76.1328C94.0547 76.1328 92.8437 76.4323 91.8281 77.0312C90.8385 77.6302 90.0703 78.5026 89.5234 79.6484C89.0026 80.7682 88.7422 82.1224 88.7422 83.7109C88.7422 85.2474 89.0026 86.6016 89.5234 87.7734C90.0703 88.9193 90.8516 89.8177 91.8672 90.4687C92.8828 91.1198 94.1068 91.4453 95.5391 91.4453C96.9714 91.4453 98.1823 91.1198 99.1719 90.4687C100.187 89.8177 100.956 88.9193 101.477 87.7734C102.023 86.6016 102.297 85.2474 102.297 83.7109Z" fill="#F24822"/>
<path fill-rule="evenodd" clip-rule="evenodd" d="M67.2307 185.628L96.5044 215.831L125.778 185.628L96.5044 155.425L67.2307 185.628Z" fill="#F24822"/>
<defs>
<filter id="filter0_d_9_1034" x="0" y="0" width="348" height="462" filterUnits="userSpaceOnUse" color-interpolation-filters="sRGB">
<feFlood flood-opacity="0" result="BackgroundImageFix"/>
<feColorMatrix in="SourceAlpha" type="matrix" values="0 0 0 0 0 0 0 0 0 0 0 0 0 0 0 0 0 0 127 0" result="hardAlpha"/>
<feOffset dy="5"/>
<feGaussianBlur stdDeviation="17"/>
<feColorMatrix type="matrix" values="0 0 0 0 0 0 0 0 0 0 0 0 0 0 0 0 0 0 0.1 0"/>
<feBlend mode="normal" in2="BackgroundImageFix" result="effect1_dropShadow_9_1034"/>
<feBlend mode="normal" in="SourceGraphic" in2="effect1_dropShadow_9_1034" result="shape"/>
</filter>
</defs>
</svg>
