<svg width="351" height="464" viewBox="0 0 351 464" fill="none" xmlns="http://www.w3.org/2000/svg">
<g filter="url(#filter0_d_9_1211)">
<rect x="36.1233" y="29" width="280" height="394" rx="20" transform="rotate(0.308765 36.1233 29)" fill="#F2F2F2"/>
<rect x="36.6206" y="29.5027" width="279" height="393" rx="19.5" transform="rotate(0.308765 36.6206 29.5027)" stroke="#D2D2D2"/>
</g>
<path d="M116.447 109.848C116.427 113.416 115.578 116.419 113.898 118.858C112.218 121.271 109.917 123.094 106.993 124.329C104.096 125.537 100.812 126.131 97.14 126.112C93.4681 126.092 90.1772 125.462 87.2672 124.222C84.3573 122.957 82.0625 121.108 80.3829 118.677C78.7034 116.22 77.8733 113.208 77.8925 109.64C77.9054 107.245 78.3988 105.086 79.3727 103.164C80.3468 101.216 81.6969 99.5566 83.4231 98.1856C85.1754 96.7888 87.2254 95.7321 89.5731 95.0156C91.9208 94.273 94.4749 93.9092 97.2353 93.9241C100.933 93.944 104.237 94.6128 107.147 95.9306C110.056 97.2484 112.338 99.0967 113.992 101.475C115.646 103.854 116.464 106.645 116.447 109.848ZM105.123 109.045C105.132 107.3 104.802 105.801 104.131 104.547C103.487 103.268 102.568 102.286 101.374 101.603C100.179 100.919 98.788 100.573 97.1995 100.565C95.611 100.556 94.216 100.887 93.0144 101.558C91.8129 102.228 90.8701 103.2 90.1862 104.472C89.5284 105.719 89.1948 107.214 89.1854 108.959C89.1761 110.678 89.4937 112.164 90.138 113.417C90.8083 114.671 91.7406 115.64 92.9348 116.323C94.1553 116.981 95.5728 117.314 97.1873 117.323C98.8019 117.331 100.197 117.013 101.372 116.369C102.574 115.698 103.49 114.739 104.122 113.493C104.78 112.246 105.113 110.764 105.123 109.045ZM115.377 83.6311C115.361 86.5216 114.579 89.0826 113.031 91.3138C111.482 93.5191 109.338 95.2393 106.597 96.4746C103.882 97.7099 100.779 98.3182 97.2898 98.2994C93.7743 98.2805 90.6527 97.6386 87.9251 96.3739C85.1975 95.1092 83.0714 93.366 81.5469 91.1442C80.0226 88.8963 79.2682 86.3271 79.2837 83.4365C79.3023 79.9991 80.0861 77.1127 81.6351 74.7772C83.2104 72.4159 85.3554 70.6305 88.0703 69.4212C90.8113 68.212 93.9135 67.6167 97.377 67.6354C100.893 67.6543 104.001 68.2831 106.703 69.5216C109.431 70.7603 111.556 72.5686 113.08 74.9467C114.63 77.2988 115.395 80.1936 115.377 83.6311ZM104.124 84.0782C104.133 82.5418 103.866 81.2122 103.326 80.0895C102.785 78.9407 102.008 78.0511 100.996 77.4207C100.01 76.7903 98.7877 76.4712 97.3294 76.4634C95.9232 76.4558 94.7106 76.7488 93.6918 77.3422C92.699 77.9358 91.9261 78.8041 91.373 79.947C90.8462 81.0639 90.5785 82.4167 90.5699 84.0052C90.5616 85.5416 90.8147 86.8972 91.3293 88.0718C91.8699 89.2206 92.6463 90.1232 93.6584 90.7797C94.6705 91.4363 95.8927 91.7684 97.325 91.7761C98.7573 91.7838 99.9699 91.4648 100.963 90.8191C101.982 90.1736 102.755 89.2793 103.282 88.1363C103.835 86.9673 104.116 85.6147 104.124 84.0782Z" fill="#F24822"/>
<path fill-rule="evenodd" clip-rule="evenodd" d="M109.757 160.401C99.0668 160.508 96.8761 172.666 96.8761 172.666C96.8761 172.666 94.475 160.483 83.7862 160.261C73.0973 160.039 66.4683 169.377 70.0334 179.264C73.5982 189.151 77.1911 191.391 82.833 198.575C88.4747 205.76 96.6721 218.18 96.6151 221.099C96.5899 218.18 104.578 205.847 110.297 198.723C116.017 191.6 119.633 189.399 123.305 179.552C126.976 169.704 120.448 160.294 109.757 160.401Z" fill="#F24822"/>
<defs>
<filter id="filter0_d_9_1211" x="0.107422" y="0.107422" width="349.904" height="463.288" filterUnits="userSpaceOnUse" color-interpolation-filters="sRGB">
<feFlood flood-opacity="0" result="BackgroundImageFix"/>
<feColorMatrix in="SourceAlpha" type="matrix" values="0 0 0 0 0 0 0 0 0 0 0 0 0 0 0 0 0 0 127 0" result="hardAlpha"/>
<feOffset dy="5"/>
<feGaussianBlur stdDeviation="17"/>
<feColorMatrix type="matrix" values="0 0 0 0 0 0 0 0 0 0 0 0 0 0 0 0 0 0 0.1 0"/>
<feBlend mode="normal" in2="BackgroundImageFix" result="effect1_dropShadow_9_1211"/>
<feBlend mode="normal" in="SourceGraphic" in2="effect1_dropShadow_9_1211" result="shape"/>
</filter>
</defs>
</svg>
