<svg width="348" height="462" viewBox="0 0 348 462" fill="none" xmlns="http://www.w3.org/2000/svg">
<g filter="url(#filter0_d_9_1309)">
<rect x="34" y="29" width="280" height="394" rx="20" fill="#F2F2F2"/>
<rect x="34.5" y="29.5" width="279" height="393" rx="19.5" stroke="#D2D2D2"/>
</g>
<path d="M84.4062 116.445H85.1484C88.2734 116.445 90.9557 116.068 93.1953 115.312C95.4609 114.531 97.3229 113.411 98.7812 111.953C100.24 110.495 101.32 108.711 102.023 106.602C102.727 104.466 103.078 102.044 103.078 99.3359V88.5547C103.078 86.4974 102.87 84.6875 102.453 83.125C102.062 81.5625 101.49 80.2734 100.734 79.2578C100.005 78.2161 99.1458 77.4349 98.1562 76.9141C97.1927 76.3932 96.125 76.1328 94.9531 76.1328C93.7031 76.1328 92.5964 76.4453 91.6328 77.0703C90.6693 77.6693 89.849 78.4896 89.1719 79.5312C88.5208 80.5729 88.013 81.7708 87.6484 83.125C87.3099 84.4531 87.1406 85.8464 87.1406 87.3047C87.1406 88.763 87.3099 90.1562 87.6484 91.4844C87.987 92.7865 88.4948 93.9453 89.1719 94.9609C89.849 95.9505 90.6953 96.7448 91.7109 97.3437C92.7266 97.9167 93.9245 98.2031 95.3047 98.2031C96.6328 98.2031 97.8177 97.9557 98.8594 97.4609C99.9271 96.9401 100.826 96.263 101.555 95.4297C102.31 94.5964 102.883 93.6719 103.273 92.6562C103.69 91.6406 103.898 90.612 103.898 89.5703L107.609 91.6016C107.609 93.4245 107.219 95.2214 106.437 96.9922C105.656 98.763 104.562 100.378 103.156 101.836C101.776 103.268 100.174 104.414 98.3516 105.273C96.5286 106.133 94.5755 106.562 92.4922 106.562C89.8359 106.562 87.4792 106.081 85.4219 105.117C83.3646 104.128 81.6198 102.773 80.1875 101.055C78.7812 99.3099 77.7135 97.2786 76.9844 94.9609C76.2552 92.6432 75.8906 90.1302 75.8906 87.4219C75.8906 84.6615 76.3333 82.0703 77.2187 79.6484C78.1302 77.2266 79.4193 75.0911 81.0859 73.2422C82.7786 71.3932 84.7969 69.9479 87.1406 68.9062C89.5104 67.8385 92.1406 67.3047 95.0312 67.3047C97.9219 67.3047 100.552 67.8646 102.922 68.9844C105.292 70.1042 107.323 71.6927 109.016 73.75C110.708 75.7812 112.01 78.2161 112.922 81.0547C113.859 83.8932 114.328 87.0443 114.328 90.5078V94.4141C114.328 98.112 113.924 101.549 113.117 104.727C112.336 107.904 111.151 110.781 109.562 113.359C108 115.911 106.047 118.099 103.703 119.922C101.385 121.745 98.6901 123.138 95.6172 124.102C92.5443 125.065 89.1068 125.547 85.3047 125.547H84.4062V116.445Z" fill="#050505"/>
<path fill-rule="evenodd" clip-rule="evenodd" d="M110.755 176.288C109.056 176.288 107.437 176.659 105.961 177.328C107.347 175.139 108.161 172.487 108.161 169.627C108.161 162.122 102.571 156.037 95.6759 156.037C88.7809 156.037 83.1913 162.122 83.1913 169.627C83.1913 172.35 83.93 174.884 85.197 177.01C83.9372 176.545 82.5883 176.288 81.1841 176.288C74.2888 176.288 68.6995 182.373 68.6995 189.878C68.6995 197.383 74.2888 203.467 81.1841 203.467C82.7413 203.467 84.2308 203.154 85.6056 202.587C85.6053 202.59 91.4158 200.882 95.2354 193.315V197.871C95.2354 197.871 93.277 212.234 79.4706 213.806H77.2672V216.044H114.868V213.806H112.665C98.8584 212.234 96.8999 197.871 96.8999 197.871V193.622C97.6113 195.327 101.545 203.665 110.384 203.458C110.508 203.461 110.631 203.467 110.755 203.467C117.651 203.467 123.24 197.383 123.24 189.878C123.24 182.373 117.651 176.288 110.755 176.288Z" fill="#1A1919"/>
<defs>
<filter id="filter0_d_9_1309" x="0" y="0" width="348" height="462" filterUnits="userSpaceOnUse" color-interpolation-filters="sRGB">
<feFlood flood-opacity="0" result="BackgroundImageFix"/>
<feColorMatrix in="SourceAlpha" type="matrix" values="0 0 0 0 0 0 0 0 0 0 0 0 0 0 0 0 0 0 127 0" result="hardAlpha"/>
<feOffset dy="5"/>
<feGaussianBlur stdDeviation="17"/>
<feColorMatrix type="matrix" values="0 0 0 0 0 0 0 0 0 0 0 0 0 0 0 0 0 0 0.1 0"/>
<feBlend mode="normal" in2="BackgroundImageFix" result="effect1_dropShadow_9_1309"/>
<feBlend mode="normal" in="SourceGraphic" in2="effect1_dropShadow_9_1309" result="shape"/>
</filter>
</defs>
</svg>
