<svg width="280" height="395" viewBox="0 0 280 395" fill="none" xmlns="http://www.w3.org/2000/svg">
<g clip-path="url(#clip0_10_1392)">
<rect x="0.5" y="356.5" width="279" height="38" rx="19" fill="#C4C4C4" stroke="#8E8E8E"/>
<rect x="0.5" y="0.5" width="279" height="393" rx="19.5" fill="#F2F2F2" stroke="#D2D2D2"/>
<mask id="mask0_10_1392" style="mask-type:alpha" maskUnits="userSpaceOnUse" x="15" y="16" width="249" height="362">
<rect x="15" y="16" width="249" height="362" fill="#C4C4C4"/>
</mask>
<g mask="url(#mask0_10_1392)">
<path d="M320.5 378.5L-42 16" stroke="#EA5959" stroke-width="440" stroke-dasharray="20 20"/>
<path d="M139.303 205.731C153.829 205.731 165.606 194.15 165.606 179.865C165.606 165.58 153.829 154 139.303 154C124.776 154 113 165.58 113 179.865C113 194.15 124.776 205.731 139.303 205.731Z" fill="#EA5959"/>
<path d="M139.303 239.454C153.829 239.454 165.606 227.874 165.606 213.589C165.606 199.304 153.829 187.724 139.303 187.724C124.776 187.724 113 199.304 113 213.589C113 227.874 124.776 239.454 139.303 239.454Z" fill="#EA5959"/>
<path d="M139.303 188.051C143.9 188.051 147.627 184.386 147.627 179.865C147.627 175.345 143.9 171.68 139.303 171.68C134.706 171.68 130.979 175.345 130.979 179.865C130.979 184.386 134.706 188.051 139.303 188.051Z" fill="black"/>
<path d="M139.303 222.101C143.9 222.101 147.627 218.436 147.627 213.916C147.627 209.395 143.9 205.73 139.303 205.73C134.706 205.73 130.979 209.395 130.979 213.916C130.979 218.436 134.706 222.101 139.303 222.101Z" fill="black"/>
<path d="M139.303 222.101C134.706 222.101 130.979 218.436 130.979 213.916C130.979 209.395 134.706 205.73 139.303 205.73" stroke="black" stroke-width="2.5"/>
<path d="M139.303 227.995C131.396 227.995 124.986 221.692 124.986 213.917C124.986 206.141 131.396 199.838 139.303 199.838" stroke="black" stroke-width="2.5"/>
<path d="M139.303 233.888C128.086 233.888 118.993 224.946 118.993 213.916C118.993 202.886 128.086 193.944 139.303 193.944" stroke="black" stroke-width="2.5"/>
<path d="M139.303 239.782C124.776 239.782 113 228.201 113 213.916C113 199.631 124.776 188.051 139.303 188.051" stroke="black" stroke-width="2.5"/>
<path d="M139.303 188.051C143.9 188.051 147.627 184.386 147.627 179.865C147.627 175.345 143.9 171.68 139.303 171.68" stroke="black" stroke-width="2.5"/>
<path d="M139.303 193.944C147.21 193.944 153.62 187.641 153.62 179.865C153.62 172.09 147.21 165.787 139.303 165.787" stroke="black" stroke-width="2.5"/>
<path d="M139.303 199.837C150.52 199.837 159.613 190.895 159.613 179.865C159.613 168.835 150.52 159.893 139.303 159.893" stroke="black" stroke-width="2.5"/>
<path d="M139.303 205.731C153.83 205.731 165.606 194.15 165.606 179.865C165.606 165.58 153.83 154 139.303 154" stroke="black" stroke-width="2.5"/>
<path d="M139.303 222.101C143.9 222.101 147.627 218.436 147.627 213.916C147.627 209.395 143.9 205.73 139.303 205.73" stroke="black" stroke-width="2.5"/>
<path d="M139.303 227.994C147.21 227.994 153.62 221.691 153.62 213.916C153.62 209.961 151.961 206.387 149.291 203.83" stroke="black" stroke-width="2.5"/>
<path d="M139.303 233.888C150.52 233.888 159.613 224.946 159.613 213.916C159.613 208.906 157.736 204.326 154.637 200.82" stroke="black" stroke-width="2.5"/>
<path d="M139.303 239.781C153.83 239.781 165.606 228.201 165.606 213.916C165.606 207.396 163.153 201.44 159.105 196.891" stroke="black" stroke-width="2.5"/>
<path d="M139.303 188.051C134.706 188.051 130.979 184.386 130.979 179.865C130.979 175.345 134.706 171.68 139.303 171.68" stroke="black" stroke-width="2.5"/>
<path d="M139.303 165.787C131.396 165.787 124.986 172.09 124.986 179.865C124.986 183.902 126.714 187.541 129.481 190.108" stroke="black" stroke-width="2.5"/>
<path d="M139.303 159.893C128.086 159.893 118.993 168.835 118.993 179.865C118.993 184.876 120.87 189.455 123.969 192.961" stroke="black" stroke-width="2.5"/>
<path d="M139.303 154C124.776 154 113 165.58 113 179.865C113 186.307 115.395 192.199 119.357 196.727" stroke="black" stroke-width="2.5"/>
<path d="M139.136 182.158C140.331 182.158 141.3 181.205 141.3 180.029C141.3 178.854 140.331 177.901 139.136 177.901C137.941 177.901 136.972 178.854 136.972 180.029C136.972 181.205 137.941 182.158 139.136 182.158Z" fill="white"/>
<path d="M139.136 215.88C140.331 215.88 141.3 214.928 141.3 213.752C141.3 212.577 140.331 211.624 139.136 211.624C137.941 211.624 136.972 212.577 136.972 213.752C136.972 214.928 137.941 215.88 139.136 215.88Z" fill="white"/>
</g>
</g>
<defs>
<clipPath id="clip0_10_1392">
<rect width="280" height="395" fill="white"/>
</clipPath>
</defs>
</svg>
