<svg width="348" height="462" viewBox="0 0 348 462" fill="none" xmlns="http://www.w3.org/2000/svg">
<g filter="url(#filter0_d_9_1312)">
<rect x="34" y="29" width="280" height="394" rx="20" fill="#F2F2F2"/>
<rect x="34.5" y="29.5" width="279" height="393" rx="19.5" stroke="#D2D2D2"/>
</g>
<path d="M103.898 116.562L119.289 128.75L111.906 135.156L96.75 122.969L103.898 116.562ZM119.68 95.2344V97.9297C119.68 102.253 119.094 106.133 117.922 109.57C116.776 113.008 115.122 115.937 112.961 118.359C110.799 120.755 108.247 122.591 105.305 123.867C102.362 125.143 99.0937 125.781 95.5 125.781C91.9323 125.781 88.6641 125.143 85.6953 123.867C82.7266 122.591 80.1615 120.755 78 118.359C75.8385 115.937 74.1589 113.008 72.9609 109.57C71.7891 106.133 71.2031 102.253 71.2031 97.9297V95.2344C71.2031 90.8854 71.7891 87.0052 72.9609 83.5937C74.1589 80.1562 75.8255 77.2266 77.9609 74.8047C80.0964 72.3828 82.6484 70.5339 85.6172 69.2578C88.5859 67.9818 91.8542 67.3437 95.4219 67.3437C99.0156 67.3437 102.284 67.9818 105.227 69.2578C108.195 70.5339 110.76 72.3828 112.922 74.8047C115.083 77.2266 116.75 80.1562 117.922 83.5937C119.094 87.0052 119.68 90.8854 119.68 95.2344ZM107.844 97.9297V95.1562C107.844 92.1354 107.557 89.4792 106.984 87.1875C106.437 84.8958 105.63 82.9687 104.562 81.4062C103.521 79.8437 102.232 78.6719 100.695 77.8906C99.1589 77.0833 97.401 76.6797 95.4219 76.6797C93.4427 76.6797 91.6849 77.0833 90.1484 77.8906C88.612 78.6719 87.3229 79.8437 86.2812 81.4062C85.2396 82.9687 84.4453 84.8958 83.8984 87.1875C83.3516 89.4792 83.0781 92.1354 83.0781 95.1562V97.9297C83.0781 100.924 83.3516 103.581 83.8984 105.898C84.4453 108.19 85.2396 110.13 86.2812 111.719C87.349 113.281 88.651 114.466 90.1875 115.273C91.75 116.081 93.5208 116.484 95.5 116.484C97.4792 116.484 99.224 116.081 100.734 115.273C102.271 114.466 103.56 113.281 104.602 111.719C105.669 110.13 106.477 108.19 107.023 105.898C107.57 103.581 107.844 100.924 107.844 97.9297Z" fill="#050505"/>
<path fill-rule="evenodd" clip-rule="evenodd" d="M110.755 176.288C109.056 176.288 107.437 176.659 105.961 177.328C107.347 175.139 108.161 172.487 108.161 169.627C108.161 162.122 102.571 156.037 95.6759 156.037C88.7809 156.037 83.1913 162.122 83.1913 169.627C83.1913 172.35 83.93 174.884 85.197 177.01C83.9372 176.545 82.5883 176.288 81.1841 176.288C74.2888 176.288 68.6995 182.373 68.6995 189.878C68.6995 197.383 74.2888 203.467 81.1841 203.467C82.7413 203.467 84.2308 203.154 85.6056 202.587C85.6053 202.59 91.4158 200.882 95.2354 193.315V197.871C95.2354 197.871 93.277 212.234 79.4706 213.806H77.2672V216.044H114.868V213.806H112.665C98.8584 212.234 96.8999 197.871 96.8999 197.871V193.622C97.6113 195.327 101.545 203.665 110.384 203.458C110.508 203.461 110.631 203.467 110.755 203.467C117.651 203.467 123.24 197.383 123.24 189.878C123.24 182.373 117.651 176.288 110.755 176.288Z" fill="#1A1919"/>
<defs>
<filter id="filter0_d_9_1312" x="0" y="0" width="348" height="462" filterUnits="userSpaceOnUse" color-interpolation-filters="sRGB">
<feFlood flood-opacity="0" result="BackgroundImageFix"/>
<feColorMatrix in="SourceAlpha" type="matrix" values="0 0 0 0 0 0 0 0 0 0 0 0 0 0 0 0 0 0 127 0" result="hardAlpha"/>
<feOffset dy="5"/>
<feGaussianBlur stdDeviation="17"/>
<feColorMatrix type="matrix" values="0 0 0 0 0 0 0 0 0 0 0 0 0 0 0 0 0 0 0.1 0"/>
<feBlend mode="normal" in2="BackgroundImageFix" result="effect1_dropShadow_9_1312"/>
<feBlend mode="normal" in="SourceGraphic" in2="effect1_dropShadow_9_1312" result="shape"/>
</filter>
</defs>
</svg>
