<svg width="351" height="464" viewBox="0 0 351 464" fill="none" xmlns="http://www.w3.org/2000/svg">
<g filter="url(#filter0_d_9_1215)">
<rect x="36.1233" y="29" width="280" height="394" rx="20" transform="rotate(0.308765 36.1233 29)" fill="#F2F2F2"/>
<rect x="36.6206" y="29.5027" width="279" height="393" rx="19.5" transform="rotate(0.308765 36.6206 29.5027)" stroke="#D2D2D2"/>
</g>
<path d="M105.549 116.938L120.874 129.208L113.456 135.575L98.366 123.306L105.549 116.938ZM121.445 95.6952L121.43 98.3905C121.407 102.713 120.8 106.59 119.61 110.021C118.445 113.453 116.776 116.373 114.602 118.784C112.427 121.168 109.865 122.99 106.916 124.25C103.966 125.51 100.695 126.131 97.1009 126.111C93.5332 126.092 90.2685 125.436 87.3067 124.144C84.3448 122.852 81.7897 121.003 79.6412 118.595C77.4928 116.162 75.8289 113.223 74.6495 109.779C73.4962 106.335 72.9312 102.452 72.9545 98.1292L72.969 95.4339C72.9924 91.085 73.5993 87.2081 74.7895 83.803C76.0059 80.372 77.6884 77.4513 79.8368 75.041C81.9852 72.6306 84.5473 70.7955 87.5228 69.5354C90.4984 68.2754 93.77 67.655 97.3377 67.6742C100.931 67.6936 104.196 68.3492 107.132 69.6411C110.094 70.9331 112.649 72.7959 114.797 75.2294C116.946 77.6629 118.596 80.6015 119.75 84.0453C120.903 87.463 121.468 91.3463 121.445 95.6952ZM109.595 98.3267L109.61 95.5533C109.626 92.5325 109.354 89.8747 108.793 87.58C108.259 85.2854 107.462 83.354 106.402 81.7858C105.369 80.2177 104.086 79.0389 102.554 78.2494C101.022 77.4338 99.2665 77.0207 97.2874 77.01C95.3082 76.9994 93.5483 77.3935 92.0075 78.1925C90.4669 78.9655 89.1715 80.1304 88.1214 81.6873C87.0714 83.2441 86.2667 85.1669 85.7075 87.4556C85.1483 89.7443 84.8605 92.399 84.8442 95.4198L84.8293 98.1932C84.8132 101.188 85.0723 103.846 85.6067 106.166C86.1412 108.461 86.925 110.405 87.9581 111.999C89.0173 113.568 90.313 114.759 91.8451 115.575C93.4032 116.391 95.1719 116.804 97.151 116.815C99.1301 116.825 100.877 116.431 102.392 115.632C103.933 114.833 105.228 113.655 106.278 112.098C107.354 110.515 108.172 108.58 108.731 106.291C109.291 103.976 109.578 101.321 109.595 98.3267Z" fill="#F24822"/>
<path fill-rule="evenodd" clip-rule="evenodd" d="M109.757 160.401C99.0668 160.508 96.8761 172.666 96.8761 172.666C96.8761 172.666 94.475 160.483 83.7862 160.261C73.0973 160.039 66.4683 169.377 70.0334 179.264C73.5982 189.151 77.1911 191.391 82.833 198.575C88.4747 205.76 96.6721 218.18 96.6151 221.099C96.5899 218.18 104.578 205.847 110.297 198.723C116.017 191.6 119.633 189.399 123.305 179.552C126.976 169.704 120.448 160.294 109.757 160.401Z" fill="#F24822"/>
<defs>
<filter id="filter0_d_9_1215" x="0.107422" y="0.107422" width="349.904" height="463.288" filterUnits="userSpaceOnUse" color-interpolation-filters="sRGB">
<feFlood flood-opacity="0" result="BackgroundImageFix"/>
<feColorMatrix in="SourceAlpha" type="matrix" values="0 0 0 0 0 0 0 0 0 0 0 0 0 0 0 0 0 0 127 0" result="hardAlpha"/>
<feOffset dy="5"/>
<feGaussianBlur stdDeviation="17"/>
<feColorMatrix type="matrix" values="0 0 0 0 0 0 0 0 0 0 0 0 0 0 0 0 0 0 0.1 0"/>
<feBlend mode="normal" in2="BackgroundImageFix" result="effect1_dropShadow_9_1215"/>
<feBlend mode="normal" in="SourceGraphic" in2="effect1_dropShadow_9_1215" result="shape"/>
</filter>
</defs>
</svg>
